<svg xmlns="http://www.w3.org/2000/svg" xmlns:xlink="http://www.w3.org/1999/xlink" width="434.217" height="280.751" viewBox="0 0 434.217 280.751"><defs><clipPath id="a"><path d="M211.116,0c-.064.392-.138.781-.2,1.173q-.653,4.175-1.1,8.372t-.69,8.417q-.243,4.218-.274,8.443t.139,8.442q.173,4.222.553,8.427t.967,8.39q.586,4.182,1.376,8.333t1.785,8.254q.994,4.108,2.187,8.157t2.583,8.04q1.393,3.99,2.977,7.905t3.359,7.748q1.772,3.833,3.736,7.572t4.1,7.382q2.143,3.639,4.46,7.172t4.806,6.944q2.491,3.411,5.144,6.7,2.631,3.259,5.417,6.388l.094.105q2.787,3.124,5.727,6.111,2.959,3.01,6.069,5.872t6.349,5.566q3.243,2.708,6.616,5.251t6.866,4.918q3.495,2.375,7.1,4.576t7.314,4.221q3.71,2.02,7.512,3.857t7.693,3.485q3.891,1.647,7.856,3.1t8,2.715q4.033,1.258,8.12,2.316t8.226,1.919q4.133.856,8.309,1.509t8.372,1.1q4.2.448,8.417.689t8.442.275q4.222.032,8.443-.139t8.427-.555q4.206-.377,8.39-.964t8.333-1.378q4.147-.791,8.254-1.784t8.158-2.185q4.051-1.194,8.039-2.583t7.905-2.977q3.914-1.584,7.746-3.359t7.575-3.736q3.742-1.961,7.381-4.1t7.172-4.46q3.53-2.319,6.941-4.808t6.7-5.141q3.286-2.653,6.438-5.466t6.163-5.773c.466-.459.92-.928,1.381-1.392a179.466,179.466,0,0,1-67.686,33.4,180.111,180.111,0,0,1-218.8-130.411A180.109,180.109,0,0,1,211.116,0Z" transform="translate(-208.847)" fill="none"/></clipPath><linearGradient id="b" x1="-0.304" y1="1.136" x2="-0.302" y2="1.136" gradientUnits="objectBoundingBox"><stop offset="0" stop-color="#e52525"/><stop offset="0.063" stop-color="#e52525"/><stop offset="0.078" stop-color="#e52525"/><stop offset="0.082" stop-color="#e52626"/><stop offset="0.086" stop-color="#e52726"/><stop offset="0.09" stop-color="#e52727"/><stop offset="0.094" stop-color="#e52827"/><stop offset="0.098" stop-color="#e52927"/><stop offset="0.102" stop-color="#e62a28"/><stop offset="0.105" stop-color="#e62a28"/><stop offset="0.109" stop-color="#e62b29"/><stop offset="0.113" stop-color="#e62c29"/><stop offset="0.117" stop-color="#e62c2a"/><stop offset="0.121" stop-color="#e62d2a"/><stop offset="0.125" stop-color="#e62e2b"/><stop offset="0.129" stop-color="#e62f2b"/><stop offset="0.133" stop-color="#e62f2c"/><stop offset="0.137" stop-color="#e6302c"/><stop offset="0.141" stop-color="#e6312d"/><stop offset="0.145" stop-color="#e7312d"/><stop offset="0.148" stop-color="#e7322e"/><stop offset="0.152" stop-color="#e7332e"/><stop offset="0.156" stop-color="#e7342f"/><stop offset="0.16" stop-color="#e7342f"/><stop offset="0.164" stop-color="#e73530"/><stop offset="0.168" stop-color="#e73630"/><stop offset="0.172" stop-color="#e73630"/><stop offset="0.176" stop-color="#e73731"/><stop offset="0.18" stop-color="#e73831"/><stop offset="0.184" stop-color="#e73932"/><stop offset="0.188" stop-color="#e73932"/><stop offset="0.191" stop-color="#e83a33"/><stop offset="0.195" stop-color="#e83b33"/><stop offset="0.199" stop-color="#e83b34"/><stop offset="0.203" stop-color="#e83c34"/><stop offset="0.207" stop-color="#e83d35"/><stop offset="0.211" stop-color="#e83e35"/><stop offset="0.215" stop-color="#e83e36"/><stop offset="0.219" stop-color="#e83f36"/><stop offset="0.223" stop-color="#e84037"/><stop offset="0.227" stop-color="#e84037"/><stop offset="0.23" stop-color="#e84138"/><stop offset="0.234" stop-color="#e94238"/><stop offset="0.238" stop-color="#e94339"/><stop offset="0.242" stop-color="#e94339"/><stop offset="0.246" stop-color="#e94439"/><stop offset="0.25" stop-color="#e9453a"/><stop offset="0.254" stop-color="#e9453a"/><stop offset="0.258" stop-color="#e9463b"/><stop offset="0.262" stop-color="#e9473b"/><stop offset="0.266" stop-color="#e9483c"/><stop offset="0.27" stop-color="#e9483c"/><stop offset="0.273" stop-color="#e9493d"/><stop offset="0.277" stop-color="#ea4a3d"/><stop offset="0.281" stop-color="#ea4a3e"/><stop offset="0.285" stop-color="#ea4b3e"/><stop offset="0.289" stop-color="#ea4c3f"/><stop offset="0.293" stop-color="#ea4d3f"/><stop offset="0.297" stop-color="#ea4d40"/><stop offset="0.301" stop-color="#ea4e40"/><stop offset="0.305" stop-color="#ea4f41"/><stop offset="0.309" stop-color="#ea4f41"/><stop offset="0.313" stop-color="#ea5042"/><stop offset="0.316" stop-color="#ea5142"/><stop offset="0.32" stop-color="#ea5242"/><stop offset="0.324" stop-color="#eb5243"/><stop offset="0.328" stop-color="#eb5343"/><stop offset="0.332" stop-color="#eb5444"/><stop offset="0.336" stop-color="#eb5444"/><stop offset="0.34" stop-color="#eb5545"/><stop offset="0.344" stop-color="#eb5645"/><stop offset="0.348" stop-color="#eb5746"/><stop offset="0.352" stop-color="#eb5746"/><stop offset="0.355" stop-color="#eb5847"/><stop offset="0.359" stop-color="#eb5947"/><stop offset="0.363" stop-color="#eb5948"/><stop offset="0.367" stop-color="#ec5a48"/><stop offset="0.371" stop-color="#ec5b49"/><stop offset="0.375" stop-color="#ec5c49"/><stop offset="0.379" stop-color="#ec5c4a"/><stop offset="0.383" stop-color="#ec5d4a"/><stop offset="0.387" stop-color="#ec5e4b"/><stop offset="0.391" stop-color="#ec5e4b"/><stop offset="0.395" stop-color="#ec5f4b"/><stop offset="0.398" stop-color="#ec604c"/><stop offset="0.402" stop-color="#ec614c"/><stop offset="0.406" stop-color="#ec614d"/><stop offset="0.41" stop-color="#ed624d"/><stop offset="0.414" stop-color="#ed634e"/><stop offset="0.418" stop-color="#ed634e"/><stop offset="0.422" stop-color="#ed644f"/><stop offset="0.426" stop-color="#ed654f"/><stop offset="0.43" stop-color="#ed6650"/><stop offset="0.434" stop-color="#ed6650"/><stop offset="0.438" stop-color="#ed6751"/><stop offset="0.441" stop-color="#ed6851"/><stop offset="0.445" stop-color="#ed6852"/><stop offset="0.449" stop-color="#ed6952"/><stop offset="0.453" stop-color="#ed6a53"/><stop offset="0.457" stop-color="#ee6b53"/><stop offset="0.461" stop-color="#ee6b54"/><stop offset="0.465" stop-color="#ee6c54"/><stop offset="0.469" stop-color="#ee6d54"/><stop offset="0.473" stop-color="#ee6d55"/><stop offset="0.477" stop-color="#ee6e55"/><stop offset="0.48" stop-color="#ee6f56"/><stop offset="0.484" stop-color="#ee7056"/><stop offset="0.488" stop-color="#ee7057"/><stop offset="0.492" stop-color="#ee7157"/><stop offset="0.496" stop-color="#ee7258"/><stop offset="0.5" stop-color="#ef7258"/><stop offset="0.504" stop-color="#ef7359"/><stop offset="0.508" stop-color="#ef7459"/><stop offset="0.512" stop-color="#ef755a"/><stop offset="0.516" stop-color="#ef755a"/><stop offset="0.52" stop-color="#ef765b"/><stop offset="0.523" stop-color="#ef775b"/><stop offset="0.527" stop-color="#ef775c"/><stop offset="0.531" stop-color="#ef785c"/><stop offset="0.535" stop-color="#ef795d"/><stop offset="0.539" stop-color="#ef7a5d"/><stop offset="0.543" stop-color="#f07a5d"/><stop offset="0.547" stop-color="#f07b5e"/><stop offset="0.551" stop-color="#f07c5e"/><stop offset="0.555" stop-color="#f07c5f"/><stop offset="0.559" stop-color="#f07d5f"/><stop offset="0.563" stop-color="#f07e60"/><stop offset="0.566" stop-color="#f07f61"/><stop offset="0.57" stop-color="#f08062"/><stop offset="0.574" stop-color="#f08163"/><stop offset="0.578" stop-color="#f08265"/><stop offset="0.582" stop-color="#f08366"/><stop offset="0.586" stop-color="#f08467"/><stop offset="0.59" stop-color="#f08568"/><stop offset="0.594" stop-color="#f0866a"/><stop offset="0.598" stop-color="#f0876b"/><stop offset="0.602" stop-color="#f0886c"/><stop offset="0.605" stop-color="#f0896d"/><stop offset="0.609" stop-color="#f08a6f"/><stop offset="0.613" stop-color="#f08b70"/><stop offset="0.617" stop-color="#f08c71"/><stop offset="0.621" stop-color="#f08d72"/><stop offset="0.625" stop-color="#f08e73"/><stop offset="0.629" stop-color="#f08f75"/><stop offset="0.633" stop-color="#f09076"/><stop offset="0.637" stop-color="#f09177"/><stop offset="0.641" stop-color="#f09278"/><stop offset="0.645" stop-color="#f0937a"/><stop offset="0.648" stop-color="#f0947b"/><stop offset="0.652" stop-color="#f0967c"/><stop offset="0.656" stop-color="#f0977d"/><stop offset="0.66" stop-color="#f0987f"/><stop offset="0.664" stop-color="#f09980"/><stop offset="0.668" stop-color="#f09a81"/><stop offset="0.672" stop-color="#f09b82"/><stop offset="0.676" stop-color="#f09c83"/><stop offset="0.68" stop-color="#f09d85"/><stop offset="0.684" stop-color="#f09e86"/><stop offset="0.688" stop-color="#ef9f87"/><stop offset="0.691" stop-color="#efa088"/><stop offset="0.695" stop-color="#efa18a"/><stop offset="0.699" stop-color="#efa28b"/><stop offset="0.703" stop-color="#efa38c"/><stop offset="0.707" stop-color="#efa48d"/><stop offset="0.711" stop-color="#efa58f"/><stop offset="0.715" stop-color="#efa690"/><stop offset="0.719" stop-color="#efa791"/><stop offset="0.723" stop-color="#efa892"/><stop offset="0.727" stop-color="#efa993"/><stop offset="0.73" stop-color="#efaa95"/><stop offset="0.734" stop-color="#efab96"/><stop offset="0.738" stop-color="#efac97"/><stop offset="0.742" stop-color="#efad98"/><stop offset="0.746" stop-color="#efae9a"/><stop offset="0.75" stop-color="#efaf9b"/><stop offset="0.754" stop-color="#efb09c"/><stop offset="0.758" stop-color="#efb19d"/><stop offset="0.762" stop-color="#efb29f"/><stop offset="0.766" stop-color="#efb3a0"/><stop offset="0.77" stop-color="#efb4a1"/><stop offset="0.773" stop-color="#efb5a2"/><stop offset="0.777" stop-color="#efb6a4"/><stop offset="0.781" stop-color="#efb7a5"/><stop offset="0.785" stop-color="#efb8a6"/><stop offset="0.789" stop-color="#efb9a7"/><stop offset="0.793" stop-color="#efbba8"/><stop offset="0.797" stop-color="#efbcaa"/><stop offset="0.801" stop-color="#efbdab"/><stop offset="0.805" stop-color="#efbeac"/><stop offset="0.809" stop-color="#efbfad"/><stop offset="0.813" stop-color="#efc0af"/><stop offset="0.816" stop-color="#efc1b0"/><stop offset="0.82" stop-color="#efc2b1"/><stop offset="0.824" stop-color="#efc3b2"/><stop offset="0.828" stop-color="#efc4b4"/><stop offset="0.832" stop-color="#efc5b5"/><stop offset="0.836" stop-color="#efc6b6"/><stop offset="0.844" stop-color="#efc6b6"/><stop offset="0.875" stop-color="#efc6b6"/><stop offset="1" stop-color="#efc6b6"/></linearGradient><clipPath id="c"><path d="M169.019,172.093c-.184.929-.363,1.859-.561,2.785q-.888,4.131-1.974,8.212t-2.372,8.1q-1.285,4.026-2.766,7.979t-3.155,7.836c-.159.37-.33.735-.492,1.1.63-.861,1.26-1.723,1.874-2.6q2.433-3.455,4.691-7.023t4.341-7.245q2.08-3.675,3.981-7.449t3.608-7.633q1.71-3.864,3.231-7.8t2.843-7.952q1.325-4.009,2.45-8.081t2.052-8.194q.923-4.118,1.645-8.282t1.237-8.354q.514-4.193.826-8.406t.414-8.435q.1-4.222,0-8.445t-.413-8.435q-.315-4.21-.83-8.4c-.129-1.044-.277-2.085-.425-3.125-.779,29.444-7.472,60.089-20.2,89.842" transform="translate(-157.699 -82.251)" fill="none"/></clipPath><linearGradient id="d" x1="-0.442" y1="3.428" x2="-0.437" y2="3.428" gradientUnits="objectBoundingBox"><stop offset="0" stop-color="#e52525"/><stop offset="0.063" stop-color="#e52525"/><stop offset="0.094" stop-color="#e52525"/><stop offset="0.109" stop-color="#e52525"/><stop offset="0.113" stop-color="#e52726"/><stop offset="0.117" stop-color="#e52726"/><stop offset="0.121" stop-color="#e52827"/><stop offset="0.125" stop-color="#e52927"/><stop offset="0.129" stop-color="#e62928"/><stop offset="0.133" stop-color="#e62a28"/><stop offset="0.137" stop-color="#e62b29"/><stop offset="0.141" stop-color="#e62b29"/><stop offset="0.145" stop-color="#e62c2a"/><stop offset="0.148" stop-color="#e62d2a"/><stop offset="0.152" stop-color="#e62d2b"/><stop offset="0.156" stop-color="#e62e2b"/><stop offset="0.16" stop-color="#e62f2c"/><stop offset="0.164" stop-color="#e6302c"/><stop offset="0.168" stop-color="#e6302c"/><stop offset="0.172" stop-color="#e6312d"/><stop offset="0.176" stop-color="#e7322d"/><stop offset="0.18" stop-color="#e7322e"/><stop offset="0.184" stop-color="#e7332e"/><stop offset="0.188" stop-color="#e7342f"/><stop offset="0.191" stop-color="#e7342f"/><stop offset="0.195" stop-color="#e73530"/><stop offset="0.199" stop-color="#e73630"/><stop offset="0.203" stop-color="#e73631"/><stop offset="0.207" stop-color="#e73731"/><stop offset="0.211" stop-color="#e73831"/><stop offset="0.215" stop-color="#e73932"/><stop offset="0.219" stop-color="#e73932"/><stop offset="0.223" stop-color="#e83a33"/><stop offset="0.227" stop-color="#e83b33"/><stop offset="0.23" stop-color="#e83b34"/><stop offset="0.234" stop-color="#e83c34"/><stop offset="0.238" stop-color="#e83d35"/><stop offset="0.242" stop-color="#e83d35"/><stop offset="0.246" stop-color="#e83e36"/><stop offset="0.25" stop-color="#e83f36"/><stop offset="0.254" stop-color="#e83f37"/><stop offset="0.258" stop-color="#e84037"/><stop offset="0.262" stop-color="#e84137"/><stop offset="0.266" stop-color="#e94238"/><stop offset="0.27" stop-color="#e94238"/><stop offset="0.273" stop-color="#e94339"/><stop offset="0.277" stop-color="#e94439"/><stop offset="0.281" stop-color="#e9443a"/><stop offset="0.285" stop-color="#e9453a"/><stop offset="0.289" stop-color="#e9463b"/><stop offset="0.293" stop-color="#e9463b"/><stop offset="0.297" stop-color="#e9473c"/><stop offset="0.301" stop-color="#e9483c"/><stop offset="0.305" stop-color="#e9483c"/><stop offset="0.309" stop-color="#e9493d"/><stop offset="0.313" stop-color="#ea4a3d"/><stop offset="0.316" stop-color="#ea4b3e"/><stop offset="0.32" stop-color="#ea4b3e"/><stop offset="0.324" stop-color="#ea4c3f"/><stop offset="0.328" stop-color="#ea4d3f"/><stop offset="0.332" stop-color="#ea4d40"/><stop offset="0.336" stop-color="#ea4e40"/><stop offset="0.34" stop-color="#ea4f41"/><stop offset="0.344" stop-color="#ea4f41"/><stop offset="0.348" stop-color="#ea5042"/><stop offset="0.352" stop-color="#ea5142"/><stop offset="0.355" stop-color="#ea5142"/><stop offset="0.359" stop-color="#eb5243"/><stop offset="0.363" stop-color="#eb5343"/><stop offset="0.367" stop-color="#eb5444"/><stop offset="0.371" stop-color="#eb5444"/><stop offset="0.375" stop-color="#eb5545"/><stop offset="0.379" stop-color="#eb5645"/><stop offset="0.383" stop-color="#eb5646"/><stop offset="0.387" stop-color="#eb5746"/><stop offset="0.391" stop-color="#eb5847"/><stop offset="0.395" stop-color="#eb5847"/><stop offset="0.398" stop-color="#eb5947"/><stop offset="0.402" stop-color="#eb5a48"/><stop offset="0.406" stop-color="#ec5a48"/><stop offset="0.41" stop-color="#ec5b49"/><stop offset="0.414" stop-color="#ec5c49"/><stop offset="0.418" stop-color="#ec5d4a"/><stop offset="0.422" stop-color="#ec5d4a"/><stop offset="0.426" stop-color="#ec5e4b"/><stop offset="0.43" stop-color="#ec5f4b"/><stop offset="0.434" stop-color="#ec5f4c"/><stop offset="0.438" stop-color="#ec604c"/><stop offset="0.441" stop-color="#ec614c"/><stop offset="0.445" stop-color="#ec614d"/><stop offset="0.449" stop-color="#ed624d"/><stop offset="0.453" stop-color="#ed634e"/><stop offset="0.457" stop-color="#ed634e"/><stop offset="0.461" stop-color="#ed644f"/><stop offset="0.465" stop-color="#ed654f"/><stop offset="0.469" stop-color="#ed6650"/><stop offset="0.473" stop-color="#ed6650"/><stop offset="0.477" stop-color="#ed6751"/><stop offset="0.48" stop-color="#ed6851"/><stop offset="0.484" stop-color="#ed6852"/><stop offset="0.488" stop-color="#ed6952"/><stop offset="0.492" stop-color="#ed6a52"/><stop offset="0.496" stop-color="#ee6a53"/><stop offset="0.5" stop-color="#ee6b53"/><stop offset="0.504" stop-color="#ee6c54"/><stop offset="0.508" stop-color="#ee6c54"/><stop offset="0.512" stop-color="#ee6d55"/><stop offset="0.516" stop-color="#ee6e55"/><stop offset="0.52" stop-color="#ee6f56"/><stop offset="0.523" stop-color="#ee6f56"/><stop offset="0.527" stop-color="#ee7057"/><stop offset="0.531" stop-color="#ee7157"/><stop offset="0.535" stop-color="#ee7157"/><stop offset="0.539" stop-color="#ee7258"/><stop offset="0.543" stop-color="#ef7358"/><stop offset="0.547" stop-color="#ef7359"/><stop offset="0.551" stop-color="#ef7459"/><stop offset="0.555" stop-color="#ef755a"/><stop offset="0.559" stop-color="#ef755a"/><stop offset="0.563" stop-color="#ef765b"/><stop offset="0.566" stop-color="#ef775b"/><stop offset="0.57" stop-color="#ef775c"/><stop offset="0.574" stop-color="#ef785c"/><stop offset="0.578" stop-color="#ef795d"/><stop offset="0.582" stop-color="#ef7a5d"/><stop offset="0.586" stop-color="#ef7a5d"/><stop offset="0.59" stop-color="#f07b5e"/><stop offset="0.594" stop-color="#f07c5e"/><stop offset="0.598" stop-color="#f07c5f"/><stop offset="0.602" stop-color="#f07d5f"/><stop offset="0.605" stop-color="#f07e60"/><stop offset="0.609" stop-color="#f07f61"/><stop offset="0.613" stop-color="#f08062"/><stop offset="0.617" stop-color="#f08163"/><stop offset="0.621" stop-color="#f08264"/><stop offset="0.625" stop-color="#f08365"/><stop offset="0.629" stop-color="#f08467"/><stop offset="0.633" stop-color="#f08568"/><stop offset="0.637" stop-color="#f08669"/><stop offset="0.641" stop-color="#f0876a"/><stop offset="0.645" stop-color="#f0886b"/><stop offset="0.648" stop-color="#f0896d"/><stop offset="0.652" stop-color="#f08a6e"/><stop offset="0.656" stop-color="#f08b6f"/><stop offset="0.66" stop-color="#f08c70"/><stop offset="0.664" stop-color="#f08d71"/><stop offset="0.668" stop-color="#f08e73"/><stop offset="0.672" stop-color="#f08f74"/><stop offset="0.676" stop-color="#f08f75"/><stop offset="0.68" stop-color="#f09076"/><stop offset="0.684" stop-color="#f09177"/><stop offset="0.688" stop-color="#f09278"/><stop offset="0.691" stop-color="#f0937a"/><stop offset="0.695" stop-color="#f0947b"/><stop offset="0.699" stop-color="#f0957c"/><stop offset="0.703" stop-color="#f0967d"/><stop offset="0.707" stop-color="#f0977e"/><stop offset="0.711" stop-color="#f09880"/><stop offset="0.715" stop-color="#f09981"/><stop offset="0.719" stop-color="#f09a82"/><stop offset="0.723" stop-color="#f09b83"/><stop offset="0.727" stop-color="#f09c84"/><stop offset="0.73" stop-color="#f09d86"/><stop offset="0.734" stop-color="#ef9e87"/><stop offset="0.738" stop-color="#ef9f88"/><stop offset="0.742" stop-color="#efa089"/><stop offset="0.746" stop-color="#efa18a"/><stop offset="0.75" stop-color="#efa28c"/><stop offset="0.754" stop-color="#efa38d"/><stop offset="0.758" stop-color="#efa48e"/><stop offset="0.762" stop-color="#efa58f"/><stop offset="0.766" stop-color="#efa690"/><stop offset="0.77" stop-color="#efa791"/><stop offset="0.773" stop-color="#efa893"/><stop offset="0.777" stop-color="#efa994"/><stop offset="0.781" stop-color="#efaa95"/><stop offset="0.785" stop-color="#efab96"/><stop offset="0.789" stop-color="#efac97"/><stop offset="0.793" stop-color="#efad99"/><stop offset="0.797" stop-color="#efae9a"/><stop offset="0.801" stop-color="#efaf9b"/><stop offset="0.805" stop-color="#efb09c"/><stop offset="0.809" stop-color="#efb19d"/><stop offset="0.813" stop-color="#efb29f"/><stop offset="0.816" stop-color="#efb3a0"/><stop offset="0.82" stop-color="#efb4a1"/><stop offset="0.824" stop-color="#efb5a2"/><stop offset="0.828" stop-color="#efb6a3"/><stop offset="0.832" stop-color="#efb7a5"/><stop offset="0.836" stop-color="#efb8a6"/><stop offset="0.84" stop-color="#efb9a7"/><stop offset="0.844" stop-color="#efbaa8"/><stop offset="0.848" stop-color="#efbba9"/><stop offset="0.852" stop-color="#efbcab"/><stop offset="0.855" stop-color="#efbdac"/><stop offset="0.859" stop-color="#efbead"/><stop offset="0.863" stop-color="#efbfae"/><stop offset="0.867" stop-color="#efc0af"/><stop offset="0.871" stop-color="#efc1b0"/><stop offset="0.875" stop-color="#efc2b2"/><stop offset="0.879" stop-color="#efc3b3"/><stop offset="0.883" stop-color="#efc4b4"/><stop offset="0.887" stop-color="#efc5b5"/><stop offset="0.891" stop-color="#efc6b6"/><stop offset="0.906" stop-color="#efc6b6"/><stop offset="0.938" stop-color="#efc6b6"/><stop offset="1" stop-color="#efc6b6"/></linearGradient><clipPath id="e"><path d="M102.63,274.069q-2.6,3.329-5.356,6.53t-5.67,6.258q-2.913,3.062-5.972,5.974t-6.255,5.67q-1.888,1.628-3.825,3.2A263.2,263.2,0,0,1,0,364.7q1.943-.612,3.873-1.269,4-1.363,7.924-2.923t7.769-3.307q3.845-1.749,7.6-3.687t7.408-4.054q3.656-2.115,7.2-4.413t6.975-4.759q3.431-2.469,6.734-5.1t6.475-5.419q3.173-2.79,6.2-5.733t5.914-6.03q2.881-3.089,5.61-6.315t5.293-6.58q2.563-3.353,4.963-6.831t4.622-7.068q2.225-3.592,4.271-7.287t3.907-7.486c1.065-2.167,2.073-4.357,3.045-6.565-1.032,1.41-2.079,2.81-3.155,4.189" transform="translate(0 -269.88)" fill="none"/></clipPath><linearGradient id="f" x1="0.09" y1="1.225" x2="0.095" y2="1.225" gradientUnits="objectBoundingBox"><stop offset="0" stop-color="#e52525"/><stop offset="0.125" stop-color="#e52525"/><stop offset="0.129" stop-color="#e52726"/><stop offset="0.133" stop-color="#e52727"/><stop offset="0.137" stop-color="#e52827"/><stop offset="0.141" stop-color="#e52928"/><stop offset="0.145" stop-color="#e62a28"/><stop offset="0.148" stop-color="#e62a28"/><stop offset="0.152" stop-color="#e62b29"/><stop offset="0.156" stop-color="#e62c29"/><stop offset="0.16" stop-color="#e62c2a"/><stop offset="0.164" stop-color="#e62d2a"/><stop offset="0.168" stop-color="#e62e2b"/><stop offset="0.172" stop-color="#e62f2b"/><stop offset="0.176" stop-color="#e62f2c"/><stop offset="0.18" stop-color="#e6302c"/><stop offset="0.184" stop-color="#e6312d"/><stop offset="0.188" stop-color="#e7312d"/><stop offset="0.191" stop-color="#e7322e"/><stop offset="0.195" stop-color="#e7332e"/><stop offset="0.199" stop-color="#e7342f"/><stop offset="0.203" stop-color="#e7342f"/><stop offset="0.207" stop-color="#e73530"/><stop offset="0.211" stop-color="#e73630"/><stop offset="0.215" stop-color="#e73731"/><stop offset="0.219" stop-color="#e73731"/><stop offset="0.223" stop-color="#e73832"/><stop offset="0.227" stop-color="#e73932"/><stop offset="0.23" stop-color="#e83932"/><stop offset="0.234" stop-color="#e83a33"/><stop offset="0.238" stop-color="#e83b33"/><stop offset="0.242" stop-color="#e83c34"/><stop offset="0.246" stop-color="#e83c34"/><stop offset="0.25" stop-color="#e83d35"/><stop offset="0.254" stop-color="#e83e35"/><stop offset="0.258" stop-color="#e83e36"/><stop offset="0.262" stop-color="#e83f36"/><stop offset="0.266" stop-color="#e84037"/><stop offset="0.27" stop-color="#e84137"/><stop offset="0.273" stop-color="#e84138"/><stop offset="0.277" stop-color="#e94238"/><stop offset="0.281" stop-color="#e94339"/><stop offset="0.285" stop-color="#e94339"/><stop offset="0.289" stop-color="#e9443a"/><stop offset="0.293" stop-color="#e9453a"/><stop offset="0.297" stop-color="#e9463b"/><stop offset="0.301" stop-color="#e9463b"/><stop offset="0.305" stop-color="#e9473c"/><stop offset="0.309" stop-color="#e9483c"/><stop offset="0.313" stop-color="#e9493c"/><stop offset="0.316" stop-color="#e9493d"/><stop offset="0.32" stop-color="#ea4a3d"/><stop offset="0.324" stop-color="#ea4b3e"/><stop offset="0.328" stop-color="#ea4b3e"/><stop offset="0.332" stop-color="#ea4c3f"/><stop offset="0.336" stop-color="#ea4d3f"/><stop offset="0.34" stop-color="#ea4e40"/><stop offset="0.344" stop-color="#ea4e40"/><stop offset="0.348" stop-color="#ea4f41"/><stop offset="0.352" stop-color="#ea5041"/><stop offset="0.355" stop-color="#ea5042"/><stop offset="0.359" stop-color="#ea5142"/><stop offset="0.363" stop-color="#eb5243"/><stop offset="0.367" stop-color="#eb5343"/><stop offset="0.371" stop-color="#eb5344"/><stop offset="0.375" stop-color="#eb5444"/><stop offset="0.379" stop-color="#eb5545"/><stop offset="0.383" stop-color="#eb5545"/><stop offset="0.387" stop-color="#eb5646"/><stop offset="0.391" stop-color="#eb5746"/><stop offset="0.395" stop-color="#eb5846"/><stop offset="0.398" stop-color="#eb5847"/><stop offset="0.402" stop-color="#eb5947"/><stop offset="0.406" stop-color="#eb5a48"/><stop offset="0.41" stop-color="#ec5a48"/><stop offset="0.414" stop-color="#ec5b49"/><stop offset="0.418" stop-color="#ec5c49"/><stop offset="0.422" stop-color="#ec5d4a"/><stop offset="0.426" stop-color="#ec5d4a"/><stop offset="0.43" stop-color="#ec5e4b"/><stop offset="0.434" stop-color="#ec5f4b"/><stop offset="0.438" stop-color="#ec604c"/><stop offset="0.441" stop-color="#ec604c"/><stop offset="0.445" stop-color="#ec614d"/><stop offset="0.449" stop-color="#ec624d"/><stop offset="0.453" stop-color="#ed624e"/><stop offset="0.457" stop-color="#ed634e"/><stop offset="0.461" stop-color="#ed644f"/><stop offset="0.465" stop-color="#ed654f"/><stop offset="0.469" stop-color="#ed6550"/><stop offset="0.473" stop-color="#ed6650"/><stop offset="0.477" stop-color="#ed6750"/><stop offset="0.48" stop-color="#ed6751"/><stop offset="0.484" stop-color="#ed6851"/><stop offset="0.488" stop-color="#ed6952"/><stop offset="0.492" stop-color="#ed6a52"/><stop offset="0.496" stop-color="#ee6a53"/><stop offset="0.5" stop-color="#ee6b53"/><stop offset="0.504" stop-color="#ee6c54"/><stop offset="0.508" stop-color="#ee6c54"/><stop offset="0.512" stop-color="#ee6d55"/><stop offset="0.516" stop-color="#ee6e55"/><stop offset="0.52" stop-color="#ee6f56"/><stop offset="0.523" stop-color="#ee6f56"/><stop offset="0.527" stop-color="#ee7057"/><stop offset="0.531" stop-color="#ee7157"/><stop offset="0.535" stop-color="#ee7258"/><stop offset="0.539" stop-color="#ef7258"/><stop offset="0.543" stop-color="#ef7359"/><stop offset="0.547" stop-color="#ef7459"/><stop offset="0.551" stop-color="#ef745a"/><stop offset="0.555" stop-color="#ef755a"/><stop offset="0.559" stop-color="#ef765a"/><stop offset="0.563" stop-color="#ef775b"/><stop offset="0.566" stop-color="#ef775b"/><stop offset="0.57" stop-color="#ef785c"/><stop offset="0.574" stop-color="#ef795c"/><stop offset="0.578" stop-color="#ef795d"/><stop offset="0.582" stop-color="#ef7a5d"/><stop offset="0.586" stop-color="#f07b5e"/><stop offset="0.59" stop-color="#f07c5e"/><stop offset="0.594" stop-color="#f07c5f"/><stop offset="0.598" stop-color="#f07d5f"/><stop offset="0.602" stop-color="#f07e60"/><stop offset="0.605" stop-color="#f07f61"/><stop offset="0.609" stop-color="#f08062"/><stop offset="0.613" stop-color="#f08163"/><stop offset="0.617" stop-color="#f08264"/><stop offset="0.621" stop-color="#f08366"/><stop offset="0.625" stop-color="#f08467"/><stop offset="0.629" stop-color="#f08568"/><stop offset="0.633" stop-color="#f08669"/><stop offset="0.637" stop-color="#f0876b"/><stop offset="0.641" stop-color="#f0886c"/><stop offset="0.645" stop-color="#f0896d"/><stop offset="0.648" stop-color="#f08a6e"/><stop offset="0.652" stop-color="#f08b70"/><stop offset="0.656" stop-color="#f08c71"/><stop offset="0.66" stop-color="#f08d72"/><stop offset="0.664" stop-color="#f08e73"/><stop offset="0.668" stop-color="#f08f75"/><stop offset="0.672" stop-color="#f09076"/><stop offset="0.676" stop-color="#f09177"/><stop offset="0.68" stop-color="#f09278"/><stop offset="0.684" stop-color="#f0937a"/><stop offset="0.688" stop-color="#f0947b"/><stop offset="0.691" stop-color="#f0957c"/><stop offset="0.695" stop-color="#f0967d"/><stop offset="0.699" stop-color="#f0987f"/><stop offset="0.703" stop-color="#f09980"/><stop offset="0.707" stop-color="#f09a81"/><stop offset="0.711" stop-color="#f09b82"/><stop offset="0.715" stop-color="#f09c83"/><stop offset="0.719" stop-color="#f09d85"/><stop offset="0.723" stop-color="#f09e86"/><stop offset="0.727" stop-color="#ef9f87"/><stop offset="0.73" stop-color="#efa088"/><stop offset="0.734" stop-color="#efa18a"/><stop offset="0.738" stop-color="#efa28b"/><stop offset="0.742" stop-color="#efa38c"/><stop offset="0.746" stop-color="#efa48d"/><stop offset="0.75" stop-color="#efa58f"/><stop offset="0.754" stop-color="#efa690"/><stop offset="0.758" stop-color="#efa791"/><stop offset="0.762" stop-color="#efa892"/><stop offset="0.766" stop-color="#efa994"/><stop offset="0.77" stop-color="#efaa95"/><stop offset="0.773" stop-color="#efab96"/><stop offset="0.777" stop-color="#efac97"/><stop offset="0.781" stop-color="#efad99"/><stop offset="0.785" stop-color="#efae9a"/><stop offset="0.789" stop-color="#efaf9b"/><stop offset="0.793" stop-color="#efb09c"/><stop offset="0.797" stop-color="#efb19e"/><stop offset="0.801" stop-color="#efb29f"/><stop offset="0.805" stop-color="#efb3a0"/><stop offset="0.809" stop-color="#efb4a1"/><stop offset="0.813" stop-color="#efb6a2"/><stop offset="0.816" stop-color="#efb7a4"/><stop offset="0.82" stop-color="#efb8a5"/><stop offset="0.824" stop-color="#efb9a6"/><stop offset="0.828" stop-color="#efbaa7"/><stop offset="0.832" stop-color="#efbba9"/><stop offset="0.836" stop-color="#efbcaa"/><stop offset="0.84" stop-color="#efbdab"/><stop offset="0.844" stop-color="#efbeac"/><stop offset="0.848" stop-color="#efbfae"/><stop offset="0.852" stop-color="#efc0af"/><stop offset="0.855" stop-color="#efc1b0"/><stop offset="0.859" stop-color="#efc2b1"/><stop offset="0.863" stop-color="#efc3b3"/><stop offset="0.867" stop-color="#efc4b4"/><stop offset="0.871" stop-color="#efc5b5"/><stop offset="0.875" stop-color="#efc6b6"/><stop offset="1" stop-color="#efc6b6"/></linearGradient><clipPath id="g"><path d="M123.9,269.49q-5.444,7.517-11.267,14.528,1.932-1.572,3.825-3.2,3.2-2.759,6.255-5.67t5.972-5.974q2.912-3.058,5.67-6.258t5.356-6.53c1.075-1.378,2.122-2.778,3.155-4.188.162-.369.333-.735.492-1.1q1.674-3.88,3.155-7.836t2.766-7.979q1.286-4.021,2.372-8.1t1.973-8.212c.2-.926.377-1.856.561-2.785A276.241,276.241,0,0,1,123.9,269.49" transform="translate(-112.63 -216.183)" fill="none"/></clipPath><linearGradient id="h" x1="-0.744" y1="2.923" x2="-0.735" y2="2.923" xlink:href="#d"/><linearGradient id="j" x1="-0.723" y1="2.763" x2="-0.715" y2="2.763" xlink:href="#f"/><clipPath id="k"><path d="M54.61,256.53l-2.758,2.207v11.069l.422.528.227.284H67.951V256.53Z" transform="translate(-51.852 -256.53)" fill="none"/></clipPath><clipPath id="l"><path d="M75.852,263.53V275.6h11.6l2.487-1.989v-8.874l-.969-1.211Z" transform="translate(-75.852 -263.53)" fill="none"/></clipPath><clipPath id="m"><path d="M416.852,157.53v61.5l86.321,7.416,5.921-68.915Z" transform="translate(-416.852 -157.53)" fill="none"/></clipPath><clipPath id="n"><path d="M520.852,178.531v53.405l16.557,1.422,4.711-54.827Z" transform="translate(-520.852 -178.531)" fill="none"/></clipPath><clipPath id="o"><path d="M402.852,150.531v65.387l87.675,7.532,8.037.69,6.324-73.61Z" transform="translate(-402.852 -150.531)" fill="none"/></clipPath><clipPath id="p"><path d="M411.852,108.531v94.08l37.089,3.186h52.975l8.356-97.266Z" transform="translate(-411.852 -108.531)" fill="none"/></clipPath><clipPath id="q"><path d="M391.9,72.531l-10.009,116.5,109.776,9.431L502.257,75.157l-30.562-2.626Z" transform="translate(-381.887 -72.531)" fill="none"/></clipPath><clipPath id="r"><rect width="44.22" height="15.991" transform="translate(0 0)" fill="none"/></clipPath><clipPath id="s"><rect width="44.061" height="16.894" transform="translate(0 0)" fill="none"/></clipPath><clipPath id="t"><path d="M40.811,288.582l-8.959,6.886v38.667L63.5,375.307h5.579l21.135-16.244V349.22L42.567,287.232Z" transform="translate(-31.852 -287.232)" fill="none"/></clipPath><clipPath id="u"><path d="M31.869,290.53,20.852,299v26.628L51.109,364.99H78.541V339.833l-37.894-49.3Z" transform="translate(-20.852 -290.53)" fill="none"/></clipPath><clipPath id="v"><path d="M29.779,289.53,14.834,301.016l-2.982,2.292v14.132l1.234,1.605H38.013V290.629l-.845-1.1Z" transform="translate(-11.852 -289.53)" fill="none"/></clipPath><clipPath id="w"><path d="M32.852,296.523v38.943l30.974,40.3h5.579L89.2,360.552v-11.99L43.129,288.624Z" transform="translate(-32.852 -288.624)" fill="none"/></clipPath><clipPath id="x"><rect width="8.721" height="7.379" transform="translate(0)" fill="none"/></clipPath><clipPath id="y"><path d="M385.838,160.531l-.986,9.149v8.963h20.794v-16.9l-9.839-1.061-1.383-.149Z" transform="translate(-384.852 -160.531)" fill="none"/></clipPath><clipPath id="z"><path d="M398.852,182.53V196.6l10.233,1.1,2.412.26h4.036l1.431-13.294V182.53Z" transform="translate(-398.852 -182.53)" fill="none"/></clipPath></defs><g transform="translate(908.616 937)"><g transform="translate(-768.521 -937)" clip-path="url(#a)"><rect width="357.201" height="350.15" transform="matrix(0.746, -0.666, 0.666, 0.746, -102.768, 91.631)" fill="url(#b)"/></g><g transform="translate(-802.831 -881.826)" clip-path="url(#c)"><rect width="129.944" height="71.042" transform="translate(-37.469 113.492) rotate(-71.729)" fill="url(#d)"/></g><g transform="translate(-908.616 -755.964)" clip-path="url(#e)"><rect width="128.979" height="134.7" transform="matrix(0.396, -0.918, 0.918, 0.396, -34.499, 79.934)" fill="url(#f)"/></g><g transform="translate(-833.063 -791.984)" clip-path="url(#g)"><rect width="77.443" height="60.725" transform="translate(-20.195 61.168) rotate(-71.729)" fill="url(#h)"/></g><g transform="translate(-833.063 -791.984)" clip-path="url(#g)"><rect width="78.748" height="65.032" transform="translate(-24.68 57.184) rotate(-66.655)" fill="url(#j)"/></g><rect width="14.086" height="14.086" transform="matrix(0.998, -0.06, 0.06, 0.998, -767.435, -781.395)" fill="#f07e60"/><rect width="14.086" height="14.086" transform="matrix(0.998, -0.06, 0.06, 0.998, -752.112, -782.323)" fill="#f07e60"/><rect width="14.086" height="14.086" transform="translate(-766.53 -766.449) rotate(-3.456)" fill="#f07e60"/><rect width="14.086" height="14.088" transform="translate(-751.206 -767.376) rotate(-3.456)" fill="#f07e60"/><g transform="translate(-873.833 -764.919)" clip-path="url(#k)"><path d="M53.375,268.473l-1.441,1.475,1.59-1.006a9.339,9.339,0,0,1,11.286,1l.828.755-.231-.346a9.344,9.344,0,0,1,1.138-11.815l1.383-1.384-1.6,1.032a9.344,9.344,0,0,1-11.838-1.417l.359.647a9.34,9.34,0,0,1-1.478,11.06" transform="translate(-51.879 -256.607)" fill="#e52525"/></g><g transform="translate(-857.734 -760.223)" clip-path="url(#l)"><path d="M89.572,264.291l-1.339.865a7.827,7.827,0,0,1-9.918-1.187l.3.542a7.826,7.826,0,0,1-1.237,9.266l-1.208,1.236,1.334-.843a7.822,7.822,0,0,1,9.454.836l.695.634-.2-.291a7.83,7.83,0,0,1,.954-9.9Z" transform="translate(-75.957 -263.674)" fill="#e52525"/></g><g transform="translate(-628.99 -831.328)" clip-path="url(#m)"><path d="M555.045,186.806c-.815,4.324-.69,4.408-1.5,8.731s-1.13,4.315-1.947,8.637-.66,4.3-1.478,8.623-.862,4.308-1.677,8.632-.77,4.339-1.582,8.663c-.021.1-.048.194-.066.29L511,227.305c-.008-.094-.016-.188-.019-.286-.062-4.4.163-4.237.1-8.639s.162-7.992.1-12.392.113-18.552.05-22.952ZM506.5,172.273c1.2-7.164-4.444-11.409-4.444-11.409L470.7,158.171c-5.141.812-8.781,10.271-8.781,10.271q1.344.582,2.73,1.08l-2.8-.241-.757,8.823-1.148,18.617-1.145,8.073-.716,8.327s7.591,1.271,22.263,2.531,22.364,1.3,22.364,1.3l3.769-43.841-3.928-.338c2.489-.26,3.96-.5,3.96-.5m-75.227,42.35-5.754-.5a8.165,8.165,0,0,0-7.665,3.886l-.752,1.232,16.759,1.438.233-2.7a3.1,3.1,0,0,0-2.822-3.359" transform="translate(-416.936 -157.741)" fill="#efc6b6"/></g><g transform="translate(-559.227 -817.241)" clip-path="url(#n)"><path d="M555.762,235.17l-2.859-.244s.839-12.268.555-23.009-.516-19.417-.516-19.417l2.859.246ZM521.438,222.61l9.724.833s1.252-15.518,1.894-25.878,1.452-17.433,1.452-17.433l-9.352-.8s-.443,9.195-1.153,20.8-2.565,22.477-2.565,22.477" transform="translate(-521.045 -178.793)" fill="#f07e60"/></g><g transform="translate(-638.381 -836.023)" clip-path="url(#o)"><path d="M485.976,151.292c.218.015.443.039.661.068,0,0-.252-.023-.661-.068M553.1,218.38l-43.023-1.255.068,3.854a4.857,4.857,0,0,0,4.437,4.756l40.9,3.514s-3-3.716-2.382-10.87M412.308,207.927l-8.581,2.765,14.361,1.053-1.483-3.451ZM454.744,200l44.485,3.823.089-1.04-44.425-3.818Zm-.48,3.917,44.629,3.834.089-1.04-44.629-3.834Z" transform="translate(-403.14 -150.782)" fill="#e52525"/></g><g transform="translate(-632.344 -864.197)" clip-path="url(#p)"><path d="M460.57,111.5c-.17.327-.338.658-.508.985q-1.569,3.066-3.1,6.147-2.214,4.406-4.408,8.82c-1.782,3.577-2.4,4.916-4.176,8.5-1.96,3.946-5.078,10.13-7.033,14.082-2.01,4.059-4.651,8.645-6.658,12.706-1.934,3.912-3.241,7.3-5.173,11.21q-2.594,5.247-5.186,10.5-2.1,4.253-4.2,8.511c-.223.445-.441.9-.663,1.342l-4.308-.37,2.092-4.237q2.232-4.517,4.462-9.038c1.79-3.624,2.2-3.831,3.993-7.455,1.965-3.975,5.3-11.359,7.269-15.329q3.015-6.089,6.029-12.174c1.923-3.883,3.375-6.066,5.3-9.949,1.719-3.462,3.922-8.618,5.647-12.077q2.052-4.115,4.119-8.231c.9-1.784,1.8-3.566,2.715-5.343a2.084,2.084,0,0,1,2.6-1.195,2.026,2.026,0,0,1,1.193,2.6m-47.987,87.642c-.018.042-.039.082-.062.126a2.031,2.031,0,0,0,1.195,2.6,2.079,2.079,0,0,0,2.6-1.2c.341-.687.676-1.373,1.017-2.06.178-.362.359-.723.537-1.085l-4.334-.319c-.33.639-.655,1.281-.949,1.936M461.7,178.427l17.486,1.5.767-8.935-17.485-1.5ZM477.712,144.9l19.157,1.645.191-2.238-19.155-1.645Zm77.871,24.589-47.695-4.1-.527,6.15,47.7,4.1Zm.283,32.154a4.9,4.9,0,0,0-2.84-1.169c-3.435-.6-3.795-1.1-8.142-1.732a19.406,19.406,0,0,1-4.248-.946c-1.326-.519-3.021-1.74-2.956-3.548.036-1,.309-8.855.309-8.855s-.357-1.957-3.021-2.051-3.087,1.839-3.087,1.839-.254,7.229-.319,9.038-1.806,2.727-3.166,3.152a19.115,19.115,0,0,1-4.3.647c-4.382.33-4.774.8-8.243,1.158a4.866,4.866,0,0,0-2.914.967c-1.114,1.038-1.014,1.546-.873,3.076a.962.962,0,0,0,.17.558.933.933,0,0,0,.608.243,34.426,34.426,0,0,0,6.341.262l30.163,1.053a34.627,34.627,0,0,0,6.344.18.913.913,0,0,0,.621-.2.991.991,0,0,0,.21-.545c.246-1.517.382-2.015-.655-3.129" transform="translate(-412.023 -108.616)" fill="#e52525"/></g><g transform="translate(-652.445 -888.346)" clip-path="url(#q)"><path d="M491.309,83.933a21.279,21.279,0,0,0-7.075-7.662,16.611,16.611,0,0,0-8.849-2.945c-5.264-.1-10.358,2.45-14.359,5.731a35.322,35.322,0,0,0-6.213,6.965,85.84,85.84,0,0,0-5.2,8.44c-.492.9-.975,1.808-1.454,2.719a1.982,1.982,0,0,1,2.374,1.219c2.709-5.183,5.7-10.461,9.651-14.823a24.064,24.064,0,0,1,3.039-2.83c.464-.354.938-.689,1.421-1.019.123-.081.246-.165.369-.249.029-.021.136-.087.178-.115.246-.16.5-.312.747-.464a24.77,24.77,0,0,1,3.328-1.684,15.439,15.439,0,0,1,3.506-1.009,13.145,13.145,0,0,1,7.756,1.053,18.992,18.992,0,0,1,7.57,6.517,13.009,13.009,0,0,1,2.232,7.261,18.51,18.51,0,0,1-1.975,7.856,39.151,39.151,0,0,1-5.01,7.777,47.315,47.315,0,0,1-6.42,6.6,91.314,91.314,0,0,1-15.585,10.117c-5.579,3.031-11.257,5.888-16.621,9.3a38.673,38.673,0,0,0-7.743,5.846,18.084,18.084,0,0,0-4.386,7.96,19.673,19.673,0,0,0-.233,8.338,14.388,14.388,0,0,0,1.391,4.2,15.241,15.241,0,0,0,3.314,4.038,18.08,18.08,0,0,0,9.229,4.347,21.529,21.529,0,0,0,10.117-1.04,28.152,28.152,0,0,0,4.738-2.11,1.38,1.38,0,0,0,.639-1.8,1.355,1.355,0,0,0-1.8-.637c-5.678,3.166-12.806,4.521-18.664,1.028-2.642-1.57-5.1-3.967-5.933-6.886a16.73,16.73,0,0,1-.453-7.638c.032-.172.06-.343.095-.519.013-.068.026-.139.044-.21,0-.007.005-.013.005-.026.084-.372.189-.739.3-1.1a16.394,16.394,0,0,1,.739-1.952,15.612,15.612,0,0,1,2.311-3.6,31.526,31.526,0,0,1,7.3-5.7c5.383-3.435,11.089-6.3,16.689-9.347A96.141,96.141,0,0,0,478.4,115.55a47.773,47.773,0,0,0,12.088-14.9c2.62-5.211,3.589-11.351.818-16.712M448.546,140.31l48.217,4.14-.25,2.893L448.3,143.2Zm-3.718,43.283,48.214,4.142-.247,2.893-5.749-.492a4.3,4.3,0,1,1-3.857-.333l-29.007-2.491a4.3,4.3,0,1,1-3.857-.331l-5.746-.5Zm80.813-97.5a2.209,2.209,0,0,1,2.073-2.125,2.171,2.171,0,0,1,.346-.008,2.548,2.548,0,0,1,1.26.346,2.351,2.351,0,0,1,1.006,1.952l-.9,16.618-.278,16.98-1.425,31.64.115,5.723-.535,15.361a3.359,3.359,0,0,0-2.364-.9,3.275,3.275,0,0,0-2.34.692c.563-17.614,2.269-70.062,2.723-75.269a89.465,89.465,0,0,0,.317-11.008m-1.9,115.376-1.779-.152c-.07-.081-.139-.165-.207-.252a8.861,8.861,0,0,1-2.028-5.688c-.011-.653.993-.558,1.006.087,0,.018,0,.037,0,.055s0,.034,0,.05c.013.188.023.378.042.566a7.7,7.7,0,0,0,.86,2.639,5.021,5.021,0,0,0,2.1,2.7m-5.618-.482-1.779-.152c-.07-.081-.139-.168-.207-.252a8.864,8.864,0,0,1-2.028-5.689c-.011-.652.993-.558,1.006.084,0,.021,0,.04,0,.058s0,.032,0,.05c.015.189.023.378.042.566a7.681,7.681,0,0,0,.862,2.639,5.008,5.008,0,0,0,2.1,2.7m27.736,2.382-1.915-.162a5.041,5.041,0,0,1-.865-.875,8.852,8.852,0,0,1-2.028-5.691c-.011-.65.993-.555,1.006.087a.4.4,0,0,0,0,.058c0,.015,0,.034,0,.05.013.189.023.377.042.566a7.659,7.659,0,0,0,.86,2.638,4.646,4.646,0,0,0,2.578,2.906.451.451,0,0,1,.317.425m-35.815-4.855a6.243,6.243,0,0,0,1.1,1.874l-1.342-.115a8.992,8.992,0,0,1-1.666-5.16c-.013-.649.99-.555,1,.087,0,.019,0,.037,0,.058a.25.25,0,0,1,0,.048c.015.189.023.377.042.568a7.627,7.627,0,0,0,.857,2.642m21.5,3.506-1.824-.157a4.081,4.081,0,0,1-.3-.356,9.67,9.67,0,0,1-2.172-6.163c-.011-.652.993-.558,1.006.087,0,.021,0,.042,0,.063s0,.042,0,.06c.01.2.023.409.044.613a8.612,8.612,0,0,0,.922,2.916,5.415,5.415,0,0,0,2.322,2.937m8.514.739a.542.542,0,0,1,.2.131L538.1,202.7a4.834,4.834,0,0,1-.5-.561,8.854,8.854,0,0,1-2.026-5.691c-.013-.65.991-.556,1,.086,0,.019,0,.04,0,.058a.284.284,0,0,1,0,.05c.015.188.023.377.042.565a7.667,7.667,0,0,0,.863,2.639,4.62,4.62,0,0,0,2.57,2.909m-4.732-.407a.51.51,0,0,1,.2.131l-2.222-.191a6.047,6.047,0,0,1-.616-.642,10.639,10.639,0,0,1-2.337-4.151,9.326,9.326,0,0,1-.249-1.968c-.055-.642.935-.833.993-.186.023.288.063.574.11.855a9.547,9.547,0,0,0,1.15,2.939,5.475,5.475,0,0,0,2.969,3.212m-144.98-18.182,23.6,2.028a8.168,8.168,0,0,0-7.665,3.886l-.752,1.232-23.6-2.028.752-1.232a8.154,8.154,0,0,1,7.665-3.886" transform="translate(-381.9 -72.792)" fill="#f07e60"/></g><g transform="translate(-692.664 -797.961)" clip-path="url(#r)"><path d="M365.746,216c.191.445-1.14,1.839-1.14,1.839s-1.014.826-.7,1.46-.315,1.271-1.332,1.271-6.655,2.285-7.924,1.714-6.4,1.332-6.913.951a3.83,3.83,0,0,1-1.014-1.142c-.126-.254-.443.951-1.711,1.079s-3.362-.382-4.882-.317-4.313.822-4.5-.191-3.3-.443-4.313-.443a3.988,3.988,0,0,1-2.6-1.079c-.191-.38-4.882-.763-6.025-2.411s-.125-3.047.508-4-1.205-1.842-1.14-2.348.885-.128,1.711.063,2.725.254,2.345-.763-.635-1.967.508-1.585,3.485,1.839,5.007.951,6.279-.825,6.279-.825l13.251-2.665a16.342,16.342,0,0,1,6.784.38c3.042,1.017,4.311,1.017,4.881.572s.7.571.508,1.017a2.117,2.117,0,0,1-2.219.822c-1.014-.252,3.93,2.6,4.755,3.619s-.317,1.588-.128,2.031" transform="translate(-321.973 -207.304)" fill="#efc6b6"/></g><g transform="translate(-692.439 -798.863)" clip-path="url(#s)"><path d="M325.173,212.871l.066.034a.767.767,0,0,0,.136.042c.095.021.186.029.278.052.181.05.362.118.548.15a2.311,2.311,0,0,0,.558.013,2.1,2.1,0,0,0,.282-.018.977.977,0,0,0,.144-.032l.071-.021c.023-.005.052-.034.087-.17-.008-.139-.029-.176-.05-.183l-.068-.034a.988.988,0,0,0-.133-.058,2.675,2.675,0,0,0-.275-.076,2.335,2.335,0,0,0-.551-.095c-.186-.005-.377.026-.566.04-.094.007-.186,0-.28,0a.629.629,0,0,0-.141.015l-.074.018c-.023.008-.05.037-.087.158.013.123.032.157.055.168m5.754,4.245a3.131,3.131,0,0,0,.58-.288,1.683,1.683,0,0,0,.262-.212,1.367,1.367,0,0,0,.115-.133c.04-.042.058-.115-.018-.239-.144-.05-.184-.044-.223-.018s-.074.042-.118.058c-.078.036-.165.068-.249.1a5.464,5.464,0,0,1-.535.168c-.37.095-.757.144-1.137.233s-.768.18-1.158.257c-.2.036-.393.052-.59.078-.1.013-.2.032-.3.05l-.147.037c-.05.01-.1.044-.142.17.055.12.107.149.158.154l.154.018a2.9,2.9,0,0,0,.3.008l.61-.032a9.5,9.5,0,0,0,1.224-.078,5.059,5.059,0,0,0,1.2-.33m5.432.833-.131.021a1.055,1.055,0,0,0-.254.074,2.4,2.4,0,0,0-.466.249,3,3,0,0,0-.763.7,4.8,4.8,0,0,0-.49.891c-.068.154-.144.3-.207.456a1.455,1.455,0,0,0-.078.238l-.024.125c0,.042.008.095.111.173.128.005.17-.018.194-.052l.068-.1c.045-.066.087-.131.126-.2a3.655,3.655,0,0,1,.235-.4c.184-.252.393-.482.59-.71s.385-.451.6-.655c.113-.092.223-.191.343-.275a1.86,1.86,0,0,1,.178-.139l.092-.068c.031-.021.055-.062.05-.209-.081-.118-.133-.131-.176-.121m22.1-7.145a1.23,1.23,0,0,0-.172-.1,2.163,2.163,0,0,0-.37-.125,2.458,2.458,0,0,0-.752-.107,4.425,4.425,0,0,0-.742.1c-.123.023-.244.029-.367.05a1.04,1.04,0,0,0-.178.048l-.089.036c-.029.013-.058.05-.071.173.048.118.079.147.108.152l.091.015a1.33,1.33,0,0,0,.178.013c.118,0,.233-.011.351,0,.236.021.47.068.695.087s.455.01.681.023l.335.023c.055.005.115,0,.17,0h.089c.029.005.066-.019.147-.134.023-.139,0-.181-.024-.2Zm-12.651,5.974c-.05-.1-.1-.209-.152-.32-.1-.225-.165-.474-.28-.7s-.241-.461-.354-.7c-.055-.117-.094-.241-.144-.364a1.218,1.218,0,0,0-.084-.178l-.052-.087c-.018-.029-.058-.052-.183-.052-.107.065-.131.107-.129.142v.1a1.314,1.314,0,0,0,.032.2c.029.131.071.26.1.39a6.37,6.37,0,0,0,.191.794,3.012,3.012,0,0,0,.388.736,1.979,1.979,0,0,0,.278.343.863.863,0,0,0,.194.144.429.429,0,0,0,.118.055c.04.018.1.015.18-.1.024-.144.027-.183.011-.2a.431.431,0,0,1-.037-.068c-.023-.048-.047-.092-.073-.15m4.855-6.627.071-.015c.044-.013.089-.023.131-.04a.737.737,0,0,1,.257-.063,1.721,1.721,0,0,1,.519.092l.126.034c.042.013.084.026.128.037a2.764,2.764,0,0,1,.27.078,2.906,2.906,0,0,0,.275.11,1.127,1.127,0,0,0,.146.052l.079.023c.023.011.062,0,.17-.095.065-.123.062-.165.044-.189l-.05-.07a1.431,1.431,0,0,0-.113-.139,2.3,2.3,0,0,0-.275-.218,1.55,1.55,0,0,0-.671-.288,1.568,1.568,0,0,0-.755.094,1.989,1.989,0,0,0-.343.144.748.748,0,0,0-.15.118c-.021.023-.039.05-.06.076s-.026.074.04.181c.1.07.136.084.16.076m-15.282,4.84a1.362,1.362,0,0,0-.17.16c-.026.029-.052.06-.076.092s-.037.078.013.2c.108.07.155.073.186.058l.1-.042c.068-.034.131-.065.194-.1a3.974,3.974,0,0,1,.378-.209c.264-.118.542-.2.807-.294s.521-.2.791-.286l.2-.062a1.813,1.813,0,0,0,.207-.056c.068-.023.136-.044.207-.065l.105-.034c.036-.008.07-.042.1-.183-.042-.139-.081-.166-.121-.17l-.118-.021c-.081-.015-.084-.18-.162-.18-.16-.005-.348-.131-.506-.107s-.351.149-.506.18-.311.294-.455.362a4.343,4.343,0,0,0-.8.5c-.125.094-.256.172-.38.27m-1.279-5.55c.055.112.123.215.183.327a2.633,2.633,0,0,0,.451.631,1.657,1.657,0,0,0,.705.393,1.4,1.4,0,0,0,.4.074.677.677,0,0,0,.2-.016l.1-.023c.032,0,.065-.034.1-.168-.032-.142-.055-.176-.081-.183l-.076-.037a.94.94,0,0,1-.144-.066c-.047-.023-.095-.039-.142-.06l-.133-.068c-.173-.1-.32-.236-.49-.354a5.07,5.07,0,0,1-.5-.411,1.949,1.949,0,0,1-.2-.262,1.618,1.618,0,0,0-.107-.131l-.063-.063c-.018-.021-.06-.031-.183-.007-.1.076-.115.117-.107.149l.018.1a.937.937,0,0,0,.066.178m17.6-1.761h.11a1.154,1.154,0,0,0,.218-.021c.141-.026.28-.065.421-.089a5.132,5.132,0,0,0,.857-.194,2.7,2.7,0,0,0,.794-.443,1.67,1.67,0,0,0,.346-.351.854.854,0,0,0,.118-.243.619.619,0,0,0,.026-.14c.01-.042-.013-.1-.144-.157-.147.018-.176.026-.191.047a.342.342,0,0,1-.055.058c-.04.034-.081.066-.129.1a2.421,2.421,0,0,1-.3.189c-.22.118-.474.2-.712.315s-.49.241-.745.351c-.128.055-.262.089-.393.133a1.911,1.911,0,0,0-.194.076l-.1.05c-.032.015-.058.055-.068.181.06.115.1.136.139.139m-26.145,9.734-.1-.034-.189-.055c-.128-.034-.254-.05-.378-.086-.249-.055-.487-.15-.736-.2s-.5-.1-.749-.176a3.044,3.044,0,0,1-.357-.147c-.058-.026-.12-.047-.18-.068l-.1-.029c-.032-.011-.073,0-.17.081-.042.117-.029.168,0,.194s.05.052.076.076a1.09,1.09,0,0,0,.168.131c.121.076.246.136.367.21a3.919,3.919,0,0,0,.762.374,3.889,3.889,0,0,0,1.263.139,1.943,1.943,0,0,0,.213-.034l.1-.026c.034-.005.07-.04.1-.176-.032-.139-.065-.173-.1-.178m40.874-3.435a.4.4,0,0,0-.16-.073,1.515,1.515,0,0,0-.225-.37,15.858,15.858,0,0,0-2.534-1.926c-.592.571.063,1.428.128,2.311a9.126,9.126,0,0,1-1.189-.351,6.567,6.567,0,0,1-.632-.294q-.153-.078-.314-.149l-.16-.071a.245.245,0,0,0-.238.04.234.234,0,0,0,.06.235l.139.118a3.5,3.5,0,0,0,.3.21c.207.125.422.241.637.354a6.532,6.532,0,0,0,1.3.572c-.514,1.016-3,.553-4.7.783-1.148.155-1.365.608-1.232,1.486-.134-.084-.268-.17-.4-.262s-.225-.181-.335-.273a1.508,1.508,0,0,0-.178-.128l-.094-.058c-.032-.018-.078-.021-.194.037-.06.113-.058.16-.037.194l.06.1a1.532,1.532,0,0,0,.142.178c.1.11.212.207.312.32a5.713,5.713,0,0,0,.645.642,2.076,2.076,0,0,0,.288.209c.074.291.16.61.244.965.217.885-.561,1.349-1.7,1.564-.076-.06-.149-.123-.225-.181-.076-.073-.152-.152-.23-.223s-.15-.157-.225-.236a7.61,7.61,0,0,1-.807-1.04c-.241-.375-.464-.757-.676-1.148s-.417-.781-.608-1.169a2.4,2.4,0,0,0-.126-.28,2.491,2.491,0,0,0-.168-.268,4.355,4.355,0,0,0-.39-.474,5.441,5.441,0,0,0-.93-.757,5.917,5.917,0,0,0-1.04-.545c-.18-.074-.364-.133-.547-.194l-.28-.074a.367.367,0,0,0-.325.066.4.4,0,0,0,.207.262l.249.117.488.262c.157.095.322.176.469.28l.231.144.217.157a4.882,4.882,0,0,1,.783.718,3.509,3.509,0,0,1,.307.414c.047.07.089.142.129.212a2.141,2.141,0,0,1,.089.2l.019.047,0,.005a13.708,13.708,0,0,0,.692,1.195c.249.386.516.76.8,1.124a11.473,11.473,0,0,0,.9,1.056,3.808,3.808,0,0,0,.48.409,19.1,19.1,0,0,1-4.413-.121c-.1-.168-.2-.333-.3-.5-.38-.608-.768-1.214-1.205-1.779s-.9-1.114-1.358-1.662l-.671-.833c-.113-.139-.23-.272-.351-.4l-.186-.2a.346.346,0,0,0-.294-.107.353.353,0,0,0,.037.309l.144.228c.1.147.2.3.3.437.212.286.424.572.629.862.4.587.794,1.182,1.2,1.764s.844,1.14,1.255,1.714l.023.032c-1.637-.393-1.315-1.274-3.367-.451a12.867,12.867,0,0,1-3.367.786,10.351,10.351,0,0,1-.314-1.205,11.64,11.64,0,0,1-.215-2.012c0-.341.021-.682.055-1.022l.042-.511.018-.257a.347.347,0,0,0-.107-.286.326.326,0,0,0-.212.225l-.074.257c-.039.17-.076.346-.1.519-.05.352-.081.7-.107,1.059a9.037,9.037,0,0,0,.039,2.143,5.41,5.41,0,0,0,.3,1.14,6.522,6.522,0,0,1-2.88-.364,2.852,2.852,0,0,0-1-.225,6.851,6.851,0,0,0,.535-.568,5.279,5.279,0,0,0,1-1.725,3.741,3.741,0,0,0,.215-.993,2.368,2.368,0,0,0-.023-.506,2.023,2.023,0,0,0-.048-.246.306.306,0,0,0-.2-.218.311.311,0,0,0-.125.257,2.151,2.151,0,0,1-.008.228c0,.15-.021.3-.034.445a2.962,2.962,0,0,1-.235.855,5.666,5.666,0,0,1-1.054,1.457l-.985,1.048a34.635,34.635,0,0,0-3.834.875c-1.7.388-3.938-.925-6.564-1.122a5.854,5.854,0,0,0-2.063.154,10.7,10.7,0,0,1,2.741.886,4.028,4.028,0,0,0,2.6,1.255c1.017,0,4.125-.679,4.316.338s3.226.327,4.745.264c1.407-.06,3.241.147,4.523.11a1.294,1.294,0,0,0,.129.081.305.305,0,0,0,.317.013.515.515,0,0,0-.01-.132c1.158-.2,1.428-.969,1.551-.726a5.293,5.293,0,0,0,1.205,1.061c.506.383,5.576-1.535,6.844-.964s7.036-1.567,8.05-1.567,1.714-.959,1.4-1.593.771-1.423.771-1.423.975-1.494.784-1.939c-.139-.33.448-.728.429-1.326l.019-.016c.052-.039.091-.1.065-.246m-35.966,4.3a8.765,8.765,0,0,0-.833.684,4.721,4.721,0,0,0-.37.39c-.058.068-.113.139-.168.209a.333.333,0,0,0-.055.307.351.351,0,0,0,.294-.084l.2-.165.393-.33a6.771,6.771,0,0,1,.812-.608,4.125,4.125,0,0,1,1.819-.634,5.758,5.758,0,0,0,2.125-.506,3.757,3.757,0,0,0,.951-.59,2.145,2.145,0,0,0,.385-.433,1.617,1.617,0,0,0,.137-.27.276.276,0,0,0-.068-.325.4.4,0,0,0-.249.168,1.318,1.318,0,0,1-.144.172,2.563,2.563,0,0,1-.367.294,4.282,4.282,0,0,1-.873.432,6.186,6.186,0,0,1-.956.254c-.331.055-.645.092-1,.131a4.187,4.187,0,0,0-2.036.9m-6.32-3.357a4.3,4.3,0,0,0,.467.317,5.068,5.068,0,0,0,1.037.448,5.437,5.437,0,0,0,2.243.239c.186-.027.378-.05.555-.084s.357-.074.535-.115c.356-.087.708-.178,1.059-.288s.7-.207,1.046-.341a3.824,3.824,0,0,0,.5-.238c.081-.045.16-.095.238-.147a.314.314,0,0,0,.152-.286.4.4,0,0,0-.307,0c-.078.034-.16.063-.244.092-.163.06-.328.113-.493.17a10.4,10.4,0,0,1-1.016.28c-.346.07-.7.123-1.048.173s-.7.091-1.038.117a6.981,6.981,0,0,1-2.025-.142,6.867,6.867,0,0,1-.973-.325c-.157-.068-.314-.136-.469-.215-.076-.04-.154-.078-.228-.123a.348.348,0,0,0-.314-.026.305.305,0,0,0,.1.312c.07.063.142.123.215.183m25.7-3.133a2.472,2.472,0,0,0,.429.542,4.7,4.7,0,0,0,1.106.778,7.878,7.878,0,0,0,1.224.514,8.243,8.243,0,0,0,1.295.288l.032,0,.018,0a7.317,7.317,0,0,1,.914.045,5.611,5.611,0,0,1,.912.176,5.376,5.376,0,0,1,.855.34c.131.076.27.142.4.225.147.066.207.213.474.173.029-.254-.134-.345-.254-.464a2.866,2.866,0,0,0-.406-.307,5.544,5.544,0,0,0-.92-.417,8.747,8.747,0,0,0-.967-.27,6.3,6.3,0,0,0-1-.139l.047,0c-.39-.081-.8-.194-1.189-.312a9.692,9.692,0,0,1-1.156-.411,4.943,4.943,0,0,1-1.032-.61,3.146,3.146,0,0,1-.425-.4,1.72,1.72,0,0,1-.178-.233.4.4,0,0,0-.283-.213.324.324,0,0,0-.04.375,2,2,0,0,0,.152.317m-6.016,1.849.139.016a1.5,1.5,0,0,0,.28,0c.183-.013.364-.042.55-.066a4.542,4.542,0,0,0,1.106-.231,2.982,2.982,0,0,0,.99-.6,2.258,2.258,0,0,0,.393-.445,1.084,1.084,0,0,0,.142-.26l.052-.139c.021-.044.021-.1-.081-.2-.147-.026-.194-.007-.22.024l-.092.089a1.786,1.786,0,0,1-.183.165,3.844,3.844,0,0,1-.378.3,8.167,8.167,0,0,1-.875.445,7.938,7.938,0,0,1-.951.374,3.79,3.79,0,0,1-.511.11c-.084.019-.17.034-.254.06l-.128.034c-.042.013-.084.047-.123.17.047.121.1.15.144.154m-16.345-2.418a2.792,2.792,0,0,0,.3.262,5.628,5.628,0,0,0,.686.419,3.709,3.709,0,0,0,1.575.472,3.188,3.188,0,0,0,.409,0c.131-.005.265-.019.4-.034.262-.037.524-.087.781-.147s.508-.125.739-.188a2.276,2.276,0,0,1,.33-.068,1.154,1.154,0,0,1,.16-.005c.055.005.11,0,.225-.113-.008-.149-.07-.209-.142-.23a1.548,1.548,0,0,0-.217-.063,1.876,1.876,0,0,0-.435-.018c-.273.021-.519.073-.765.1s-.492.05-.737.063l-.369.018-.186.011h-.17a3.853,3.853,0,0,1-1.389-.241,4.133,4.133,0,0,1-.645-.338l-.312-.2c-.052-.031-.1-.062-.157-.1a.261.261,0,0,0-.246-.008.233.233,0,0,0,.031.252c.045.052.087.1.134.15m26.992-2.463c.3-.1.6-.189.9-.27a7.506,7.506,0,0,1,.932-.207,3.555,3.555,0,0,1,.5-.034,2.3,2.3,0,0,1,.268.021c.089.013.154.026.233.036.6.095,1.192.239,1.787.343.3.055.594.1.888.142.15.021.293.042.44.058.068,0,.144.015.213.013a.2.2,0,0,1,.1.023.727.727,0,0,1,.142.1.323.323,0,0,1-.081.168.274.274,0,0,1-.121.058c-.087.023-.165.032-.246.047-.162.018-.323.029-.482.032-.317,0-.627-.026-.936-.052a14.343,14.343,0,0,1-1.837-.272c-.073-.016-.157-.037-.22-.048s-.121-.026-.189-.029a3.626,3.626,0,0,0-.414-.015,7.047,7.047,0,0,0-.878.092c-.294.052-.587.131-.878.212-.144.04-.29.076-.44.11l-.223.05a.288.288,0,0,1-.27-.073.3.3,0,0,1,.16-.233l.212-.1a4.269,4.269,0,0,1,.433-.173" transform="translate(-322.367 -205.966)" fill="#ed6722"/></g><path d="M338.773,164.394s-.307.243-.859.637c-.93.168-1.193.456-.891.616-.8.532-1.837,1.182-3.053,1.842v0c.021-.044.021-.1-.081-.2-.147-.026-.194-.008-.22.023l-.092.089a1.875,1.875,0,0,1-.184.165,3.833,3.833,0,0,1-.377.3,10.537,10.537,0,0,1-1.827.82,3.8,3.8,0,0,1-.51.11c-.084.018-.17.034-.254.06l-.129.034c-.042.013-.084.048-.123.17a.338.338,0,0,0,.06.107c-1.69.129-3.724.383-5.328.529-.037-.1-.07-.125-.1-.128l-.118-.021a1.039,1.039,0,0,0-.238-.023,2.383,2.383,0,0,0-.474.034c-.16.019-.315.052-.47.084a2.478,2.478,0,0,0-.448.16l-.007,0c-.076,0-.147,0-.215,0-.188-.008-.364-.019-.539-.026-.184-.111-.359-.225-.5-.325a.445.445,0,0,0-.679.239c-.582-.053-1.072-.118-1.483-.189l-.013-.07s1.126-1.955,6.344-4.965c-1.048-1.989-3.75-7.714-6.79-14.25l-.154.074s-.063-.11-.176-.3l-.026.01a.125.125,0,0,1-.165-.065.13.13,0,0,1,.055-.163l.005,0a66.507,66.507,0,0,1-3.954-7.681.128.128,0,0,1-.117-.076.122.122,0,0,1,.042-.15,3.635,3.635,0,0,1-.121-.448l.438-.2c-4.154-9-7.846-17.09-7.846-17.09s-.977-2.018-2.494-5.152l-.22.108-2.141-4.214a.139.139,0,0,1-.1-.191l-.928-1.821a.168.168,0,0,1-.052-.076l-.005-.04-.343-.675.367-.16c-4.9-10.138-11.349-23.467-13.13-27.18-.257.149-.433.231-.466.2a.379.379,0,0,1-.066-.084c-.034.01-.068.023-.1.031a.154.154,0,0,1-.192-.11.16.16,0,0,1,.071-.175h0l.042-.023c-1.129-1.8-5.746-9.727-5.856-10.18-.118-.506,2.869-3.111,2.869-3.111s2.026-.482,2.484.168c.422.6,4.368,9.25,4.961,10.547l.005,0a.123.123,0,0,1,.178-.016.129.129,0,0,1,.021.17,4.1,4.1,0,0,1-.938.875c3.954,8.068,9.255,18.853,13.521,27.419l.639-.275,3.3,6.873-.553.272c3.472,7.182,7.237,15.405,10.369,22.336l.692-.32s3.711,7.453,4,9.046l-.637.3c1.509,3.372,2.536,5.665,2.8,6.173.825,1.6,3.108,6.768,3.7,8.4,2.222-.28,7.549-.852,8.713-.095,1.48.965,1.111,1.26,1.111,1.26" transform="translate(-1001.296 -960.403)" fill="#e52525"/><path d="M328.886,160.58l-.33-.69a7.45,7.45,0,0,0-.8-2.342,5.07,5.07,0,0,0-.566-.524l-1.929-4.03-.3.147-2.665,1.318a.612.612,0,0,0-.535.264l-.44.217,3.787,7.031.249.466.2.04a3.745,3.745,0,0,0,1.68-.063,3.274,3.274,0,0,0,1.861-1.389ZM288.4,74.869l-.013.037-.029.05a.488.488,0,0,1-.058.073,1.356,1.356,0,0,1-.115.11c-.079.068-.163.126-.244.184-.165.113-.333.212-.5.309-.343.186-.681.372-1.032.535s-.7.319-1.061.458a7.455,7.455,0,0,1-1.093.378.156.156,0,0,1-.189-.115.164.164,0,0,1,.073-.17,9.2,9.2,0,0,1,1.035-.5c.349-.16.705-.3,1.054-.453s.712-.278,1.056-.437c.17-.078.341-.162.5-.254.081-.047.16-.095.231-.144a1.042,1.042,0,0,0,.1-.081l.037-.037.008-.01c0,.01,0-.005,0,.044a.123.123,0,0,1,.1-.149.125.125,0,0,1,.147.1.153.153,0,0,1,0,.078m-5.254.718a.129.129,0,0,1-.126-.128.126.126,0,0,1,.121-.123l.013,0a3.569,3.569,0,0,0,1.14-.32c.374-.157.736-.356,1.1-.543l1.1-.571a9.317,9.317,0,0,1,1.13-.535.155.155,0,0,1,.2.095.158.158,0,0,1-.052.178l0,0a10.778,10.778,0,0,1-1.059.653c-.362.207-.736.4-1.114.579s-.778.325-1.177.466a3.762,3.762,0,0,1-1.271.249m-.6-1.181a.157.157,0,0,1-.2-.092.159.159,0,0,1,.055-.181,8.243,8.243,0,0,1,1.2-.657c.4-.2.814-.38,1.215-.574s.815-.364,1.205-.577a4.237,4.237,0,0,0,1.067-.726l.01-.013a.125.125,0,0,1,.186.168,4.348,4.348,0,0,1-1.09.872c-.39.239-.778.472-1.182.676s-.812.4-1.224.579-.82.37-1.232.522Zm-.87-1.284a.129.129,0,0,1,.045-.168l1.189-.752c.4-.247.786-.511,1.187-.755s.8-.485,1.213-.713a12.875,12.875,0,0,1,1.248-.653.159.159,0,0,1,.2.084.155.155,0,0,1-.05.184,12.305,12.305,0,0,1-1.177.77c-.4.249-.807.477-1.213.713s-.828.443-1.237.668l-1.237.673a.13.13,0,0,1-.173-.052m.768-7.343c.542-.12,1.111.388,1.266,1.138A1.261,1.261,0,0,1,283,68.488c-.543.121-1.109-.39-1.266-1.137a1.262,1.262,0,0,1,.705-1.572m5.149,5.531c-.954-2.114-1.8-4.331-2.872-6.383-1.177-2.249-2.232-1.839-4.166-.789-3.72,2.02,2.2,11.386,3.5,13.875a20.575,20.575,0,0,0,2.516,4.072.162.162,0,0,1,.063-.076h0c.38-.225.783-.4,1.177-.6s.786-.385,1.174-.587.781-.393,1.15-.621a4.021,4.021,0,0,0,1-.791l.008-.005a.123.123,0,0,1,.178-.016.129.129,0,0,1,.021.17,4.348,4.348,0,0,1-1.009.93c-.372.257-.742.508-1.135.726s-.786.419-1.195.6a8.563,8.563,0,0,1-1.213.466,1.3,1.3,0,0,0,.252.168,2.5,2.5,0,0,0,.547.11,3.468,3.468,0,0,0,3.027-1.4c.026-.037.07-.052.1-.078,1.407-1.059.686-1.376-.131-3.171q-1.505-3.3-2.987-6.6m16.814,36.777a.128.128,0,0,1,.128.22c-.311.2-.623.377-.935.561s-.624.367-.943.537-.639.333-.967.484a7.418,7.418,0,0,1-1,.419.157.157,0,0,1-.194-.107.161.161,0,0,1,.058-.17,7.935,7.935,0,0,1,.938-.542c.317-.17.645-.323.965-.482s.66-.294.985-.448.652-.3.964-.469Zm.406,2.3a.129.129,0,0,1-.042.165c-.252.166-.511.317-.768.464s-.51.307-.773.445-.519.275-.781.4c-.131.063-.257.137-.382.2s-.254.136-.341.189l-.034.021a.153.153,0,0,1-.207-.215,1.257,1.257,0,0,1,.362-.348c.128-.089.259-.165.39-.241.256-.155.529-.278.794-.409s.548-.231.815-.354.537-.243.8-.375a.124.124,0,0,1,.17.052m1.03,1.544a.128.128,0,0,1,.1.233l-.005,0c-.267.131-.532.288-.794.445s-.517.33-.779.487-.527.317-.8.462a5.483,5.483,0,0,1-.828.409.157.157,0,0,1-.2-.094.164.164,0,0,1,.042-.17,5.116,5.116,0,0,1,.763-.529c.26-.165.532-.312.8-.464s.558-.27.836-.406.561-.262.86-.375m1.177,1.564a.158.158,0,0,1,.188.246,5.368,5.368,0,0,1-.752.647c-.26.2-.535.388-.807.574s-.569.34-.86.5c-.146.081-.3.16-.451.23-.078.034-.152.071-.238.1-.044.013-.081.032-.131.042l-.15.024a.12.12,0,0,1-.142-.1.126.126,0,0,1,.084-.139l.042-.013c.031-.011.062-.019.091-.027s.068-.031.1-.044a1.929,1.929,0,0,0,.207-.11c.136-.078.273-.168.406-.26.27-.178.524-.382.786-.574s.527-.385.8-.569a7.247,7.247,0,0,1,.828-.532m-4.051-7.544-2.511,1.255c-.427-.047-.673.1-.781.39l-.508.254c.291,1.242,4.012,9.347,4.741,9.347a2.66,2.66,0,0,1,.372-.084,5.231,5.231,0,0,0,3.369-1.667h0c.464-.259.778-.443.778-.443-1.386-2.846-4.449-9.562-4.449-9.562ZM320.1,146.563c-.333.152-.673.283-1.006.43l-1.006.432a.125.125,0,0,1-.165-.065.13.13,0,0,1,.055-.163l.967-.516c.322-.17.637-.354.961-.519s.653-.327.985-.477a7.728,7.728,0,0,1,1.014-.411.156.156,0,0,1,.133.278,7.184,7.184,0,0,1-.954.537c-.325.168-.655.317-.985.474m-2.426-.8a.127.127,0,0,1-.173-.016,10.436,10.436,0,0,1-.972-1.271,15.721,15.721,0,0,1-.794-1.389c-.225-.482-.441-.969-.618-1.47a8.7,8.7,0,0,1-.44-1.533.155.155,0,0,1,.3-.087l0,.005c.2.477.367.972.561,1.457s.388.964.6,1.438.433.943.687,1.4a9.886,9.886,0,0,0,.867,1.287v0a.126.126,0,0,1-.019.178m-3.763-6.328a.128.128,0,0,1,.058-.162l1.064-.563c.356-.184.705-.385,1.064-.563s.718-.359,1.085-.521a9.248,9.248,0,0,1,1.114-.459.158.158,0,0,1,.2.1.162.162,0,0,1-.063.176,9.142,9.142,0,0,1-1.056.582c-.356.184-.72.349-1.085.519s-.739.314-1.106.477l-1.105.477a.123.123,0,0,1-.165-.066m5.118,5.1a.126.126,0,0,1-.162-.062l-.58-1.185c-.191-.4-.4-.786-.584-1.185s-.37-.8-.537-1.2a11.369,11.369,0,0,1-.476-1.234.156.156,0,0,1,.282-.126,10.732,10.732,0,0,1,.6,1.177c.191.4.362.8.537,1.205s.325.818.492,1.224l.5,1.224a.125.125,0,0,1-.068.165m1.019-3.551c.233.511.438,1.03.632,1.554s.372,1.056.537,1.588a.127.127,0,0,1-.239.084v0c-.194-.519-.4-1.032-.618-1.538s-.469-1-.71-1.493-.5-.98-.76-1.468-.545-.957-.8-1.438l0-.005a.158.158,0,0,1,.063-.21.155.155,0,0,1,.191.037,9.149,9.149,0,0,1,.938,1.4c.28.485.532.985.767,1.493m2.581,5.044a46.329,46.329,0,0,0-4.376-9.711l-.739.388L315.053,138a.858.858,0,0,0-.865.453l-.529.278a26.276,26.276,0,0,0,4.6,9.344l.322-.15a7.775,7.775,0,0,0,3.288-1.538l.765-.356" transform="translate(-1000.575 -957.835)" fill="#f07e60"/><path d="M330.615,168.689a.869.869,0,0,0,.786-.9c0-.453-.464-.721-.914-.721a.736.736,0,0,0-.752.784.893.893,0,0,0,.88.841m-1.46-.859a1.516,1.516,0,0,0,1.494,1.425,1.475,1.475,0,0,0,1.331-1.535c0-.765-.784-1.221-1.548-1.221a1.25,1.25,0,0,0-1.277,1.331m-.8,0a2.191,2.191,0,0,1,2.191-2.191,2.226,2.226,0,0,1,.686.113,2.19,2.19,0,1,1-2.877,2.078m-2.122-12c-.084-.183-.168-.372-.254-.566-.021-.047-.044-.1-.065-.149l-3.289,1.538c1.132,2.434,2.217,4.751,3.181,6.795l.535-.265c-.508-1.208-1.163-2.825-1.632-4.19a2.326,2.326,0,0,1,1.525-3.163m-31.4-65.878c-.024-.05-.048-.1-.074-.15-.032.026-.065.053-.1.079a6.6,6.6,0,0,1-3.027,1.4l.246.511c.032.066.066.133.1.2l.22.456c.073.154.15.311.231.476.042.087.084.176.125.265s.081.168.123.254c.089.183.178.37.272.563.042.091.089.183.133.278l1.248,2.586c.055.113.11.225.165.341s.118.243.178.367.113.233.17.354c.178.37.362.75.548,1.135.06.123.12.249.18.372s.129.268.194.4c.123.257.249.519.378.781q.291.61.6,1.234c.063.133.129.267.192.4.139.282.275.568.414.854.065.136.131.275.2.411.139.288.28.58.422.873.065.139.134.278.2.419s.144.3.218.448c.207.433.419.867.629,1.3.073.152.147.3.223.456.283.587.569,1.174.854,1.766.721,1.5,1.45,3,2.165,4.478.068.144.139.285.207.429.144.3.288.6.432.891l.2.425.425.881c.068.139.136.278.2.417l0,0,.781-.39c-4.082-8.763-9.894-21.264-10.5-22.719a3.086,3.086,0,0,1,.831-3.259M311.951,124.7l0-.008c-.087-.176-.168-.348-.254-.521a28.053,28.053,0,0,1-3.369,1.666c.065.133.128.268.191.4.044.089.089.178.131.267.312.642.59,1.219.828,1.711.034.068.066.136.1.2.572,1.177.9,1.855.9,1.855s.01.026.032.073c.007.015.018.037.026.058.063.136.176.38.33.718.034.078.073.16.113.249.121.265.262.574.422.922.068.15.139.3.215.467.029.06.055.123.084.186.063.136.129.28.2.425.1.223.207.455.32.7.021.044.042.091.062.136.111.243.225.5.346.755.029.065.06.131.089.2.128.28.262.568.4.865.018.044.039.089.06.131.06.133.121.265.181.4l.023.05c.078.17.16.346.239.521l.015.032c.335.731.689,1.5,1.061,2.311.023.05.045.1.068.147,1.061,2.312,2.248,4.895,3.479,7.565l.865-.453c-2.039-3.981-7.049-13.922-8.031-17.449-.881-3.168.191-4.229.885-4.578m30.183,45.751-.005.037a.133.133,0,0,1-.034.062s-.311.247-.865.642l-.039.005a1.739,1.739,0,0,0-.362.089,1.986,1.986,0,0,0-.343.144.725.725,0,0,0-.15.118c-.021.023-.039.05-.06.076s-.026.073.04.181l.011.007c-.794.529-1.824,1.174-3.035,1.832v0c.021-.045.021-.1-.081-.2-.147-.026-.194-.008-.22.023l-.092.089a1.789,1.789,0,0,1-.183.165,3.746,3.746,0,0,1-.378.3,10.5,10.5,0,0,1-1.826.82,3.785,3.785,0,0,1-.511.11c-.084.018-.17.034-.254.06l-.128.034c-.042.013-.084.047-.123.17a.5.5,0,0,0,.032.065l.029.042h0c-1.067.081-2.267.212-3.414.335l-.618.065-.032,0c-.215.023-.427.045-.631.066h-.018l-.61.06v0a.287.287,0,0,0-.06-.1c8.062-1.4,11.969-5.914,12.517-6.591.055.021.11.042.16.063s.092.045.131.068l.008.005c1.017.663,1.161,1.008,1.15,1.16" transform="translate(-1004.618 -966.564)" fill="#e52525"/><g transform="translate(-887.25 -744.324)" clip-path="url(#t)"><path d="M45.107,348.969c-1.116-2.424-3.422-10.2-4.331-12.667-4.36-11.852-5.3-19.551-5.3-19.551s7.89-5.264,9.3-5.1c2.513.3,4.986,3.909,4.986,3.909,3.027.657,4.51,5.424,4.51,5.424,2.723,1.04,4.022,3.747,4.572,6.729.386,2.1,5.293,4.127,15.248,9.732A43.024,43.024,0,0,1,86.44,348.463c3.732,5.4,3.886,9.871,3.386,10.395-.867.906-19.212,16.576-21.662,16.047S51.589,363.03,45.107,348.969M42.19,302.377c-.749-.351-5.476-.192-5.476-.192.433-8.348,4.669-6.663,6.055-5.015s2.375.825,3.292,2.953a4.126,4.126,0,0,0,3.233,2.335c3.155,4.022,5.034,1.313,4.261,3.351s-10.775-3.16-11.365-3.433m-2.524-12.586,3.378-2.461,2.693,3.624-3.066,2.807ZM42.141,311l-2.565-3.336L32.6,313.1l2.5,3.388A23.577,23.577,0,0,1,42.141,311" transform="translate(-32.097 -287.265)" fill="#ed6722"/></g><g transform="translate(-894.628 -742.111)" clip-path="url(#u)"><path d="M35.53,292.768c-.121-.16-.243-.317-.37-.477l-.1-.136c-.081-.1-.158-.21-.231-.32l-.107-.162a.307.307,0,0,1-.029-.275l.011-.034.034-.005a.3.3,0,0,1,.265.087l.139.139c.092.095.18.189.264.288l.123.144c.128.149.254.3.382.445l.291.319c.236.257.5.551.747.841.273.315.529.655.776.983l.278.367c.123.165.249.333.366.5.074.1.144.207.223.325l.1.162a.292.292,0,0,1,.023.288l-.008.013-.018.018-.015,0a.283.283,0,0,1-.276-.078l-.142-.136c-.091-.092-.186-.186-.272-.28-.147-.155-.286-.312-.419-.467l-.315-.356c-.267-.3-.542-.618-.794-.946-.228-.291-.448-.6-.668-.9-.087-.118-.173-.235-.257-.354M21.81,303.139c.036.081.07.162.1.243.018.047.037.092.055.139a3.4,3.4,0,0,1,.249.812,2.328,2.328,0,0,1-.044.873l-.052.209c-.021.066-.048.129-.079.2a1.038,1.038,0,0,1-.11.2l-.06.087-.032.034c-.042.031-.105.036-.215.01-.087-.081-.117-.139-.1-.2l.016-.1a1.411,1.411,0,0,0,.026-.178c0-.04.013-.076.021-.125l.008-.053.018-.178a5.819,5.819,0,0,0-.013-.608l-.01-.147a5.456,5.456,0,0,0-.081-.7,2.5,2.5,0,0,0-.1-.333l-.007-.024c-.021-.062-.04-.123-.058-.188l-.023-.094c-.016-.06.013-.118.11-.21.1-.018.168-.005.209.05l.021.026a.561.561,0,0,1,.045.06,1.041,1.041,0,0,1,.11.184m1.921-1.014c.044.113.081.225.121.343.021.062.042.123.063.186a5.644,5.644,0,0,1,.293,1.1,3.705,3.705,0,0,1-.037,1.166c-.01.042-.018.084-.029.128a2.18,2.18,0,0,1-.131.441l-.013.026a1.259,1.259,0,0,1-.123.243l-.078.118a.161.161,0,0,1-.042.05.286.286,0,0,1-.22.034l-.015-.008-.005-.005c-.1-.1-.129-.17-.11-.238l.026-.131a1.5,1.5,0,0,0,.026-.149c0-.034.008-.066.013-.1a3.46,3.46,0,0,0,.048-.37l.013-.12a6.638,6.638,0,0,0-.021-.684c-.005-.11-.013-.22-.018-.333-.023-.317-.05-.679-.11-1.03a4.057,4.057,0,0,0-.11-.44l-.019-.068c-.023-.084-.047-.173-.065-.262l-.024-.131c-.015-.073.013-.142.108-.235l.018-.008H23.3c.12,0,.194.026.235.1l.073.123a1.905,1.905,0,0,1,.123.257m1.582-1.855c.019.04.04.081.058.123.05.118.1.246.142.377.071.225.131.456.194.692l.021.076a8.915,8.915,0,0,1,.283,1.58,6.652,6.652,0,0,1-.074,1.617l-.068.4c-.021.089-.045.178-.071.278l-.047.17a1.321,1.321,0,0,1-.042.139l-.073.189-.076.183a.28.28,0,0,1-.084.118.405.405,0,0,1-.155.065l-.026-.007-.011-.013a.3.3,0,0,1-.091-.272l.032-.191.032-.184.042-.317c.013-.084.023-.168.037-.247l.034-.38a12.569,12.569,0,0,0,.011-1.509,12.324,12.324,0,0,0-.131-1.515l-.074-.374-.094-.372-.092-.375-.042-.186a.306.306,0,0,1,.058-.267l.018-.032.034.007a.3.3,0,0,1,.227.168Zm1.908,13.49a.453.453,0,0,1,.165-.359l.236-.221c.154-.142.309-.282.469-.417.252-.22.511-.437.771-.649l.584-.485c.437-.364.891-.739,1.349-1.093.076-.058.152-.115.228-.17.48-.367.977-.726,1.465-1.077.191-.139.382-.276.571-.415l1.012-.759c.157-.115.333-.247.511-.367l.264-.176a.489.489,0,0,1,.378-.087l.05.008-.005.05a.492.492,0,0,1-.173.346l-.233.212c-.16.144-.33.286-.482.414l-.977.794-.5.419-.05.044c-.453.383-.92.781-1.389,1.158-.191.157-.393.317-.618.49-.322.249-.647.49-.985.739l-.613.453c-.265.2-.537.4-.815.592-.17.123-.346.241-.522.36l-.264.17a.444.444,0,0,1-.388.076l-.045-.008Zm46.086,32.89c-.055-.047-.107-.095-.162-.139.055.044.11.092.162.136Zm-3.467-2.741h0c-.039-.029-.078-.058-.12-.087l.123.087m-3.17,20.918c-1-.1-2.987-1.787-5.364-4.315q1.375-.162,2.738-.43a24.031,24.031,0,0,0,3.595-.975,12.107,12.107,0,0,0,1.717-.769,7.806,7.806,0,0,0,1.564-1.1,5.9,5.9,0,0,0,.649-.728,4.384,4.384,0,0,0,.48-.867,3.778,3.778,0,0,0,.223-1.955l-.11-.9c-.015-.149-.044-.3-.047-.451l-.013-.45a7.482,7.482,0,0,1,.005-.9l.032-.451a2.924,2.924,0,0,1,.047-.448,10,10,0,0,1,1.112-3.414l.01-.018a24.341,24.341,0,0,1,3.333,3.4c5.941,7.728-6.208,15.135-9.97,14.773M60.9,360.079c.131.144.262.283.393.422-.131-.139-.262-.278-.393-.422m8.61-16.384-.233.406a10.27,10.27,0,0,0-1.2,3.54,13.549,13.549,0,0,0-.011,3.742,3.211,3.211,0,0,1-.22,1.664,3.585,3.585,0,0,1-.425.731,4.916,4.916,0,0,1-.584.633,9.831,9.831,0,0,1-3.079,1.751,24.046,24.046,0,0,1-3.493,1.014c-.547.118-1.1.22-1.654.315a129.947,129.947,0,0,1-9.2-12.248l.209-.07a12.686,12.686,0,0,0,1.719-.771,7.988,7.988,0,0,0,1.562-1.1,5.607,5.607,0,0,0,.649-.728,4.271,4.271,0,0,0,.48-.867,3.778,3.778,0,0,0,.223-1.955l-.11-.9c-.015-.15-.042-.3-.047-.448l-.013-.453a7.472,7.472,0,0,1,.005-.9l.032-.451a3.19,3.19,0,0,1,.047-.448,9.726,9.726,0,0,1,.38-1.682,144.326,144.326,0,0,1,15.177,9.36l-.194-.142Zm-10.9,13.8.008.008Zm1.766.217a23.929,23.929,0,0,0,3.595-.975,12.242,12.242,0,0,0,1.719-.769,7.993,7.993,0,0,0,1.562-1.1,5.519,5.519,0,0,0,.65-.728,4.3,4.3,0,0,0,.48-.865,3.8,3.8,0,0,0,.223-1.955l-.11-.9c-.016-.152-.042-.3-.048-.45l-.013-.451a7.4,7.4,0,0,1,.005-.9l.031-.451a3.233,3.233,0,0,1,.048-.448,9.993,9.993,0,0,1,1.111-3.412l.209-.385c1.185.867,2.3,1.737,3.307,2.6L73,346.385l-.05.092a10.328,10.328,0,0,0-1.205,3.538,13.446,13.446,0,0,0-.01,3.742,3.215,3.215,0,0,1-.22,1.664,3.613,3.613,0,0,1-.425.733,4.959,4.959,0,0,1-.587.632,9.829,9.829,0,0,1-3.076,1.753,23.96,23.96,0,0,1-3.493,1.012c-1,.215-2.015.383-3.032.527-.734-.794-1.5-1.661-2.282-2.578l.385.448c.459-.074.917-.15,1.373-.239m.92,2.793.011.011ZM49.352,331.74s.742.37,1.982,1.014c-.024.126-.048.254-.066.38a3.569,3.569,0,0,0-.06.47l-.042.469a7.384,7.384,0,0,0-.029.943l0,.472c0,.16.026.315.037.472l.095.93a3.361,3.361,0,0,1,0,.841,2.883,2.883,0,0,1-.207.81,3.628,3.628,0,0,1-.414.734,5.329,5.329,0,0,1-.576.639,9.361,9.361,0,0,1-2.907,1.714,16.209,16.209,0,0,1-2.277-5.374c-.453-5.435,4.459-4.512,4.459-4.512m2.191,1.122c-.073-.036-.142-.07-.209-.107l.209.107m-4.093,9.247c-.1-.162-.188-.322-.278-.479.089.157.184.317.278.479m3.043-1.745a5.323,5.323,0,0,0,.657-.723,4.231,4.231,0,0,0,.49-.865,3.689,3.689,0,0,0,.235-1.965l-.1-.9c-.016-.149-.042-.3-.045-.448l-.01-.448a6.8,6.8,0,0,1,.008-.9l.031-.451a3.188,3.188,0,0,1,.05-.445c.007-.068.021-.134.032-.2.671.351,1.452.767,2.321,1.239a10.676,10.676,0,0,0-.44,1.821,13.668,13.668,0,0,0-.01,3.744,3.205,3.205,0,0,1-.221,1.662,3.532,3.532,0,0,1-.424.734,4.944,4.944,0,0,1-.584.631A9.827,9.827,0,0,1,49.4,344.6c-.11.043-.223.084-.333.124-.587-.91-1.127-1.784-1.617-2.615a9.748,9.748,0,0,0,3.043-1.745M41.984,312.8l-.676-.708c-.123-.128-.173-.3-.333-.22l-.608.346-1.012-1.164a.849.849,0,0,0-1.15-.12l-7.874,5.833c-.286.212-.05.3.1.627l.91,1.716-.254.2c-.21.2-.071.4.084.655l.4.629a.577.577,0,0,0,.753.15c3.87-1.737,6.868-4.638,9.609-7.468a.36.36,0,0,0,.05-.477" transform="translate(-21.003 -290.802)" fill="#efc6b6"/></g><g transform="translate(-900.666 -742.782)" clip-path="url(#v)"><path d="M32.13,291.715c-.081-.1-.155-.21-.228-.317l-.107-.162a.254.254,0,0,1-.024-.231.25.25,0,0,1,.221.068l.139.139c.091.092.18.188.264.286.168.2.335.4.506.59.346.385.7.765,1.038,1.161s.645.81.957,1.224c.154.207.314.412.461.627.076.1.147.212.22.322l.105.165a.241.241,0,0,1,.015.239.234.234,0,0,1-.231-.063l-.142-.136c-.091-.092-.183-.183-.27-.28-.181-.188-.349-.385-.519-.579-.343-.39-.692-.773-1.006-1.185s-.618-.833-.925-1.252c-.155-.207-.317-.409-.474-.613M18.8,302.754c.06.123.1.252.16.38a3.4,3.4,0,0,1,.244.8,2.279,2.279,0,0,1-.042.851l-.052.207a2.014,2.014,0,0,1-.079.2.95.95,0,0,1-.1.188l-.06.087c-.018.029-.055.052-.165.034-.087-.078-.1-.115-.089-.147l.015-.095a1.627,1.627,0,0,0,.026-.183c.008-.063.021-.121.029-.181l.018-.18a6.571,6.571,0,0,0-.021-.726,5.62,5.62,0,0,0-.087-.742,2.84,2.84,0,0,0-.11-.362c-.021-.06-.039-.12-.055-.183l-.023-.095c-.008-.032,0-.07.066-.144.1-.018.139,0,.162.029s.042.055.063.084a1.572,1.572,0,0,1,.1.178m1.918-1.017c.068.173.121.349.184.525a5.705,5.705,0,0,1,.29,1.092,3.576,3.576,0,0,1-.037,1.146,2.809,2.809,0,0,1-.157.56,1.368,1.368,0,0,1-.131.262l-.078.121c-.024.042-.071.076-.2.06-.095-.1-.1-.15-.095-.192l.026-.128c.021-.081.023-.168.04-.252.032-.162.042-.333.06-.5.013-.341-.023-.676-.037-1.017s-.052-.692-.113-1.04a4.391,4.391,0,0,0-.131-.513c-.023-.084-.045-.17-.063-.257l-.026-.133c-.008-.042,0-.095.087-.181.121,0,.165.032.191.071l.073.12a2.409,2.409,0,0,1,.118.254m1.64-1.732a3.723,3.723,0,0,1,.142.372c.079.252.144.508.213.765a8.9,8.9,0,0,1,.283,1.572,6.56,6.56,0,0,1-.074,1.6l-.068.4c-.029.131-.066.26-.1.388-.018.066-.034.131-.058.194l-.073.186-.076.184a.229.229,0,0,1-.186.15.242.242,0,0,1-.078-.228l.032-.191.034-.189.023-.189c.018-.125.032-.252.052-.377l.034-.378a12.724,12.724,0,0,0,.01-1.517,12.44,12.44,0,0,0-.131-1.522l-.073-.375-.095-.374-.092-.372-.044-.188a.275.275,0,0,1,.05-.225.246.246,0,0,1,.191.139c.029.06.058.12.084.18m2.1,13.026.231-.217c.157-.142.312-.283.472-.419.317-.278.642-.543.967-.812.647-.535,1.289-1.079,1.962-1.582s1.358-1,2.036-1.491l1.009-.757c.17-.125.338-.249.514-.37l.262-.175a.447.447,0,0,1,.34-.076.435.435,0,0,1-.157.312l-.233.215c-.157.141-.317.275-.479.409l-.977.8c-.645.543-1.279,1.093-1.934,1.622s-1.334,1.025-2.007,1.525c-.338.252-.676.5-1.02.744-.173.123-.346.241-.521.359l-.265.173a.4.4,0,0,1-.348.066.393.393,0,0,1,.149-.32m4.235,5.634c.668-.606,1.383-1.15,2.088-1.706s1.425-1.1,2.139-1.643,1.454-1.062,2.175-1.6l2.169-1.6a.149.149,0,0,1,.184.235l-2.1,1.688c-.705.558-1.4,1.135-2.1,1.69s-1.415,1.105-2.136,1.643-1.43,1.087-2.187,1.577a.18.18,0,0,1-.233-.029.184.184,0,0,1,.011-.259m-9.874-4.955a7.493,7.493,0,0,1,5.311-.315s-.254.118-.265.2c-.07.686,1.232,2.458,1.737,2.084.357-.262.7-.519,1.038-.776a25.684,25.684,0,0,0,6.9-5.382c.265-.2.537-.406.818-.616.527-.4-.734-2.191-1.391-2.277-.168-.023-.537.412-.537.412a5.3,5.3,0,0,1-1.205-2.505,3.638,3.638,0,0,1,.422-1.522c1.276-.563,2.117-3.96,3.267-5.776.957-1.514,1.727-2.652,1.727-2.652s-.285-.345-.623-.752c.227-.4-.142-.17-.213-.257-.288-.343-.576-.692-.734-.885.372-.66-.23-.275-.23-.275l-.765-.922s.044-.217-.136-.168c-.252-.3-1.006-1.211-1.006-1.211S18.122,298.8,13.764,302.51c-3.469,2.953-.393,13.246,5.052,11.2" transform="translate(-11.998 -289.723)" fill="#e52525"/></g><g transform="translate(-886.579 -743.39)" clip-path="url(#w)"><path d="M54.749,325.293c.634.51,1.3.972,1.952,1.462.327.244.663.472.991.716l.49.362a1.345,1.345,0,0,1,.419.469,1.323,1.323,0,0,1-.587-.22l-.519-.325c-.343-.223-.69-.441-1.022-.676l-1-.71-.5-.354-.493-.367c-1.328-.951-2.615-1.965-3.87-3.016-1.242-1.067-2.432-2.2-3.564-3.38-.565-.6-1.126-1.193-1.651-1.821-.27-.309-.521-.634-.773-.957-.123-.165-.252-.325-.372-.492a1.092,1.092,0,0,1-.246-.584,1.239,1.239,0,0,1,.5.382c.131.155.27.3.4.456.275.3.55.594.828.891l.419.443.422.435c.28.3.572.58.857.865l.212.2c.013-.023.023-.047.037-.068.076-.139.165-.268.252-.4a6.812,6.812,0,0,1,.537-.768c.2-.241.421-.464.637-.694.107-.115.2-.238.3-.356a1.983,1.983,0,0,1,.165-.17l.089-.078c.032-.026.076-.04.191,0,.063.1.063.147.047.183l-.052.108a1.93,1.93,0,0,1-.12.2c-.089.129-.184.252-.268.385-.165.268-.319.543-.5.8a7.035,7.035,0,0,1-.6.723c-.1.115-.2.236-.317.346-.029.029-.06.058-.092.087,1,.956,2.023,1.881,3.058,2.8.613.532,1.218,1.072,1.847,1.586.019.013.034.029.053.042-.026-.036-.029-.058-.024-.073l.021-.081c.018-.05.034-.1.052-.152a2.814,2.814,0,0,1,.142-.28,3.065,3.065,0,0,1,.317-.537c.126-.168.28-.314.419-.472.071-.078.129-.165.192-.243a1.117,1.117,0,0,1,.11-.115l.065-.052c.021-.015.06-.021.165.021.079.084.089.121.081.147l-.023.078a.875.875,0,0,1-.065.144c-.05.092-.11.178-.155.272-.092.189-.17.386-.278.563a3.112,3.112,0,0,1-.377.5c-.071.079-.134.16-.21.236a1.274,1.274,0,0,1-.123.1l-.066.05c-.016.016-.047.019-.126-.007.254.215.506.429.768.637Zm-3.333,34.145q-.409-.55-.81-1.111c-.3-.417-.59-.836-.877-1.26-.25-.367-.5-.742-.739-1.116a51.717,51.717,0,0,1-3.559-6.412c-.9-1.947-2.562-7.345-3.653-10.675-.268-.812-.5-1.507-.679-1.992-.008-.018-.013-.036-.021-.055-.123-.335-.243-.665-.359-.993-.045-.123-.087-.241-.129-.362-.081-.223-.16-.448-.235-.668-.05-.136-.095-.272-.142-.409-.071-.2-.139-.4-.2-.6-.05-.142-.094-.28-.144-.419-.062-.189-.125-.378-.186-.563-.047-.142-.092-.278-.136-.417-.06-.184-.121-.364-.178-.548-.044-.134-.087-.27-.131-.4-.058-.178-.113-.356-.168-.535-.042-.128-.081-.26-.121-.388-.058-.178-.11-.356-.165-.532-.037-.121-.073-.243-.11-.364-.055-.184-.107-.364-.162-.543l-.095-.325c-.062-.207-.12-.414-.18-.618-.019-.073-.042-.147-.063-.22-.078-.275-.154-.547-.228-.815-.015-.055-.029-.107-.044-.162-.058-.21-.115-.417-.168-.621-.026-.094-.05-.183-.074-.275-.044-.162-.086-.322-.128-.482-.026-.1-.05-.2-.076-.3-.037-.144-.076-.288-.11-.433-.026-.1-.05-.2-.076-.3-.034-.136-.065-.27-.1-.4-.023-.1-.047-.194-.071-.288-.031-.132-.06-.26-.091-.386-.021-.091-.042-.18-.063-.272-.032-.125-.06-.246-.087-.37-.021-.084-.039-.17-.06-.254-.026-.12-.052-.241-.078-.356-.018-.078-.037-.16-.052-.235-.029-.123-.055-.244-.081-.362-.013-.066-.026-.131-.04-.195-.034-.154-.065-.3-.094-.445-.005-.026-.011-.055-.016-.078-.036-.17-.068-.333-.1-.49-.011-.052-.021-.1-.032-.15-.013-.07-.026-.142-.04-.207a.684.684,0,0,0,.1-.055c3.4-2.4,6.616-4.991,9.609-7.467a.393.393,0,0,0,.047-.048l.04.016c-3.409,3.765-6.918,8.655-6.3,11.071.98,3.857,7.717,21.607,9.132,23.682s8.749,14.276,15.36,19.438c2.332,1.821,4.845,4.027,7.117,5.175.5-.291.991-.592,1.476-.91,1-.645,1.986-1.318,2.945-2.028s1.916-1.423,2.848-2.169c1.879-1.47,3.708-3.014,5.493-4.6q1.332-1.2,2.626-2.447l1.295-1.242.644-.623a2.834,2.834,0,0,1,.731-.543,2.673,2.673,0,0,1-.516.752l-.616.655c-.411.437-.833.865-1.26,1.287-.852.846-1.722,1.674-2.6,2.491s-1.761,1.633-2.66,2.43-1.821,1.566-2.754,2.326a56.875,56.875,0,0,1-5.886,4.177c-.4.246-.8.482-1.2.712a5.848,5.848,0,0,0,1.85.506l0,0c-.39.275-.767.537-1.132.781-.021.013-.04.026-.058.04-.118.081-.236.157-.352.233-.026.019-.052.034-.078.053-.1.068-.2.133-.3.2-.032.021-.066.044-.1.065-.057.034-.113.071-.168.1l-.149.095c-.071.042-.142.087-.21.128l-.142.087c-.06.037-.117.071-.175.105l-.168.1c-.037.023-.076.045-.113.066-.074.042-.144.081-.215.118-.032.018-.062.036-.094.052-.074.039-.144.078-.213.113-.023.013-.047.026-.07.036-.06.032-.121.06-.178.089-.018.008-.036.019-.058.026-.068.034-.133.063-.2.092a.4.4,0,0,1-.06.026c-.063.029-.126.055-.186.078l-.044.016q-.095.035-.181.062l-.021.008-.157.045-.029,0a1.406,1.406,0,0,1-.147.029l-.026,0a1.168,1.168,0,0,1-.131.011H68.6a.766.766,0,0,1-.115-.013,2.228,2.228,0,0,1-.393-.133l-.044-.018a18.961,18.961,0,0,1-3.286-2.146l-.425-.331c-.288-.227-.587-.466-.894-.72q-.224-.184-.456-.38c-.125-.105-.254-.213-.382-.323-.254-.217-.517-.445-.781-.681-.134-.115-.268-.236-.4-.357-.406-.364-.818-.741-1.24-1.14s-.846-.807-1.279-1.234q-.868-.852-1.753-1.784c-.739-.775-1.483-1.593-2.225-2.442q-.892-1.022-1.771-2.107-.66-.814-1.305-1.662c-.146-.191-.293-.385-.437-.579m-10.638-56.7h0c-.694-.027-1.475-.027-2.146-.021a50.746,50.746,0,0,1,3.333-5.9.684.684,0,0,1,.076.04c-.745,1.658-1.745,4.337-1.26,5.878m2.384-9.916a6.7,6.7,0,0,1,.6-.584c.21-.178.44-.338.663-.506.11-.084.213-.178.32-.267.052-.042.11-.084.168-.123l.092-.055c.029-.015.073-.023.162.026.039.095.032.136.011.165l-.063.084a2.087,2.087,0,0,1-.139.158c-.1.1-.2.194-.294.3-.186.207-.367.419-.566.613a6.272,6.272,0,0,1-.634.54c-.107.084-.215.173-.33.254l-.115.07-.223-.27c.023-.032.047-.063.073-.095.089-.107.186-.2.28-.307m-.953-1.124a7.115,7.115,0,0,1,.657-.572c.233-.176.482-.33.723-.492.121-.082.233-.173.352-.26.06-.042.12-.081.183-.118l.1-.052c.032-.018.076-.021.166.029.031.1.018.142-.005.17l-.071.084a2.09,2.09,0,0,1-.154.154c-.107.1-.223.189-.327.291-.21.2-.412.414-.632.605a7.878,7.878,0,0,1-.7.524c-.121.082-.238.17-.362.247-.021.01-.042.021-.063.034l-.235-.285c.015-.019.034-.037.05-.055.1-.108.209-.2.317-.3m-1.182-.828c.05-.047.1-.094.154-.136.11-.084.223-.162.325-.257.209-.183.409-.377.623-.553a6.9,6.9,0,0,1,.676-.482c.115-.078.231-.157.352-.228.06-.036.123-.068.186-.1l.095-.047c.031-.016.073-.019.168.044.042.107.029.15,0,.173l-.068.084c-.047.055-.092.107-.142.157-.1.1-.2.191-.307.286a6.235,6.235,0,0,1-.645.535c-.228.162-.477.3-.715.445-.123.071-.236.152-.354.228a2.087,2.087,0,0,1-.188.1c-.032.016-.066.026-.1.042l-.16-.194.016-.021Zm-.4,18.311.018-.034-.026-.034c-2.984,2.272-4.869,3.839-7.041,5.487l.023.034.026-.008a10.814,10.814,0,0,0,7-5.445" transform="translate(-33.092 -288.767)" fill="#e52525"/></g><g transform="translate(-884.566 -721.987)" clip-path="url(#x)"><path d="M43.291,321.686c-.032-.062-.076-.118-.113-.175a.521.521,0,0,1-.048-.095l-.015-.055c-.005-.018.005-.047.068-.118.087-.047.117-.05.133-.039l.047.028a.4.4,0,0,1,.081.066c.05.05.092.1.144.15a3.669,3.669,0,0,1,.315.278,3.1,3.1,0,0,1,.33.529.653.653,0,0,1,.037.1l.015.055c.005.016,0,.048-.078.126-.095.052-.126.055-.139.044l-.05-.026a1.054,1.054,0,0,1-.092-.058,1.476,1.476,0,0,1-.157-.142,1.585,1.585,0,0,1-.28-.3,3.586,3.586,0,0,1-.2-.367M37.1,326.9a3.806,3.806,0,0,1-.2-.383c-.031-.065-.076-.12-.113-.183a.587.587,0,0,1-.044-.1l-.015-.055c0-.018,0-.05.07-.12.087-.042.118-.045.133-.034l.05.032a.541.541,0,0,1,.081.07,1.968,1.968,0,0,0,.142.158,3.676,3.676,0,0,1,.314.3,1.614,1.614,0,0,1,.228.359c.034.063.071.123.1.191.013.034.023.068.034.105l.013.057c.008.016,0,.048-.078.123-.1.052-.129.052-.142.042l-.05-.029c-.032-.021-.066-.042-.092-.063-.058-.047-.1-.1-.158-.15a1.733,1.733,0,0,1-.278-.322m1.035-1.315a1.75,1.75,0,0,0-.107-.178.4.4,0,0,1-.042-.1l-.016-.052c-.005-.019.005-.048.074-.118.087-.045.115-.045.131-.034l.047.029a.4.4,0,0,1,.081.068c.048.05.087.105.139.152a3.892,3.892,0,0,1,.3.288,1.572,1.572,0,0,1,.223.348c.031.06.068.121.094.186.013.034.023.068.034.1l.013.055c0,.015-.005.047-.079.125-.1.052-.128.055-.142.042l-.05-.026a1.064,1.064,0,0,1-.089-.063,1.527,1.527,0,0,1-.152-.142,1.582,1.582,0,0,1-.272-.315,3.859,3.859,0,0,1-.192-.374m1.205-.941c-.034-.068-.081-.123-.12-.186a.514.514,0,0,1-.05-.1l-.018-.058c-.008-.019,0-.048.063-.123.087-.044.118-.047.133-.037l.052.032a.6.6,0,0,1,.087.071c.055.055.1.115.154.165a3.142,3.142,0,0,1,.331.317,1.639,1.639,0,0,1,.235.392,1.812,1.812,0,0,1,.092.221c.011.039.018.084.026.125l.005.071c0,.021-.013.06-.113.1-.11.008-.136.011-.147,0l-.04-.032a.969.969,0,0,1-.076-.073c-.05-.048-.092-.1-.139-.158a2.25,2.25,0,0,1-.272-.338c-.076-.12-.133-.262-.2-.39m1.307-1.045c-.031-.068-.076-.126-.113-.191a.476.476,0,0,1-.047-.1l-.015-.058c-.005-.018.005-.05.07-.12.087-.04.118-.04.136-.029l.048.032a.612.612,0,0,1,.084.076c.05.055.094.115.146.168a4.426,4.426,0,0,1,.32.315,1.885,1.885,0,0,1,.233.377,1.923,1.923,0,0,1,.1.2.847.847,0,0,1,.037.11l.013.058c.008.018,0,.05-.078.126-.1.05-.128.05-.144.036l-.05-.032a.6.6,0,0,1-.095-.068,1.772,1.772,0,0,1-.16-.158,1.8,1.8,0,0,1-.286-.34c-.078-.123-.133-.265-.2-.4m1.607-.647a1.854,1.854,0,0,0,.291.338,1.735,1.735,0,0,0,.16.154c.029.024.063.045.094.068l.053.029c.013.013.047.011.144-.04.074-.078.084-.107.076-.125l-.013-.058a.763.763,0,0,0-.039-.11c-.029-.071-.068-.133-.1-.2a1.852,1.852,0,0,0-.241-.372,4.025,4.025,0,0,0-.323-.309c-.055-.052-.1-.113-.146-.168a.78.78,0,0,0-.087-.073l-.05-.032c-.016-.011-.048-.011-.134.032-.065.07-.076.1-.07.121l.018.058a.457.457,0,0,0,.048.1c.036.063.081.121.115.188a3.871,3.871,0,0,0,.207.4" transform="translate(-36.14 -320.751)" fill="#efc6b6"/></g><g transform="translate(-650.456 -829.315)" clip-path="url(#y)"><path d="M387.14,168.369l-2.062.032,1.839.406a9.344,9.344,0,0,1,7.3,8.663l.055,1.119.081-.409a9.344,9.344,0,0,1,9.134-7.581l1.957-.005-1.86-.393a9.342,9.342,0,0,1-7.4-9.349l-.2.712a9.342,9.342,0,0,1-8.844,6.805" transform="translate(-384.926 -160.636)" fill="#e52525"/></g><g transform="translate(-641.065 -814.558)" clip-path="url(#z)"><path d="M416.505,190.771l-1.559-.33a7.829,7.829,0,0,1-6.2-7.832l-.168.6a7.824,7.824,0,0,1-7.41,5.7l-1.727.026,1.54.341a7.824,7.824,0,0,1,6.116,7.258l.047.938.068-.343a7.825,7.825,0,0,1,7.652-6.349Z" transform="translate(-399.046 -182.556)" fill="#e52525"/></g></g></svg>