<svg xmlns="http://www.w3.org/2000/svg" xmlns:xlink="http://www.w3.org/1999/xlink" width="310.562" height="169.237" viewBox="0 0 310.562 169.237"><defs><clipPath id="a"><rect width="310.562" height="169.237" fill="none"/></clipPath><clipPath id="b"><path d="M166.232,94.89a166.186,166.186,0,0,1-9.4,16.522,164.112,164.112,0,0,1-19.919,25.069q1.854-1.321,3.652-2.717,1.971-1.541,3.863-3.172t3.7-3.358q1.809-1.723,3.533-3.536t3.355-3.7q1.635-1.9,3.171-3.865t2.976-4.015q1.439-2.045,2.777-4.157t2.569-4.288q1.232-2.176,2.355-4.409t2.137-4.518q1.013-2.288,1.912-4.618t1.682-4.708q.784-2.374,1.452-4.784t1.213-4.848q.547-2.44.975-4.9t.732-4.946q.306-2.48.49-4.973t.245-4.993c.006-.262,0-.525.009-.788A156.165,156.165,0,0,1,166.232,94.89" transform="translate(-136.916 -55.184)" fill="none"/></clipPath><linearGradient id="c" x1="-0.39" y1="2.084" x2="-0.385" y2="2.084" gradientUnits="objectBoundingBox"><stop offset="0" stop-color="#e52525"/><stop offset="0.063" stop-color="#e52525"/><stop offset="0.094" stop-color="#e52525"/><stop offset="0.102" stop-color="#e52525"/><stop offset="0.105" stop-color="#e52626"/><stop offset="0.109" stop-color="#e52727"/><stop offset="0.113" stop-color="#e52929"/><stop offset="0.117" stop-color="#e62b2b"/><stop offset="0.121" stop-color="#e62c2c"/><stop offset="0.125" stop-color="#e62e2e"/><stop offset="0.129" stop-color="#e63030"/><stop offset="0.133" stop-color="#e63131"/><stop offset="0.137" stop-color="#e73333"/><stop offset="0.141" stop-color="#e73535"/><stop offset="0.145" stop-color="#e73636"/><stop offset="0.148" stop-color="#e73838"/><stop offset="0.152" stop-color="#e73a3a"/><stop offset="0.156" stop-color="#e83c3c"/><stop offset="0.16" stop-color="#e83d3d"/><stop offset="0.164" stop-color="#e83f3f"/><stop offset="0.168" stop-color="#e84141"/><stop offset="0.172" stop-color="#e84242"/><stop offset="0.176" stop-color="#e94444"/><stop offset="0.18" stop-color="#e94646"/><stop offset="0.184" stop-color="#e94747"/><stop offset="0.188" stop-color="#e94949"/><stop offset="0.191" stop-color="#ea4b4b"/><stop offset="0.195" stop-color="#ea4c4c"/><stop offset="0.199" stop-color="#ea4e4e"/><stop offset="0.203" stop-color="#ea5050"/><stop offset="0.207" stop-color="#ea5252"/><stop offset="0.211" stop-color="#eb5353"/><stop offset="0.215" stop-color="#eb5555"/><stop offset="0.219" stop-color="#eb5757"/><stop offset="0.223" stop-color="#eb5858"/><stop offset="0.227" stop-color="#eb5a5a"/><stop offset="0.23" stop-color="#ec5c5c"/><stop offset="0.234" stop-color="#ec5d5d"/><stop offset="0.238" stop-color="#ec5f5f"/><stop offset="0.242" stop-color="#ec6161"/><stop offset="0.246" stop-color="#ec6363"/><stop offset="0.25" stop-color="#ed6464"/><stop offset="0.254" stop-color="#ed6666"/><stop offset="0.258" stop-color="#ed6868"/><stop offset="0.262" stop-color="#ed6969"/><stop offset="0.266" stop-color="#ed6b6b"/><stop offset="0.27" stop-color="#ee6d6d"/><stop offset="0.273" stop-color="#ee6e6e"/><stop offset="0.277" stop-color="#ee7070"/><stop offset="0.281" stop-color="#ee7272"/><stop offset="0.285" stop-color="#ee7373"/><stop offset="0.289" stop-color="#ef7575"/><stop offset="0.293" stop-color="#ef7777"/><stop offset="0.297" stop-color="#ef7979"/><stop offset="0.301" stop-color="#ef7a7a"/><stop offset="0.305" stop-color="#ef7c7c"/><stop offset="0.309" stop-color="#f07e7e"/><stop offset="0.313" stop-color="#f07f7f"/><stop offset="0.316" stop-color="#f08181"/><stop offset="0.32" stop-color="#f08383"/><stop offset="0.324" stop-color="#f08484"/><stop offset="0.328" stop-color="#f18686"/><stop offset="0.332" stop-color="#f18888"/><stop offset="0.336" stop-color="#f18989"/><stop offset="0.34" stop-color="#f18b8b"/><stop offset="0.344" stop-color="#f18d8d"/><stop offset="0.348" stop-color="#f28f8f"/><stop offset="0.352" stop-color="#f29090"/><stop offset="0.355" stop-color="#f29292"/><stop offset="0.359" stop-color="#f29494"/><stop offset="0.363" stop-color="#f29595"/><stop offset="0.367" stop-color="#f39797"/><stop offset="0.371" stop-color="#f39999"/><stop offset="0.375" stop-color="#f39a9a"/><stop offset="0.379" stop-color="#f39c9c"/><stop offset="0.383" stop-color="#f39e9e"/><stop offset="0.387" stop-color="#f4a0a0"/><stop offset="0.391" stop-color="#f4a1a1"/><stop offset="0.395" stop-color="#f4a3a3"/><stop offset="0.398" stop-color="#f4a5a5"/><stop offset="0.402" stop-color="#f4a6a6"/><stop offset="0.406" stop-color="#f5a8a8"/><stop offset="0.41" stop-color="#f5aaaa"/><stop offset="0.414" stop-color="#f5abab"/><stop offset="0.418" stop-color="#f5adad"/><stop offset="0.422" stop-color="#f5afaf"/><stop offset="0.426" stop-color="#f6b0b0"/><stop offset="0.43" stop-color="#f6b2b2"/><stop offset="0.434" stop-color="#f6b4b4"/><stop offset="0.438" stop-color="#f6b6b6"/><stop offset="0.441" stop-color="#f6b7b7"/><stop offset="0.445" stop-color="#f7b9b9"/><stop offset="0.449" stop-color="#f7bbbb"/><stop offset="0.453" stop-color="#f7bcbc"/><stop offset="0.457" stop-color="#f7bebe"/><stop offset="0.461" stop-color="#f7c0c0"/><stop offset="0.465" stop-color="#f8c1c1"/><stop offset="0.469" stop-color="#f8c3c3"/><stop offset="0.473" stop-color="#f8c5c5"/><stop offset="0.477" stop-color="#f8c6c6"/><stop offset="0.48" stop-color="#f8c8c8"/><stop offset="0.484" stop-color="#f9caca"/><stop offset="0.488" stop-color="#f9cccc"/><stop offset="0.492" stop-color="#f9cdcd"/><stop offset="0.496" stop-color="#f9cfcf"/><stop offset="0.5" stop-color="#f9d1d1"/><stop offset="0.504" stop-color="#fad2d2"/><stop offset="0.508" stop-color="#fad4d4"/><stop offset="0.512" stop-color="#fad6d6"/><stop offset="0.516" stop-color="#fad7d7"/><stop offset="0.52" stop-color="#fad9d9"/><stop offset="0.523" stop-color="#fbdbdb"/><stop offset="0.527" stop-color="#fbdddd"/><stop offset="0.531" stop-color="#fbdede"/><stop offset="0.535" stop-color="#fbe0e0"/><stop offset="0.539" stop-color="#fbe2e2"/><stop offset="0.543" stop-color="#fce3e3"/><stop offset="0.547" stop-color="#fce5e5"/><stop offset="0.551" stop-color="#fce7e7"/><stop offset="0.555" stop-color="#fce8e8"/><stop offset="0.559" stop-color="#fceaea"/><stop offset="0.563" stop-color="#fdecec"/><stop offset="0.566" stop-color="#fdeded"/><stop offset="0.57" stop-color="#fdefef"/><stop offset="0.574" stop-color="#fdf1f1"/><stop offset="0.578" stop-color="#fef3f3"/><stop offset="0.582" stop-color="#fef4f4"/><stop offset="0.586" stop-color="#fef6f6"/><stop offset="0.59" stop-color="#fef8f8"/><stop offset="0.594" stop-color="#fef9f9"/><stop offset="0.598" stop-color="#fffbfb"/><stop offset="0.602" stop-color="#fffdfd"/><stop offset="0.605" stop-color="#fffefe"/><stop offset="0.609" stop-color="#fff"/><stop offset="0.625" stop-color="#fff"/><stop offset="0.75" stop-color="#fff"/><stop offset="1" stop-color="#fff"/></linearGradient><clipPath id="e"><path d="M94.648,178.425,93,179.745v6.388l.314.394.438.547h8.76v-8.649Z" transform="translate(-92.999 -178.425)" fill="none"/></clipPath><clipPath id="f"><path d="M115,184.426v7.351h6.7l1.517-1.214v-5.342l-.636-.8Z" transform="translate(-114.998 -184.426)" fill="none"/></clipPath><clipPath id="g"><path d="M428,87.426v36.415l51.052,4.387,3.5-40.8Z" transform="translate(-427.999 -87.426)" fill="none"/></clipPath><clipPath id="h"><path d="M524,107.425v31.334l9.539.82,2.762-32.153Z" transform="translate(-523.998 -107.425)" fill="none"/></clipPath><clipPath id="i"><path d="M415,81.425v38.527l56.674,4.87,3.728-43.4Z" transform="translate(-414.998 -81.425)" fill="none"/></clipPath><clipPath id="j"><path d="M423,42.426V98.115l21.236,1.825h32.214l4.941-57.513Z" transform="translate(-422.998 -42.426)" fill="none"/></clipPath><clipPath id="k"><path d="M401.785,9.425l-5.924,68.951,64.95,5.581,6.274-73.028-17.5-1.5Z" transform="translate(-395.861 -9.425)" fill="none"/></clipPath><clipPath id="l"><rect width="26.255" height="9.485" fill="none"/></clipPath><clipPath id="m"><rect width="26.133" height="10.019" fill="none"/></clipPath><clipPath id="o"><path d="M75,211.071v23.207l5.142,6.69,13.606,17.7h3.047l9.549-7.339,3.249-2.5v-5.643L81.227,206.284Z" transform="translate(-74.999 -206.284)" fill="none"/></clipPath><clipPath id="p"><path d="M70.725,209.426,64,214.6v15.277l18.187,23.661H98.593v-14.75L76.027,209.426Z" transform="translate(-63.998 -209.426)" fill="none"/></clipPath><clipPath id="q"><path d="M66.747,208.426l-9.921,7.624-.828.637V224.8l1.039,1.351H71.566V208.961l-.411-.535Z" transform="translate(-55.998 -208.426)" fill="none"/></clipPath><clipPath id="r"><path d="M81.909,207.609,76,212.152v23.441l18.316,23.829h3.047L109.3,250.25v-7.01Z" transform="translate(-75.999 -207.609)" fill="none"/></clipPath><clipPath id="s"><rect width="4.757" height="3.892" fill="none"/></clipPath><clipPath id="t"><path d="M398.825,90.425l-.786,7.288L398,98.1v3.14h12.541V91.076l-5.45-.587-.589-.064Z" transform="translate(-397.998 -90.425)" fill="none"/></clipPath><clipPath id="u"><path d="M411,109.426v8.65l8.012.864h1.918l.866-8.04.014-.132v-1.341Z" transform="translate(-410.999 -109.426)" fill="none"/></clipPath></defs><g clip-path="url(#a)"><path d="M369.568,96.062a106.535,106.535,0,0,1-129.086-75.87c.115.674.231,1.348.358,2.02q.469,2.455,1.056,4.885t1.3,4.828q.7,2.4,1.529,4.758t1.762,4.677q.938,2.318,1.988,4.586t2.211,4.483q1.16,2.214,2.429,4.368t2.64,4.245q1.371,2.09,2.845,4.109t3.044,3.965q1.571,1.946,3.235,3.813t3.417,3.647q1.753,1.781,3.591,3.476t3.758,3.294q1.921,1.6,3.916,3.108t4.064,2.911q2.068,1.406,4.2,2.707t4.329,2.5q2.194,1.2,4.446,2.284t4.554,2.062q2.3.976,4.649,1.837t4.733,1.606q2.387.745,4.806,1.372t4.868,1.135q2.447.507,4.919.894t4.954.652q2.486.267,4.983.407t5,.164q2.5.02,5-.083t4.987-.327q2.49-.226,4.966-.571t4.932-.816q2.455-.466,4.885-1.056t4.828-1.294q2.4-.707,4.758-1.53t4.679-1.76q2.316-.941,4.585-1.99t4.483-2.211q2.215-1.16,4.368-2.428t4.245-2.64q2.091-1.373,4.11-2.846t3.965-3.042q1.928-1.557,3.778-3.205l.067-.06q1.847-1.651,3.614-3.387,1.781-1.753,3.476-3.593t3.294-3.758q1.432-1.715,2.784-3.5a106.032,106.032,0,0,1-52.292,31.172" transform="translate(-136.49 -11.46)" fill="#fff"/><path d="M0,226.01q1.306-.14,2.609-.313,2.478-.329,4.938-.781t4.892-1.024q2.435-.573,4.836-1.262t4.768-1.5q2.367-.808,4.691-1.73t4.6-1.958q2.275-1.037,4.5-2.182t4.384-2.4q2.164-1.254,4.262-2.611t4.13-2.818q2.03-1.459,3.985-3.017t3.833-3.21q1.878-1.65,3.67-3.392t3.5-3.569q1.705-1.827,3.319-3.736t3.133-3.9q1.518-1.984,2.938-4.044t2.736-4.182q1.317-2.126,2.527-4.312t2.314-4.431q1.083-2.2,2.056-4.457l.071-.164q.971-2.255,1.833-4.554.876-2.341,1.638-4.723t1.4-4.8c.349-1.309.664-2.626.96-3.948a166.181,166.181,0,0,1-9.4,16.522C58.783,194.955,29.957,216.586,0,226.01" transform="translate(0 -83.434)" fill="#fff"/></g><g transform="translate(59.207 23.863)"><g clip-path="url(#b)"><rect width="90.617" height="66.131" transform="matrix(0.314, -0.95, 0.95, 0.314, -24.202, 73.307)" fill="url(#c)"/></g></g><g clip-path="url(#a)"><rect width="8.108" height="8.11" transform="translate(103.17 67.289) rotate(-3.464)" fill="#fff"/><rect width="8.108" height="8.108" transform="translate(112.234 66.741) rotate(-3.464)" fill="#fff"/><rect width="8.109" height="8.108" transform="translate(103.704 76.132) rotate(-3.464)" fill="#fff"/><rect width="8.108" height="8.109" transform="translate(112.769 75.583) rotate(-3.464)" fill="#fff"/></g><g transform="translate(40.216 77.157)"><g clip-path="url(#e)"><path d="M94.058,185.478l-.845.867.934-.591a5.487,5.487,0,0,1,6.63.591l.486.444-.137-.2a5.49,5.49,0,0,1,.664-6.943l.813-.813-.937.6a5.491,5.491,0,0,1-6.956-.838l.211.38a5.487,5.487,0,0,1-.863,6.5" transform="translate(-93.12 -178.523)" fill="#fff"/></g></g><g transform="translate(49.729 79.752)"><g clip-path="url(#f)"><path d="M123.17,185.376l-.786.509a4.6,4.6,0,0,1-5.828-.7l.178.317a4.6,4.6,0,0,1-.723,5.444l-.707.726.782-.5a4.6,4.6,0,0,1,5.554.5l.408.373-.115-.171a4.6,4.6,0,0,1,.556-5.818Z" transform="translate(-115.172 -184.856)" fill="#fff"/></g></g><g transform="translate(185.08 37.806)"><g clip-path="url(#g)"><path d="M509.9,104.955c-.481,2.561-.409,2.608-.89,5.169s-.669,2.556-1.152,5.117-.392,2.546-.877,5.107-.51,2.552-.993,5.111-.456,2.571-.937,5.13c-.012.059-.027.116-.039.172l-21.2-1.821c0-.056-.009-.112-.01-.169-.037-2.6.1-2.51.059-5.117s.095-4.733.058-7.34.066-10.986.027-13.591Zm-28.746-8.608a7.334,7.334,0,0,0-2.632-6.755L459.953,88c-3.044.481-5.2,6.083-5.2,6.083q.8.347,1.616.64l-1.661-.144-.448,5.226-.681,11.025-.677,4.781-.424,4.932s4.5.754,13.183,1.5,13.246.77,13.246.77l2.23-25.964-2.326-.2c1.475-.154,2.345-.3,2.345-.3M436.609,121.43l-3.407-.294a4.837,4.837,0,0,0-4.541,2.3l-.444.73,9.926.853.137-1.6a1.832,1.832,0,0,0-1.67-1.988" transform="translate(-428.123 -87.75)" fill="#fff"/></g></g><g transform="translate(226.593 46.454)"><g clip-path="url(#h)"><path d="M544.387,140.506l-1.693-.147s.5-7.264.33-13.627-.306-11.5-.306-11.5l1.693.145Zm-20.326-7.441,5.758.5s.742-9.189,1.122-15.326.86-10.324.86-10.324l-5.537-.476s-.264,5.446-.684,12.321-1.519,13.311-1.519,13.311" transform="translate(-524.034 -107.43)" fill="#fff"/></g></g><g transform="translate(179.458 35.211)"><g clip-path="url(#i)"><path d="M464.634,81.68c.132.008.263.022.392.04l-.392-.04m39.75,39.731-25.478-.743.039,2.282a2.879,2.879,0,0,0,2.627,2.818l24.223,2.079s-1.775-2.2-1.41-6.436m-83.375-6.191-5.081,1.638,8.505.624-.878-2.044Zm25.132-4.7,26.345,2.263.052-.617-26.309-2.26Zm-.284,2.319,26.427,2.272.054-.617-26.429-2.27Z" transform="translate(-415.526 -81.57)" fill="#fff"/></g></g><g transform="translate(182.918 18.346)"><g clip-path="url(#j)"><path d="M452.412,44.238c-.1.192-.2.388-.3.583-.618,1.209-1.23,2.426-1.838,3.64q-1.31,2.61-2.61,5.225c-1.054,2.118-1.421,2.912-2.473,5.032-1.161,2.338-3.007,6-4.166,8.339-1.191,2.4-2.753,5.12-3.942,7.526-1.146,2.316-1.919,4.323-3.064,6.64q-1.535,3.106-3.071,6.216-1.241,2.519-2.486,5.039c-.131.265-.262.532-.392.8l-2.55-.219q.616-1.254,1.236-2.509,1.323-2.676,2.643-5.353c1.059-2.145,1.3-2.269,2.365-4.416,1.164-2.353,3.14-6.726,4.3-9.078q1.784-3.606,3.571-7.21c1.139-2.3,2-3.593,3.14-5.894,1.017-2.049,2.321-5.1,3.343-7.15q1.216-2.438,2.439-4.875c.534-1.057,1.064-2.113,1.608-3.164a1.233,1.233,0,0,1,1.537-.71,1.2,1.2,0,0,1,.708,1.541m-28.419,51.9a.659.659,0,0,1-.037.074,1.2,1.2,0,0,0,.708,1.541,1.231,1.231,0,0,0,1.537-.71c.2-.407.4-.813.6-1.219.1-.213.211-.429.318-.642L424.554,95c-.194.378-.387.758-.561,1.145m29.084-12.27,10.355.89.454-5.292-10.355-.89Zm9.485-19.855,11.344.975.115-1.324-11.347-.975Zm46.115,14.564-28.245-2.427L480.12,79.8l28.245,2.426Zm.167,19.042a2.882,2.882,0,0,0-1.681-.693c-2.035-.356-2.248-.649-4.823-1.025a11.5,11.5,0,0,1-2.515-.561c-.786-.307-1.791-1.03-1.752-2.1.022-.589.184-5.243.184-5.243a1.69,1.69,0,0,0-1.789-1.214c-1.578-.056-1.83,1.088-1.83,1.088s-.148,4.282-.187,5.353-1.069,1.615-1.875,1.866a11.219,11.219,0,0,1-2.547.384c-2.595.2-2.828.473-4.883.686a2.884,2.884,0,0,0-1.725.573c-.66.615-.6.915-.517,1.823a.59.59,0,0,0,.1.331.568.568,0,0,0,.361.144,20.339,20.339,0,0,0,3.755.155l17.861.624a20.443,20.443,0,0,0,3.759.106.533.533,0,0,0,.368-.12.593.593,0,0,0,.123-.323c.145-.9.227-1.193-.388-1.851" transform="translate(-423.492 -42.542)" fill="#fff"/></g></g><g transform="translate(171.183 4.076)"><g clip-path="url(#k)"><path d="M460.678,16.33a12.6,12.6,0,0,0-4.191-4.539,9.835,9.835,0,0,0-5.24-1.744,13.494,13.494,0,0,0-8.5,3.394,20.912,20.912,0,0,0-3.679,4.125,50.581,50.581,0,0,0-3.078,5c-.292.532-.578,1.071-.861,1.611a1.237,1.237,0,0,1,.706.029,1.225,1.225,0,0,1,.7.692,41.789,41.789,0,0,1,5.716-8.779,14.366,14.366,0,0,1,1.8-1.676c.274-.209.554-.407.84-.6.074-.049.147-.1.22-.149l.106-.069c.145-.093.292-.182.441-.272a14.41,14.41,0,0,1,1.971-1,8.993,8.993,0,0,1,2.076-.6,7.764,7.764,0,0,1,4.593.623,11.272,11.272,0,0,1,4.483,3.858,7.712,7.712,0,0,1,1.322,4.3,10.953,10.953,0,0,1-1.171,4.652,23.169,23.169,0,0,1-2.966,4.606,27.989,27.989,0,0,1-3.8,3.906,54.093,54.093,0,0,1-9.23,5.991c-3.3,1.8-6.667,3.486-9.843,5.507a22.974,22.974,0,0,0-4.586,3.461,10.7,10.7,0,0,0-2.6,4.715,11.622,11.622,0,0,0-.138,4.939,8.474,8.474,0,0,0,.824,2.486,9.043,9.043,0,0,0,1.961,2.39,10.716,10.716,0,0,0,5.466,2.574,12.743,12.743,0,0,0,5.991-.617,16.544,16.544,0,0,0,2.806-1.25.815.815,0,0,0,.378-1.062.8.8,0,0,0-1.062-.378c-3.363,1.875-7.583,2.677-11.054.608a7.494,7.494,0,0,1-3.512-4.078,9.87,9.87,0,0,1-.268-4.524c.017-.1.035-.2.056-.307.007-.041.015-.083.025-.123,0-.005,0-.008,0-.015.051-.221.112-.438.176-.652A9.649,9.649,0,0,1,428,52.21a9.258,9.258,0,0,1,1.37-2.133,18.654,18.654,0,0,1,4.323-3.379c3.186-2.034,6.566-3.735,9.884-5.536a57.111,57.111,0,0,0,9.463-6.108,28.268,28.268,0,0,0,7.158-8.828c1.551-3.086,2.127-6.723.485-9.9M435.352,49.717l28.554,2.453-.147,1.714L435.2,51.43Zm-2.2,25.635L461.7,77.8l-.147,1.715-3.4-.294a2.549,2.549,0,1,1-2.284-.2L438.69,77.555a2.548,2.548,0,1,1-2.284-.2l-3.4-.292Zm47.86-57.745a1.3,1.3,0,0,1,1.226-1.257,1.324,1.324,0,0,1,.2-.005,1.513,1.513,0,0,1,.746.2,1.4,1.4,0,0,1,.6,1.157l-.532,9.841L483.087,37.6l-.845,18.74.069,3.389-.318,9.1a1.994,1.994,0,0,0-1.4-.534,1.944,1.944,0,0,0-1.385.41c.334-10.432,1.343-41.493,1.613-44.578a52.935,52.935,0,0,0,.188-6.52m-1.126,68.331-1.054-.09c-.042-.049-.083-.1-.123-.148a5.244,5.244,0,0,1-1.2-3.37c-.007-.385.589-.33.6.051,0,.012,0,.022,0,.034s0,.02,0,.029c.009.112.014.223.024.336a4.559,4.559,0,0,0,.51,1.562,2.965,2.965,0,0,0,1.245,1.6m-3.328-.285-1.054-.09c-.042-.049-.081-.1-.121-.149a5.248,5.248,0,0,1-1.2-3.37c-.006-.387.588-.331.595.051a.209.209,0,0,1,0,.034c0,.008,0,.017,0,.029.009.112.015.223.025.336a4.545,4.545,0,0,0,.51,1.562,2.962,2.962,0,0,0,1.243,1.6m16.424,1.411-1.132-.1a2.915,2.915,0,0,1-.514-.518,5.242,5.242,0,0,1-1.2-3.37c-.007-.385.588-.33.595.051a.246.246,0,0,1,0,.034c0,.01,0,.02,0,.029.007.113.014.224.024.336a4.511,4.511,0,0,0,.51,1.562,2.75,2.75,0,0,0,1.527,1.722.264.264,0,0,1,.186.252m-21.208-2.875a3.711,3.711,0,0,0,.65,1.11l-.794-.067a5.344,5.344,0,0,1-.987-3.058c-.007-.385.588-.329.595.052,0,.01,0,.022,0,.032s0,.019,0,.03c.009.112.014.223.025.334a4.466,4.466,0,0,0,.507,1.566M484.5,86.264l-1.081-.093a2.7,2.7,0,0,1-.179-.211,5.721,5.721,0,0,1-1.286-3.65c-.006-.385.588-.33.6.051V82.4c0,.01,0,.024,0,.035.007.12.015.241.027.362a5.13,5.13,0,0,0,.545,1.73,3.213,3.213,0,0,0,1.375,1.738m5.04.438a.293.293,0,0,1,.12.078l-1.275-.11a3.043,3.043,0,0,1-.3-.333,5.243,5.243,0,0,1-1.2-3.37c-.007-.385.588-.329.595.051,0,.012,0,.022,0,.034s0,.019,0,.029c.008.113.013.225.025.336a4.558,4.558,0,0,0,.508,1.563,2.741,2.741,0,0,0,1.522,1.723m-2.8-.24a.306.306,0,0,1,.12.076l-1.316-.113a3.2,3.2,0,0,1-.365-.38,6.25,6.25,0,0,1-1.383-2.458,5.494,5.494,0,0,1-.148-1.165c-.032-.38.554-.492.588-.11q.023.256.066.507a5.682,5.682,0,0,0,.681,1.74,3.25,3.25,0,0,0,1.759,1.9M400.884,75.693l13.976,1.2a4.837,4.837,0,0,0-4.541,2.3l-.444.73-13.974-1.2.444-.728a4.83,4.83,0,0,1,4.539-2.3" transform="translate(-395.884 -9.778)" fill="#fff"/></g></g><g transform="translate(147.458 57.64)"><g clip-path="url(#l)"><path d="M367,138.5c.113.263-.675,1.091-.675,1.091s-.6.49-.414.867-.187.752-.79.752-3.948,1.354-4.7,1.017-3.8.79-4.1.564a2.256,2.256,0,0,1-.6-.678c-.076-.15-.263.564-1.015.641s-1.993-.227-2.9-.19-2.557.49-2.671-.111-1.956-.264-2.557-.264a2.363,2.363,0,0,1-1.542-.64c-.113-.227-2.9-.453-3.573-1.431a1.931,1.931,0,0,1,.3-2.37c.375-.566-.716-1.093-.677-1.394s.525-.076,1.015.037,1.616.15,1.392-.451-.377-1.167.3-.941,2.067,1.091,2.97.565,3.723-.49,3.723-.49l7.86-1.579a9.685,9.685,0,0,1,4.024.225c1.805.6,2.557.6,2.9.339s.414.338.3.6a1.253,1.253,0,0,1-1.316.49c-.6-.15,2.331,1.544,2.821,2.145s-.188.941-.076,1.2" transform="translate(-341.05 -133.344)" fill="#fff"/></g></g><g transform="translate(147.58 57.106)"><g clip-path="url(#m)"><path d="M343.1,136.213l.041.02a.366.366,0,0,0,.081.026c.054.012.108.017.164.032a3.083,3.083,0,0,0,.324.086,1.361,1.361,0,0,0,.331.01,1.512,1.512,0,0,0,.169-.012.589.589,0,0,0,.084-.019l.042-.014c.013,0,.03-.02.052-.1-.007-.083-.019-.1-.032-.108l-.039-.022a.562.562,0,0,0-.08-.034,1.5,1.5,0,0,0-.162-.044,1.385,1.385,0,0,0-.328-.055,2.841,2.841,0,0,0-.336.022c-.056.005-.11,0-.166,0a.351.351,0,0,0-.084.01l-.044.01c-.013.005-.029.022-.049.093.007.073.019.095.03.1m3.412,2.518a1.882,1.882,0,0,0,.345-.171.977.977,0,0,0,.155-.127.748.748,0,0,0,.07-.079c.022-.024.034-.069-.01-.142-.086-.029-.112-.026-.133-.012a.479.479,0,0,1-.07.035c-.047.022-.1.041-.148.059-.1.035-.208.073-.318.1-.218.055-.448.084-.674.138s-.454.106-.686.152c-.117.022-.235.032-.352.048-.059.007-.116.017-.174.029l-.088.022c-.031.007-.057.027-.085.1.034.071.064.088.095.091l.091.01a1.687,1.687,0,0,0,.181,0l.361-.019a5.775,5.775,0,0,0,.727-.045,3.057,3.057,0,0,0,.713-.2m3.225.493-.079.012a.649.649,0,0,0-.15.045,1.555,1.555,0,0,0-.277.145,1.855,1.855,0,0,0-.453.417,2.755,2.755,0,0,0-.289.529c-.04.091-.088.179-.125.27a1.221,1.221,0,0,0-.045.142l-.013.074c0,.025,0,.056.064.1.076,0,.1-.01.115-.03l.042-.058c.026-.039.051-.08.073-.12a2.631,2.631,0,0,1,.142-.238c.108-.15.232-.285.348-.421s.23-.269.358-.388c.066-.056.132-.113.2-.164a1.259,1.259,0,0,1,.106-.083l.054-.04c.02-.012.034-.037.03-.125-.049-.07-.079-.076-.1-.071m13.1-4.238a.645.645,0,0,0-.1-.058,1.3,1.3,0,0,0-.219-.074,1.483,1.483,0,0,0-.445-.064,2.566,2.566,0,0,0-.441.059c-.073.012-.145.017-.218.029a.611.611,0,0,0-.106.029l-.052.022c-.017.007-.034.029-.042.1.029.069.047.086.064.09l.054.01a.8.8,0,0,0,.107.007c.069,0,.138,0,.208,0,.14.012.277.039.412.051s.27.007.4.016l.2.013c.032,0,.068,0,.1,0h.052c.017,0,.039-.012.086-.081.016-.081,0-.106-.013-.116Zm-7.5,3.544c-.029-.059-.062-.125-.091-.189-.058-.134-.1-.282-.166-.416s-.142-.272-.209-.413c-.034-.071-.057-.145-.086-.216a.757.757,0,0,0-.049-.106l-.032-.052c-.01-.017-.034-.029-.108-.029-.064.037-.077.062-.076.083v.061a.644.644,0,0,0,.019.12c.017.078.042.152.057.231a3.7,3.7,0,0,0,.113.47,1.781,1.781,0,0,0,.23.438,1.185,1.185,0,0,0,.166.2.618.618,0,0,0,.115.084.257.257,0,0,0,.069.034c.024.01.061.009.108-.059.013-.084.015-.108.007-.116a.122.122,0,0,1-.022-.041c-.015-.029-.029-.054-.044-.088m2.88-3.929.041-.01.078-.024a.444.444,0,0,1,.154-.037,1.03,1.03,0,0,1,.307.054l.074.02a.715.715,0,0,0,.076.022c.054.01.106.032.16.047s.1.047.162.064a.66.66,0,0,0,.088.032l.046.012c.015.007.039,0,.1-.054.037-.074.036-.1.025-.112l-.03-.044c-.02-.027-.042-.056-.066-.081a1.578,1.578,0,0,0-.162-.13.923.923,0,0,0-.4-.169.912.912,0,0,0-.446.054,1.2,1.2,0,0,0-.2.086.44.44,0,0,0-.088.071c-.012.013-.024.029-.035.044s-.015.044.022.106c.061.042.081.051.1.047m-9.064,2.868a1.042,1.042,0,0,0-.1.095l-.045.056c-.014.017-.022.047.008.116.064.042.091.044.112.034l.061-.025a1.225,1.225,0,0,0,.113-.061,2.372,2.372,0,0,1,.225-.123c.157-.069.321-.118.478-.174s.311-.121.47-.17l.12-.035c.04-.01.081-.02.122-.034l.123-.037.062-.022c.022-.005.042-.026.063-.108-.026-.083-.049-.1-.073-.1l-.069-.014c-.047-.008-.049-.106-.1-.106-.095,0-.206-.077-.3-.064s-.206.09-.3.108-.186.174-.27.214a2.631,2.631,0,0,0-.477.292c-.073.056-.152.1-.225.16m-.758-3.291c.032.066.072.128.109.195a1.545,1.545,0,0,0,.267.375,1,1,0,0,0,.417.233.81.81,0,0,0,.238.042.413.413,0,0,0,.12-.009l.059-.013c.02,0,.041-.02.058-.1-.017-.084-.03-.1-.047-.11l-.044-.02a.621.621,0,0,1-.088-.041c-.027-.013-.056-.022-.083-.035l-.08-.041c-.1-.061-.189-.14-.289-.209a2.565,2.565,0,0,1-.294-.243,1.231,1.231,0,0,1-.122-.157c-.019-.026-.041-.052-.062-.078l-.037-.035c-.012-.013-.035-.019-.108-.005-.059.044-.069.071-.066.09l.012.058a.558.558,0,0,0,.039.1m10.435-1.045h.066a.75.75,0,0,0,.128-.013c.083-.015.165-.037.25-.052a3.126,3.126,0,0,0,.508-.115,1.538,1.538,0,0,0,.47-.263.969.969,0,0,0,.206-.208.478.478,0,0,0,.069-.144.335.335,0,0,0,.017-.083c.005-.025-.008-.062-.086-.093-.086.01-.1.015-.113.029a.2.2,0,0,1-.034.032.5.5,0,0,1-.074.059,1.375,1.375,0,0,1-.179.113c-.132.07-.282.115-.424.186s-.289.144-.441.208c-.076.032-.155.054-.233.079-.039.013-.076.029-.115.046l-.057.03c-.019.008-.034.03-.039.106.034.067.059.081.081.081m-15.507,5.773-.058-.019-.113-.032c-.074-.022-.148-.032-.223-.052-.149-.034-.289-.088-.436-.117s-.3-.059-.444-.1a1.972,1.972,0,0,1-.213-.086,1.133,1.133,0,0,0-.106-.042l-.057-.015c-.019-.007-.044,0-.1.047-.025.071-.017.1,0,.115a.4.4,0,0,0,.044.046.616.616,0,0,0,.1.077c.071.044.145.081.218.123a2.221,2.221,0,0,0,.451.223,1.71,1.71,0,0,0,.5.083,1.759,1.759,0,0,0,.252,0,1.115,1.115,0,0,0,.125-.02l.062-.017c.02,0,.041-.022.061-.1-.02-.081-.039-.1-.057-.106m24.243-2.035a.231.231,0,0,0-.1-.044.843.843,0,0,0-.134-.219,9.283,9.283,0,0,0-1.5-1.144c-.352.339.038.848.077,1.372a5.093,5.093,0,0,1-.706-.208c-.128-.051-.252-.112-.375-.174-.061-.03-.123-.061-.185-.09l-.1-.041c-.032-.015-.069-.019-.14.022a.138.138,0,0,0,.035.14l.083.071a1.879,1.879,0,0,0,.179.124c.122.074.25.144.377.211a3.914,3.914,0,0,0,.771.338c-.3.6-1.776.328-2.786.464-.681.091-.809.362-.731.882-.08-.051-.157-.1-.235-.155s-.134-.108-.2-.162c-.034-.027-.069-.052-.1-.076l-.058-.034c-.019-.012-.047-.013-.113.022-.037.066-.035.095-.024.115l.037.057a.9.9,0,0,0,.083.105c.061.064.127.123.186.191a3.513,3.513,0,0,0,.381.38,1.13,1.13,0,0,0,.171.123c.044.174.095.363.145.573.128.525-.333.8-1.008.928-.044-.035-.088-.073-.132-.106s-.091-.09-.138-.134-.088-.093-.134-.138a4.443,4.443,0,0,1-.478-.618c-.142-.221-.275-.449-.4-.681s-.247-.463-.36-.691a1.194,1.194,0,0,0-.074-.167,1.684,1.684,0,0,0-.1-.159,2.7,2.7,0,0,0-.232-.282,3.159,3.159,0,0,0-.552-.448,3.5,3.5,0,0,0-.617-.324c-.106-.044-.216-.078-.324-.115l-.167-.044a.221.221,0,0,0-.193.039.234.234,0,0,0,.123.156l.149.071.289.155c.093.056.189.1.279.166l.135.086.13.093a2.913,2.913,0,0,1,.464.426,1.981,1.981,0,0,1,.181.245c.027.042.052.084.076.127s.045.095.054.116l.01.027,0,0a7.9,7.9,0,0,0,.411.709c.147.228.306.451.473.667a6.638,6.638,0,0,0,.536.625,2.048,2.048,0,0,0,.284.243,11.315,11.315,0,0,1-2.617-.071c-.059-.1-.118-.2-.179-.3-.226-.362-.456-.72-.716-1.056s-.532-.66-.8-.985l-.4-.5c-.066-.083-.137-.162-.208-.24l-.11-.115a.206.206,0,0,0-.174-.066.2.2,0,0,0,.022.184l.084.135c.057.088.118.176.181.26.125.171.252.34.373.512.238.348.47.7.711,1.046s.5.676.745,1.017l.014.017c-.97-.233-.779-.755-2-.267a7.6,7.6,0,0,1-2,.467,5.949,5.949,0,0,1-.186-.715,6.835,6.835,0,0,1-.127-1.193,5.689,5.689,0,0,1,.032-.606l.025-.3.01-.152a.206.206,0,0,0-.064-.169.194.194,0,0,0-.127.133l-.042.152c-.024.1-.046.2-.061.309-.029.208-.049.416-.064.627a5.317,5.317,0,0,0,.023,1.27,3.154,3.154,0,0,0,.176.678,3.9,3.9,0,0,1-1.71-.216,1.662,1.662,0,0,0-.591-.134,4.33,4.33,0,0,0,.318-.336,3.132,3.132,0,0,0,.595-1.024,2.21,2.21,0,0,0,.128-.588,1.511,1.511,0,0,0-.014-.3,1.019,1.019,0,0,0-.029-.147.178.178,0,0,0-.117-.128.2.2,0,0,0-.076.152.925.925,0,0,1,0,.135c0,.09-.014.178-.02.264a1.752,1.752,0,0,1-.138.507,3.374,3.374,0,0,1-.627.865l-.584.621a20.429,20.429,0,0,0-2.272.518c-1.01.232-2.336-.549-3.9-.664a3.441,3.441,0,0,0-1.223.091,6.46,6.46,0,0,1,1.627.524,2.381,2.381,0,0,0,1.544.745c.6,0,2.446-.4,2.559.2s1.912.194,2.816.155c.834-.034,1.922.088,2.681.067a.752.752,0,0,0,.078.048.178.178,0,0,0,.187.008.268.268,0,0,0-.007-.079c.686-.115.847-.575.919-.429a3.225,3.225,0,0,0,.715.63c.3.225,3.307-.912,4.061-.573s4.173-.931,4.774-.931,1.017-.568.829-.944.456-.843.456-.843.578-.887.464-1.15c-.083-.2.267-.432.255-.787l.012-.009c.03-.024.054-.059.039-.145m-21.333,2.549a5.2,5.2,0,0,0-.493.405,2.85,2.85,0,0,0-.22.231c-.034.041-.066.083-.1.125a.2.2,0,0,0-.032.182.208.208,0,0,0,.174-.051l.349-.294a4.193,4.193,0,0,1,.483-.36,2.444,2.444,0,0,1,1.078-.377,3.357,3.357,0,0,0,1.26-.3,2.166,2.166,0,0,0,.564-.348,1.3,1.3,0,0,0,.23-.257,1.109,1.109,0,0,0,.079-.16.158.158,0,0,0-.041-.192.252.252,0,0,0-.147.1.834.834,0,0,1-.085.1,1.544,1.544,0,0,1-.218.172,2.454,2.454,0,0,1-.517.257,3.489,3.489,0,0,1-.567.152c-.2.032-.384.054-.592.076a2.506,2.506,0,0,0-1.208.536m-3.748-1.992a2.4,2.4,0,0,0,.277.189,3.014,3.014,0,0,0,.615.265,3.2,3.2,0,0,0,1.331.142c.11-.017.223-.029.329-.049s.211-.044.316-.069c.211-.051.421-.105.628-.171s.416-.123.62-.2a2.592,2.592,0,0,0,.3-.14c.048-.027.095-.058.142-.088a.192.192,0,0,0,.09-.169.235.235,0,0,0-.182,0c-.048.02-.095.037-.144.054-.1.035-.2.068-.294.1a5.241,5.241,0,0,1-.6.167c-.206.042-.414.074-.621.1s-.417.054-.617.069a4.03,4.03,0,0,1-1.2-.084,3.9,3.9,0,0,1-.576-.191c-.093-.042-.188-.081-.279-.128-.045-.023-.091-.047-.135-.073a.207.207,0,0,0-.186-.015.18.18,0,0,0,.062.184c.041.037.083.073.127.108m15.243-1.858a1.485,1.485,0,0,0,.255.323,2.781,2.781,0,0,0,.657.461,4.486,4.486,0,0,0,.726.3,4.809,4.809,0,0,0,.767.17l.019,0h.01a4.236,4.236,0,0,1,.544.026,3.449,3.449,0,0,1,.541.1,2.952,2.952,0,0,1,.505.2c.078.044.16.083.237.133s.121.125.28.1c.017-.151-.079-.206-.15-.275a1.7,1.7,0,0,0-.242-.181,3.159,3.159,0,0,0-.546-.248,5,5,0,0,0-.573-.159,3.983,3.983,0,0,0-.6-.085l.029,0c-.231-.047-.473-.115-.706-.184a6.064,6.064,0,0,1-.686-.245,2.962,2.962,0,0,1-.611-.363,1.664,1.664,0,0,1-.252-.238,1.17,1.17,0,0,1-.106-.138.234.234,0,0,0-.167-.127.194.194,0,0,0-.024.223,1.287,1.287,0,0,0,.089.187m-3.568,1.1.083.01a1.116,1.116,0,0,0,.166,0c.11-.009.218-.027.326-.039a2.8,2.8,0,0,0,.657-.137,1.829,1.829,0,0,0,.588-.358,1.369,1.369,0,0,0,.232-.263.708.708,0,0,0,.086-.155l.03-.083c.012-.025.012-.061-.047-.12-.088-.017-.117-.005-.132.013l-.054.052a.957.957,0,0,1-.108.1,2.331,2.331,0,0,1-.224.181,4.822,4.822,0,0,1-.519.265,4.91,4.91,0,0,1-.566.221,2.346,2.346,0,0,1-.3.066c-.051.01-.1.02-.152.034l-.076.022c-.025.007-.049.027-.074.1.031.071.059.088.086.091m-9.694-1.434a1.75,1.75,0,0,0,.181.155,3.27,3.27,0,0,0,.407.248,2.211,2.211,0,0,0,.934.281,2.263,2.263,0,0,0,.242,0c.079,0,.157-.012.235-.022.155-.02.31-.051.463-.086s.3-.074.439-.112a1.464,1.464,0,0,1,.2-.041.567.567,0,0,1,.094,0c.034,0,.066,0,.134-.068-.005-.088-.042-.123-.084-.135a.649.649,0,0,0-.128-.037,1.029,1.029,0,0,0-.259-.012c-.162.013-.307.042-.454.061s-.291.03-.435.037l-.22.01-.11.006h-.1a2.247,2.247,0,0,1-.823-.144,2.342,2.342,0,0,1-.382-.2l-.185-.116c-.031-.019-.063-.037-.093-.058a.155.155,0,0,0-.147-.005.138.138,0,0,0,.019.15c.025.029.052.059.079.088m16.009-1.461c.176-.059.353-.112.534-.16a4.384,4.384,0,0,1,.554-.123,2.361,2.361,0,0,1,.3-.02c.051,0,.106.01.159.013s.091.015.139.022c.356.056.706.14,1.059.2.177.032.353.057.528.084.086.012.174.026.259.034.042,0,.088.01.127.009a.112.112,0,0,1,.063.013.393.393,0,0,1,.083.061.188.188,0,0,1-.047.1.174.174,0,0,1-.071.034c-.052.013-.1.019-.147.027a2.678,2.678,0,0,1-.285.02,5.511,5.511,0,0,1-.556-.032,8.313,8.313,0,0,1-1.088-.16c-.044-.01-.095-.022-.132-.029a1.08,1.08,0,0,0-.112-.017,1.912,1.912,0,0,0-.246-.009,3.99,3.99,0,0,0-.518.054c-.176.03-.348.078-.52.125-.088.024-.174.046-.262.066l-.131.029a.1.1,0,1,1-.066-.181l.125-.061c.085-.037.171-.073.257-.1" transform="translate(-341.441 -132.118)" fill="#fff"/></g></g><g clip-path="url(#a)"><path d="M337.754,63.344s-.181.144-.509.378c-.552.1-.708.27-.528.365-.473.314-1.09.7-1.813,1.093l0,0c.012-.025.012-.061-.047-.12-.088-.017-.117-.005-.132.013l-.054.052a.959.959,0,0,1-.108.1,2.3,2.3,0,0,1-.225.181,4.823,4.823,0,0,1-.518.265,4.908,4.908,0,0,1-.566.221,2.352,2.352,0,0,1-.3.066c-.051.01-.1.02-.152.034l-.076.022c-.025.007-.049.027-.074.1a.238.238,0,0,0,.037.063c-1,.078-2.209.228-3.161.314-.02-.058-.042-.074-.062-.076L329.4,66.4a.833.833,0,0,0-.142-.013,1.56,1.56,0,0,0-.281.02c-.095.012-.186.032-.279.051a1.471,1.471,0,0,0-.266.095l0,0c-.046,0-.088,0-.128,0l-.319-.015c-.108-.066-.213-.134-.3-.192a.264.264,0,0,0-.4.142c-.344-.032-.635-.071-.878-.113l-.008-.041s.669-1.16,3.762-2.946c-.62-1.181-2.223-4.576-4.027-8.451l-.09.042-.106-.179-.013.007a.077.077,0,0,1-.1-.041.076.076,0,0,1,.034-.1h0a39.394,39.394,0,0,1-2.346-4.556.075.075,0,0,1-.069-.045.071.071,0,0,1,.023-.088,2.479,2.479,0,0,1-.071-.265l.26-.122C321.188,44.253,319,39.456,319,39.456L317.519,36.4l-.132.064-1.27-2.5a.09.09,0,0,1-.052-.039.093.093,0,0,1-.005-.074l-.549-1.079a.105.105,0,0,1-.032-.046l0-.023-.2-.4.218-.095c-2.909-6.012-6.732-13.917-7.789-16.12-.152.088-.255.137-.277.12a.485.485,0,0,1-.037-.051c-.02.007-.04.013-.061.019a.091.091,0,0,1-.113-.066.093.093,0,0,1,.042-.1h0l.023-.013c-.671-1.069-3.409-5.77-3.473-6.037-.071-.3,1.7-1.846,1.7-1.846s1.2-.286,1.473.1c.252.356,2.593,5.483,2.943,6.253l0,0a.074.074,0,0,1,.105-.009.076.076,0,0,1,.013.1,2.5,2.5,0,0,1-.556.518c2.344,4.785,5.488,11.181,8.019,16.262l.378-.163,1.959,4.076-.33.162c2.059,4.259,4.294,9.137,6.15,13.247l.41-.189a50.373,50.373,0,0,1,2.373,5.365l-.378.179c.9,2,1.505,3.358,1.661,3.661.488.951,1.843,4.013,2.194,4.979,1.318-.163,4.478-.5,5.168-.054.878.571.659.747.659.747" transform="translate(-172.431 -4.545)" fill="#fff"/><path d="M331.174,58.531l-.2-.409a4.465,4.465,0,0,0-.477-1.39,3.369,3.369,0,0,0-.338-.311l0,0-1.143-2.39-.178.086-1.579.782a.36.36,0,0,0-.317.157h0l-.261.128,2.245,4.17.148.275c.041.009.082.015.12.024a2.2,2.2,0,0,0,1-.037,1.952,1.952,0,0,0,1.1-.824ZM307.16,7.7l-.007.022-.017.029c-.011.017-.022.029-.034.044s-.045.046-.069.066c-.048.04-.1.074-.144.108-.1.066-.2.126-.3.182-.2.112-.405.221-.612.32s-.417.189-.63.272a4.72,4.72,0,0,1-.649.223.092.092,0,0,1-.111-.069.1.1,0,0,1,.044-.1,5.68,5.68,0,0,1,.613-.3c.208-.095.418-.179.625-.269s.423-.166.626-.26c.1-.048.2-.1.3-.15a1.533,1.533,0,0,0,.135-.086.482.482,0,0,0,.059-.048l.02-.022.006-.006a.214.214,0,0,0,0,.027.074.074,0,0,1,.059-.088.075.075,0,0,1,.088.058.1.1,0,0,1,0,.047m-3.115.426a.075.075,0,0,1,0-.15h.007a2.106,2.106,0,0,0,.678-.191c.223-.093.438-.21.654-.321l.652-.34a5.549,5.549,0,0,1,.669-.317.093.093,0,0,1,.086.162v0a6.2,6.2,0,0,1-.629.387c-.214.125-.437.235-.661.345s-.461.193-.7.275a2.269,2.269,0,0,1-.753.149m-.355-.7a.092.092,0,0,1-.085-.162,4.874,4.874,0,0,1,.708-.389c.238-.118.483-.226.721-.341s.483-.216.714-.341a2.477,2.477,0,0,0,.632-.432l.007-.006a.076.076,0,0,1,.106,0,.074.074,0,0,1,0,.1,2.677,2.677,0,0,1-.647.518c-.232.14-.463.279-.7.4s-.481.237-.726.343-.485.22-.73.309Zm-.515-.762a.077.077,0,0,1,.026-.1l.706-.446c.236-.145.466-.3.7-.446s.477-.289.72-.424a7.874,7.874,0,0,1,.739-.387.1.1,0,0,1,.122.049.091.091,0,0,1-.029.11,7.478,7.478,0,0,1-.7.458c-.237.145-.48.282-.719.42s-.492.264-.733.4l-.733.4a.075.075,0,0,1-.1-.03m.455-4.355c.323-.071.658.231.751.674a.752.752,0,0,1-.417.934c-.323.071-.658-.231-.751-.674a.748.748,0,0,1,.417-.934m3.053,3.28c-.565-1.254-1.067-2.57-1.7-3.786-.7-1.333-1.323-1.09-2.47-.466-2.207,1.2,1.306,6.752,2.073,8.228a12.214,12.214,0,0,0,1.491,2.414.12.12,0,0,1,.039-.044h0c.224-.133.462-.24.7-.355s.468-.228.7-.348.463-.233.683-.368a2.465,2.465,0,0,0,.591-.47l0,0a.073.073,0,0,1,.1-.008.076.076,0,0,1,.013.1,2.594,2.594,0,0,1-.6.55,7.807,7.807,0,0,1-.67.431c-.233.125-.468.249-.71.355a4.861,4.861,0,0,1-.719.277.754.754,0,0,0,.149.1,1.341,1.341,0,0,0,.326.066,2.053,2.053,0,0,0,1.794-.833.324.324,0,0,1,.061-.047c.834-.627.406-.814-.078-1.88q-.892-1.956-1.773-3.914M316.656,27.4a.073.073,0,0,1,.1.032.075.075,0,0,1-.025.1c-.184.118-.37.224-.556.331s-.37.218-.559.32-.378.2-.573.287a4.144,4.144,0,0,1-.593.248.094.094,0,0,1-.116-.063.092.092,0,0,1,.036-.1,4.473,4.473,0,0,1,.556-.321c.187-.1.381-.191.572-.287s.39-.173.583-.265.388-.181.573-.277Zm.241,1.363a.078.078,0,0,1-.027.1c-.149.1-.3.188-.455.277s-.3.179-.457.262-.309.164-.465.24c-.076.039-.15.081-.226.12s-.151.081-.2.112l-.02.012a.091.091,0,0,1-.125-.03.1.1,0,0,1,0-.1.764.764,0,0,1,.214-.206c.077-.054.154-.1.231-.144.154-.091.315-.166.471-.243s.324-.137.483-.209.32-.144.473-.221a.076.076,0,0,1,.1.03m.61.917a.075.075,0,0,1,.1.044.075.075,0,0,1-.037.093l0,0c-.157.077-.314.17-.469.263s-.307.2-.463.291-.312.188-.473.272a3.185,3.185,0,0,1-.49.243.093.093,0,0,1-.12-.055.094.094,0,0,1,.026-.1,2.975,2.975,0,0,1,.451-.314c.155-.1.315-.184.476-.274s.331-.16.5-.242.333-.155.51-.221m.7.928h0a.093.093,0,0,1,.125.041.1.1,0,0,1-.014.1,3.225,3.225,0,0,1-.448.384c-.154.122-.316.231-.478.341s-.338.2-.511.3c-.086.047-.173.093-.267.135-.045.02-.091.042-.141.059-.026.009-.048.019-.077.026l-.09.015a.073.073,0,0,1-.035-.142l.027-.009.053-.017a.526.526,0,0,0,.06-.025,1.022,1.022,0,0,0,.122-.066c.081-.045.162-.1.241-.152.159-.106.311-.228.466-.341s.313-.228.473-.336a4.044,4.044,0,0,1,.49-.316m-2.4-4.475-1.489.743c-.252-.027-.4.059-.463.233l-.3.15c.173.736,2.378,5.542,2.811,5.542a1.6,1.6,0,0,1,.222-.049,3.1,3.1,0,0,0,2-.988h0c.275-.154.461-.262.461-.262-.82-1.689-2.638-5.672-2.638-5.672Zm10.162,24.086c-.2.09-.4.167-.6.255l-.6.257a.076.076,0,0,1-.066-.137l.573-.306c.191-.1.378-.21.571-.307s.387-.194.584-.282a4.589,4.589,0,0,1,.6-.245.093.093,0,0,1,.114.064.089.089,0,0,1-.035.1,4.557,4.557,0,0,1-.565.317c-.193.1-.389.189-.585.282m-1.439-.473a.075.075,0,0,1-.1-.009,6.025,6.025,0,0,1-.576-.755,8.745,8.745,0,0,1-.471-.822c-.134-.285-.261-.574-.367-.872a5.406,5.406,0,0,1-.261-.91.092.092,0,0,1,.175-.051l0,0c.119.284.22.578.333.865s.23.573.357.853.258.559.408.828a6.166,6.166,0,0,0,.514.764h0a.077.077,0,0,1-.012.106m-2.231-3.754a.073.073,0,0,1,.033-.1l.632-.333c.211-.11.418-.228.63-.335s.426-.213.643-.309a5.313,5.313,0,0,1,.661-.272.093.093,0,0,1,.079.166,5.428,5.428,0,0,1-.624.344c-.213.11-.429.206-.644.309s-.439.186-.657.282l-.655.284a.075.075,0,0,1-.1-.041m3.034,3.027a.074.074,0,0,1-.094-.037l-.345-.7c-.114-.235-.235-.466-.347-.7s-.22-.473-.319-.714a6.551,6.551,0,0,1-.282-.73.093.093,0,0,1,.169-.076,6.365,6.365,0,0,1,.355.7c.113.237.214.476.32.714s.192.486.292.726l.294.726a.075.075,0,0,1-.042.1m.607-2.106c.136.3.258.611.373.922s.222.625.32.941a.073.073,0,0,1-.049.094.076.076,0,0,1-.093-.045c-.114-.307-.235-.613-.366-.912s-.277-.593-.421-.887-.3-.581-.451-.87-.324-.567-.475-.853v0a.092.092,0,0,1,.152-.1,5.559,5.559,0,0,1,.556.831c.168.287.316.585.457.885m1.53,2.992a27.356,27.356,0,0,0-2.6-5.758l-.438.23-1.461.765a.506.506,0,0,0-.511.269l-.315.166a15.585,15.585,0,0,0,2.725,5.542l.191-.09a4.635,4.635,0,0,0,1.951-.911l.455-.213" transform="translate(-171.287 -0.473)" fill="#fff"/><path d="M336.218,72.01a.516.516,0,0,0,.464-.537c0-.267-.273-.427-.541-.427a.436.436,0,0,0-.446.466.528.528,0,0,0,.522.5m-.867-.51a.9.9,0,0,0,.887.845.874.874,0,0,0,.789-.909c0-.454-.464-.725-.919-.725a.74.74,0,0,0-.757.789m-.476,0a1.3,1.3,0,0,1,1.3-1.3,1.252,1.252,0,0,1,.409.067,1.3,1.3,0,1,1-1.706,1.231m-1.26-7.115c-.049-.108-.1-.221-.15-.334-.013-.029-.026-.059-.039-.088l-1.951.91c.672,1.444,1.316,2.818,1.889,4.031l.317-.157c-.3-.718-.691-1.676-.97-2.485a1.381,1.381,0,0,1,.9-1.877M314.991,25.315c-.015-.029-.029-.058-.044-.088l-.061.047a3.94,3.94,0,0,1-1.794.833c.044.093.093.2.145.3.019.039.039.08.058.12.042.086.085.177.13.27l.137.282c.025.052.049.1.076.157s.048.1.073.152c.052.108.1.219.16.334.026.054.052.108.08.164.224.466.473.979.74,1.534.032.066.066.133.1.2s.07.147.107.219.066.139.1.21l.326.674c.035.073.071.145.106.22s.076.159.115.24l.224.463c.115.24.233.485.353.732.039.079.077.159.115.238.081.167.162.336.245.507.038.081.077.162.118.243q.124.258.25.517c.039.083.08.166.12.248s.086.177.128.267c.124.257.249.514.374.774l.131.27c.167.348.338.7.507,1.049.427.885.86,1.777,1.284,2.656l.123.253c.086.177.171.355.257.53.041.083.079.167.12.25q.127.263.253.522c.041.083.08.165.118.246v0l.463-.233c-2.421-5.2-5.869-12.61-6.23-13.473a1.833,1.833,0,0,1,.493-1.934m10.156,20.608,0,0c-.051-.1-.1-.206-.15-.309a16.818,16.818,0,0,1-2,.988c.037.08.076.159.113.237.027.052.052.106.077.159l.492,1.015c.019.041.039.08.058.118l.532,1.1.02.042c0,.01.01.022.015.035.037.08.1.225.195.426.022.045.044.094.067.147.073.157.155.341.252.547.039.088.081.181.125.277.017.035.034.073.051.11.037.081.076.165.117.252.059.133.123.272.189.416.012.027.026.054.037.081l.2.448c.019.039.037.078.054.117.076.167.155.338.237.515l.035.078.108.237.013.029c.045.1.095.2.142.309l.009.02c.2.432.409.892.63,1.37.013.029.025.059.038.088.63,1.37,1.334,2.9,2.066,4.485l.512-.269c-1.21-2.362-4.181-8.255-4.763-10.348-.522-1.878.113-2.509.525-2.716m17.9,27.135,0,.022a.078.078,0,0,1-.02.037s-.184.145-.512.38l-.024,0a1.111,1.111,0,0,0-.214.053,1.2,1.2,0,0,0-.2.086.439.439,0,0,0-.088.071c-.012.013-.024.029-.035.044s-.015.044.022.106l.008.005c-.473.314-1.084.7-1.8,1.086v0c.012-.026.012-.061-.047-.12-.088-.017-.117-.005-.132.013l-.054.052a1,1,0,0,1-.108.1,2.3,2.3,0,0,1-.224.181,4.824,4.824,0,0,1-.518.265,4.991,4.991,0,0,1-.566.221,2.361,2.361,0,0,1-.3.066c-.051.01-.1.02-.152.034l-.076.022c-.025.006-.049.027-.074.1.007.015.014.027.02.039l.017.024h0c-.631.049-1.344.127-2.025.2l-.367.038-.019,0-.375.039h-.01c-.125.013-.245.024-.363.035a.146.146,0,0,0-.035-.062,12.377,12.377,0,0,0,7.424-3.909c.034.012.066.023.1.037l.076.04.005,0c.6.392.688.6.682.688" transform="translate(-177.702 -14.318)" fill="#fff"/></g><g transform="translate(32.432 89.204)"><g clip-path="url(#o)"><path d="M82.8,242.972c-.662-1.437-2.034-6.049-2.573-7.513a57.424,57.424,0,0,1-3.149-11.6s4.674-3.118,5.508-3.017c1.488.177,2.958,2.32,2.958,2.32,1.794.392,2.676,3.218,2.676,3.218,1.613.62,2.385,2.225,2.713,3.993.23,1.245,3.14,2.449,9.042,5.779a25.52,25.52,0,0,1,7.326,6.535c2.214,3.2,2.309,5.855,2.012,6.167-.514.537-11.382,9.821-12.833,9.507S86.65,251.313,82.8,242.972M81.052,215.34a18.166,18.166,0,0,0-3.246-.117c.252-4.949,2.763-3.949,3.586-2.971s1.408.49,1.952,1.753a2.451,2.451,0,0,0,1.919,1.385c1.872,2.389,2.985.781,2.527,1.992s-6.389-1.88-6.739-2.042m-1.5-7.465,2-1.458,1.6,2.151-1.816,1.664Zm1.475,12.579-1.52-1.978L75.37,221.7l1.483,2.01a13.952,13.952,0,0,1,4.172-3.252" transform="translate(-75.21 -206.36)" fill="#fff"/></g></g><g transform="translate(27.675 90.562)"><g clip-path="url(#p)"><path d="M73.4,210.955c-.071-.1-.145-.189-.218-.284l-.064-.081c-.048-.061-.091-.125-.135-.189l-.064-.1a.178.178,0,0,1-.017-.164l0-.02.02,0a.173.173,0,0,1,.157.051l.083.081q.081.083.157.172l.073.086c.076.088.15.177.228.264.056.062.115.127.173.189.138.154.3.328.442.5.162.188.314.389.46.585l.166.218c.073.1.148.2.218.3.044.059.084.122.131.193l.061.1a.168.168,0,0,1,.013.171l0,.008-.012.01-.01,0a.166.166,0,0,1-.162-.048l-.083-.081c-.056-.054-.112-.11-.162-.166-.086-.091-.169-.186-.25-.277l-.186-.211c-.159-.181-.323-.367-.471-.561-.135-.172-.265-.353-.4-.534l-.152-.21M65.273,217.1c.022.048.042.1.063.145.01.027.02.054.032.081a1.956,1.956,0,0,1,.149.481,1.4,1.4,0,0,1-.026.517l-.032.125a.909.909,0,0,1-.048.122.5.5,0,0,1-.064.116l-.035.051-.019.02c-.026.02-.063.022-.128.007-.051-.049-.069-.083-.061-.117l.009-.057a.8.8,0,0,0,.017-.105c0-.023.007-.045.012-.076l.005-.031.01-.106c0-.118,0-.233-.009-.36l-.007-.088a3.205,3.205,0,0,0-.049-.414,1.685,1.685,0,0,0-.059-.2l-.006-.015c-.012-.037-.022-.073-.034-.112l-.014-.056c-.008-.035.007-.069.066-.125.061-.01.1,0,.125.03l.012.016a.414.414,0,0,1,.027.035.786.786,0,0,1,.064.109m1.139-.6q.038.1.071.2c.012.037.026.074.037.11a3.21,3.21,0,0,1,.174.652,2.161,2.161,0,0,1-.02.693c0,.025-.012.051-.017.077a1.367,1.367,0,0,1-.077.26l-.007.015a.76.76,0,0,1-.073.144l-.047.071a.088.088,0,0,1-.026.029.167.167,0,0,1-.13.02l-.008,0-.005-.005c-.058-.059-.074-.1-.064-.14l.015-.078a.552.552,0,0,0,.015-.089c0-.019.005-.039.008-.058.014-.073.02-.148.027-.221l.008-.071a3.969,3.969,0,0,0-.013-.405c0-.064-.006-.13-.01-.2-.014-.189-.031-.4-.066-.611a2.421,2.421,0,0,0-.066-.262l-.012-.039c-.014-.051-.027-.1-.037-.155l-.015-.078c-.009-.044.008-.084.064-.14l.01-.005h.007a.142.142,0,0,1,.14.057l.044.073a1.664,1.664,0,0,1,.073.154m.936-1.1a.683.683,0,0,1,.035.074c.03.071.059.145.084.224.042.132.078.27.115.409l.012.045a5.358,5.358,0,0,1,.169.938,3.915,3.915,0,0,1-.042.958l-.041.237c-.012.052-.027.106-.042.164l-.027.1c-.008.027-.015.054-.025.081l-.044.112-.044.108a.146.146,0,0,1-.051.071.226.226,0,0,1-.091.039l-.015-.005-.006-.006a.177.177,0,0,1-.054-.162l.019-.113.019-.11.025-.187c.007-.049.013-.1.022-.147l.019-.223a7.559,7.559,0,0,0,.005-.9,7.39,7.39,0,0,0-.078-.9l-.044-.223-.055-.22-.054-.223-.026-.112a.176.176,0,0,1,.034-.157l.012-.019.02,0a.178.178,0,0,1,.135.1Zm1.139,8a.26.26,0,0,1,.1-.213l.141-.132c.091-.083.182-.167.277-.246.149-.13.3-.259.456-.385l.346-.287c.26-.215.527-.438.8-.645l.135-.1c.284-.216.579-.429.868-.637.113-.083.226-.164.339-.245l.6-.451c.093-.069.2-.147.3-.217l.157-.1a.284.284,0,0,1,.223-.051l.03,0,0,.03a.286.286,0,0,1-.1.2l-.138.127c-.093.086-.195.169-.286.243l-.578.473c-.1.081-.2.166-.292.248l-.032.026c-.267.228-.544.463-.822.688-.112.091-.231.187-.365.291-.191.145-.385.289-.584.435l-.362.269c-.157.117-.319.237-.483.352-.1.073-.206.142-.311.213l-.155.1a.27.27,0,0,1-.232.044l-.025-.005Zm27.334,19.525c-.034-.027-.064-.056-.1-.083l.1.081ZM93.763,241.3l-.071-.052c.023.017.047.034.071.052m-1.87,12.4c-.595-.058-1.77-1.061-3.183-2.563q.816-.1,1.625-.253a14.285,14.285,0,0,0,2.13-.576,7.169,7.169,0,0,0,1.017-.456,4.649,4.649,0,0,0,.928-.652,3.37,3.37,0,0,0,.384-.431,2.477,2.477,0,0,0,.284-.514,2.217,2.217,0,0,0,.132-1.159l-.066-.537c-.008-.09-.025-.177-.029-.267l-.007-.267a4.022,4.022,0,0,1,0-.535l.017-.267a1.778,1.778,0,0,1,.029-.267,5.9,5.9,0,0,1,.657-2.023l.007-.01a14.441,14.441,0,0,1,1.976,2.02c3.525,4.585-3.672,8.973-5.9,8.757m-3.421-2.819c.078.085.156.169.234.25-.078-.081-.156-.166-.234-.25m5.1-9.712-.139.241a6.077,6.077,0,0,0-.713,2.1,8,8,0,0,0-.005,2.22,1.9,1.9,0,0,1-.13.986,2.271,2.271,0,0,1-.25.434,3.057,3.057,0,0,1-.348.375,5.813,5.813,0,0,1-1.824,1.037,14.084,14.084,0,0,1-2.069.6c-.324.071-.652.132-.98.188a77.8,77.8,0,0,1-5.463-7.267c.042-.013.083-.029.125-.044a7,7,0,0,0,1.017-.456,4.647,4.647,0,0,0,.925-.65,3.138,3.138,0,0,0,.385-.432,2.528,2.528,0,0,0,.284-.514,2.21,2.21,0,0,0,.132-1.158l-.066-.538c-.009-.088-.026-.177-.029-.265l-.006-.269a4.02,4.02,0,0,1,0-.535l.017-.267a1.761,1.761,0,0,1,.029-.266,5.715,5.715,0,0,1,.223-1,86.07,86.07,0,0,1,9,5.557l-.117-.084Zm-6.458,8.177,0,0Zm1.047.128a14.182,14.182,0,0,0,2.13-.576,7.068,7.068,0,0,0,1.017-.456,4.705,4.705,0,0,0,.928-.65,3.237,3.237,0,0,0,.383-.432,2.449,2.449,0,0,0,.284-.514,2.214,2.214,0,0,0,.131-1.158l-.066-.537c-.009-.088-.026-.178-.027-.267l-.009-.267a4.332,4.332,0,0,1,0-.535l.017-.267a2.039,2.039,0,0,1,.029-.267,5.942,5.942,0,0,1,.657-2.022l.125-.228c.7.514,1.363,1.032,1.961,1.544l-.086-.074-.031.054a6.074,6.074,0,0,0-.713,2.1,7.951,7.951,0,0,0-.005,2.22,1.9,1.9,0,0,1-.13.985,2.183,2.183,0,0,1-.252.435,2.907,2.907,0,0,1-.346.374,5.816,5.816,0,0,1-1.824,1.039,14.179,14.179,0,0,1-2.069.6c-.593.128-1.194.226-1.8.311-.434-.47-.89-.985-1.355-1.53.077.09.152.179.228.267.274-.042.544-.09.816-.142m.546,1.657,0,.007Zm-7.093-17.061s.439.22,1.176.6c-.013.074-.027.15-.039.225a1.938,1.938,0,0,0-.035.278l-.026.279a4.459,4.459,0,0,0-.015.559l0,.28c0,.093.015.184.024.277l.054.552a1.975,1.975,0,0,1,0,.5,1.694,1.694,0,0,1-.123.48,2.1,2.1,0,0,1-.245.434,3.162,3.162,0,0,1-.341.378,5.516,5.516,0,0,1-1.721,1.017,9.65,9.65,0,0,1-1.353-3.189c-.272-3.223,2.642-2.674,2.642-2.674m1.3.667-.123-.064.123.064M80.49,240.22c-.056-.1-.112-.191-.166-.285l.166.285m1.8-1.034a3.142,3.142,0,0,0,.39-.428,2.484,2.484,0,0,0,.289-.513,2.188,2.188,0,0,0,.14-1.165l-.062-.536c-.009-.09-.026-.177-.027-.267l-.007-.267a4.055,4.055,0,0,1,.005-.532l.019-.267a1.986,1.986,0,0,1,.029-.263c.005-.041.012-.08.019-.118.4.208.862.456,1.377.735a6.266,6.266,0,0,0-.259,1.081,8.015,8.015,0,0,0-.006,2.219,1.892,1.892,0,0,1-.128.987,2.116,2.116,0,0,1-.252.434,3.041,3.041,0,0,1-.346.375,5.834,5.834,0,0,1-1.824,1.037c-.066.026-.131.049-.2.073-.348-.539-.669-1.057-.959-1.551a5.774,5.774,0,0,0,1.8-1.034m-5.054-16.35-.4-.421c-.073-.076-.1-.174-.2-.13l-.36.2-.6-.689a.5.5,0,0,0-.681-.073l-4.666,3.456c-.169.127-.03.177.059.37l.541,1.021-.15.118c-.125.122-.042.24.049.388l.24.374a.341.341,0,0,0,.446.088,18.949,18.949,0,0,0,5.693-4.422.216.216,0,0,0,.03-.284" transform="translate(-64.554 -209.818)" fill="#fff"/></g></g><g transform="translate(24.215 90.13)"><g clip-path="url(#q)"><path d="M68.443,209.924c-.048-.061-.091-.123-.135-.188l-.062-.1a.144.144,0,0,1-.016-.137.15.15,0,0,1,.132.042l.083.081c.053.056.107.112.156.171.1.116.2.235.3.349.206.23.416.454.615.688s.382.482.568.728c.093.122.186.243.273.371.046.061.088.127.13.191l.063.1a.086.086,0,1,1-.127.1l-.085-.081c-.054-.054-.108-.108-.16-.166-.106-.112-.206-.228-.307-.343-.2-.233-.41-.459-.6-.7s-.366-.493-.549-.742c-.093-.123-.188-.243-.282-.365m-7.9,6.541c.035.073.063.15.095.224a1.915,1.915,0,0,1,.145.477,1.3,1.3,0,0,1-.024.5l-.032.123a1.022,1.022,0,0,1-.046.118.518.518,0,0,1-.061.112l-.037.051c-.01.019-.032.032-.1.02-.051-.045-.056-.069-.052-.088l.009-.056a.85.85,0,0,0,.017-.108c0-.037.012-.071.017-.108l.01-.106a4.06,4.06,0,0,0-.012-.429,3.686,3.686,0,0,0-.052-.441,1.612,1.612,0,0,0-.066-.214c-.012-.035-.022-.071-.032-.108l-.015-.056c0-.019,0-.042.041-.086.059-.01.083,0,.095.017s.027.032.038.049a.938.938,0,0,1,.061.106m1.137-.6c.041.1.073.209.11.313a3.329,3.329,0,0,1,.172.647,2.2,2.2,0,0,1-.02.681,1.747,1.747,0,0,1-.093.331.9.9,0,0,1-.078.155l-.047.073c-.014.024-.041.044-.118.034-.058-.057-.062-.088-.056-.113l.013-.074a1.411,1.411,0,0,0,.024-.15c.019-.1.026-.2.035-.3.009-.2-.015-.4-.022-.6s-.032-.41-.067-.617a2.376,2.376,0,0,0-.078-.3c-.013-.051-.025-.1-.037-.154l-.015-.077c0-.025,0-.056.051-.106.072,0,.1.017.113.04l.044.073a1.4,1.4,0,0,1,.069.149m.973-1.025a2.135,2.135,0,0,1,.083.221c.048.15.086.3.127.454a5.226,5.226,0,0,1,.169.932,3.881,3.881,0,0,1-.044.949l-.038.233c-.017.078-.041.156-.061.231-.01.039-.019.076-.032.113l-.044.112-.045.11a.128.128,0,0,1-.11.086.146.146,0,0,1-.048-.134l.019-.113.02-.112.013-.113c.012-.074.019-.15.032-.223l.02-.224a7.986,7.986,0,0,0,0-.9,7.769,7.769,0,0,0-.077-.9l-.046-.223-.054-.221-.056-.221-.025-.112a.156.156,0,0,1,.029-.133.146.146,0,0,1,.113.081c.017.037.035.073.051.108m1.25,7.725.137-.127c.093-.084.186-.169.28-.25.188-.164.38-.321.573-.481.383-.316.763-.639,1.162-.937s.8-.589,1.208-.882l.6-.449c.1-.074.2-.149.3-.218l.155-.1a.115.115,0,1,1,.11.138l-.138.127c-.093.084-.189.164-.284.243l-.579.471c-.382.323-.758.649-1.145.961s-.791.608-1.191.906c-.2.149-.4.3-.6.441-.1.073-.2.142-.309.211l-.157.1a.235.235,0,0,1-.206.039.242.242,0,0,1,.088-.191m2.513,3.345c.4-.36.819-.682,1.238-1.012s.843-.65,1.267-.973.86-.628,1.287-.946l1.287-.947a.086.086,0,0,1,.12.015.088.088,0,0,1-.013.125l-1.247,1c-.417.331-.826.672-1.245,1s-.84.656-1.267.973-.846.645-1.3.936a.108.108,0,0,1-.132-.17m-5.855-2.943a4.447,4.447,0,0,1,3.149-.186s-.152.071-.157.12c-.042.409.73,1.459,1.03,1.236.211-.155.414-.307.615-.459a15.21,15.21,0,0,0,4.09-3.188c.155-.12.317-.241.483-.366.313-.236-.436-1.3-.824-1.351-.1-.013-.32.245-.32.245a3.166,3.166,0,0,1-.716-1.486,2.207,2.207,0,0,1,.25-.9c.757-.335,1.254-2.348,1.934-3.424.567-.9,1.024-1.571,1.024-1.571s-.17-.206-.371-.448c.135-.235-.083-.1-.125-.152-.171-.2-.341-.41-.436-.525.221-.392-.135-.163-.135-.163l-.454-.547s.025-.128-.083-.1l-.6-.718s-8.775,5.144-11.356,7.341c-2.054,1.752-.228,7.855,3,6.645" transform="translate(-56.392 -208.738)" fill="#fff"/></g></g><g transform="translate(32.864 89.777)"><g clip-path="url(#r)"><path d="M88.828,229.5c.377.3.774.576,1.159.867.192.145.392.281.586.424l.291.216a.192.192,0,1,1-.1.147l-.309-.195c-.2-.13-.407-.26-.607-.4l-.591-.422-.3-.209-.292-.216c-.787-.566-1.551-1.167-2.3-1.791s-1.441-1.306-2.113-2.007c-.336-.353-.669-.708-.98-1.081-.16-.182-.309-.377-.46-.568-.073-.1-.148-.192-.219-.292a.649.649,0,0,1-.147-.346.727.727,0,0,1,.3.228c.078.091.16.179.24.269.162.179.326.355.492.53l.248.262.25.259c.166.176.339.343.509.513l.127.122.02-.042c.045-.081.1-.157.149-.235a4.025,4.025,0,0,1,.319-.454c.118-.144.25-.275.377-.412.062-.067.118-.142.179-.213a1.322,1.322,0,0,1,.1-.1l.054-.047c.019-.015.045-.024.113,0,.037.059.037.088.027.108l-.03.064c-.022.041-.046.081-.071.12-.052.076-.108.15-.157.23-.1.157-.191.321-.3.471a4.506,4.506,0,0,1-.353.429c-.062.069-.122.14-.189.2-.017.019-.035.036-.054.053.591.567,1.2,1.115,1.814,1.66.363.316.721.637,1.1.941l.031.026c-.016-.022-.017-.035-.014-.044l.012-.047c.01-.03.02-.061.032-.091.024-.058.054-.112.083-.167a1.869,1.869,0,0,1,.188-.317c.074-.1.166-.186.248-.279.042-.045.076-.1.115-.145a.412.412,0,0,1,.064-.067l.037-.03c.013-.01.037-.013.1.01.045.051.052.073.047.088l-.013.048a.742.742,0,0,1-.039.086c-.029.054-.064.1-.091.16-.056.112-.1.23-.166.334a1.773,1.773,0,0,1-.223.294,1.725,1.725,0,0,1-.125.14.777.777,0,0,1-.071.063l-.039.03c-.01.009-.029.01-.076-.005.15.127.3.255.456.378Zm-1.961,20.247q-.243-.327-.48-.659c-.178-.246-.35-.5-.522-.748-.147-.218-.294-.439-.438-.662a30.636,30.636,0,0,1-2.113-3.8c-.532-1.154-1.522-4.356-2.169-6.331-.159-.483-.3-.9-.4-1.182,0-.012-.009-.022-.012-.034-.073-.2-.145-.394-.215-.588-.025-.073-.051-.144-.076-.214-.048-.132-.095-.265-.141-.4-.029-.081-.055-.162-.084-.243l-.122-.353c-.027-.083-.056-.166-.084-.25-.037-.112-.074-.223-.112-.333-.027-.083-.054-.166-.081-.247-.035-.11-.071-.218-.1-.324-.027-.081-.052-.16-.078-.24-.034-.106-.067-.213-.1-.318-.026-.077-.049-.154-.073-.23-.032-.106-.064-.211-.1-.316-.022-.073-.045-.145-.066-.216-.034-.108-.064-.216-.1-.323-.019-.064-.039-.128-.058-.191-.035-.125-.071-.246-.106-.368-.012-.042-.025-.088-.037-.13-.047-.164-.093-.324-.137-.483l-.026-.1c-.035-.125-.069-.248-.1-.368-.013-.056-.029-.11-.042-.164-.027-.1-.052-.191-.076-.285-.017-.059-.031-.116-.046-.176-.022-.086-.044-.172-.066-.257-.015-.059-.03-.116-.044-.176-.02-.081-.04-.16-.061-.238l-.041-.17q-.028-.117-.056-.228c-.012-.054-.026-.108-.037-.162-.019-.074-.035-.147-.052-.218-.012-.051-.022-.1-.034-.152-.017-.071-.032-.142-.049-.211-.01-.048-.02-.095-.031-.141-.017-.073-.032-.144-.047-.214-.009-.039-.017-.077-.026-.115-.019-.091-.037-.179-.056-.266,0-.015,0-.03-.008-.045-.022-.1-.041-.2-.059-.291-.007-.03-.012-.059-.019-.088s-.017-.084-.024-.123a.326.326,0,0,0,.061-.034c2.013-1.424,3.919-2.956,5.693-4.422a.241.241,0,0,0,.027-.029l.023.01c-2.019,2.23-4.1,5.128-3.73,6.563.583,2.285,4.585,12.816,5.424,14.047s5.193,8.47,9.113,11.534a30.3,30.3,0,0,0,4.221,3.073q.444-.259.875-.539.889-.572,1.743-1.2c.567-.422,1.135-.843,1.687-1.286,1.113-.871,2.2-1.785,3.255-2.728.525-.475,1.042-.961,1.554-1.451l.769-.735.382-.37a1.644,1.644,0,0,1,.432-.321,1.563,1.563,0,0,1-.306.444l-.365.388c-.245.26-.493.514-.747.764-.505.5-1.02.992-1.54,1.476s-1.042.968-1.574,1.439-1.079.929-1.632,1.38a33.863,33.863,0,0,1-3.487,2.473c-.235.145-.473.285-.713.422a3.451,3.451,0,0,0,1.1.3l0,0c-.231.164-.456.317-.671.463-.012.009-.024.016-.034.024l-.208.137c-.016.012-.032.022-.048.032l-.179.115-.059.039c-.034.022-.067.042-.1.064s-.059.035-.088.054-.085.052-.125.076-.056.035-.085.052-.069.042-.1.061l-.1.059-.068.037c-.042.025-.084.049-.127.071l-.055.032-.127.066-.041.022c-.037.017-.071.035-.106.052l-.034.015c-.041.02-.08.037-.118.054a.159.159,0,0,1-.035.016l-.11.047a.149.149,0,0,0-.027.01c-.037.014-.074.026-.108.037l-.012,0c-.032.01-.062.019-.093.026l-.017,0-.086.017h-.017a.6.6,0,0,1-.076.005h-.012c-.024,0-.047,0-.067-.006a1.463,1.463,0,0,1-.233-.081l-.027-.01a11.335,11.335,0,0,1-1.949-1.274c-.083-.064-.165-.13-.252-.2-.17-.135-.348-.277-.53-.427-.088-.074-.179-.149-.27-.227l-.227-.191c-.152-.13-.306-.265-.464-.4-.078-.069-.157-.14-.237-.213-.24-.214-.485-.441-.735-.675s-.5-.48-.76-.732c-.341-.338-.689-.692-1.039-1.061-.438-.461-.88-.944-1.319-1.449q-.529-.606-1.052-1.25c-.26-.321-.519-.65-.774-.985-.088-.115-.174-.23-.26-.345m-6.331-33.627h0c-.412-.015-.875-.017-1.272-.013a29.894,29.894,0,0,1,1.973-3.495.5.5,0,0,1,.046.023c-.441.983-1.032,2.571-.745,3.485m1.411-5.878a3.588,3.588,0,0,1,.352-.346c.125-.107.26-.2.392-.3.066-.051.125-.1.189-.157a.836.836,0,0,1,.1-.073l.052-.034c.019-.01.044-.013.1.015.022.056.017.081.005.1l-.037.051a1.187,1.187,0,0,1-.081.093c-.058.059-.12.113-.174.174-.112.123-.218.25-.336.365a3.793,3.793,0,0,1-.375.319c-.066.051-.128.1-.2.15-.022.015-.046.029-.068.042l-.133-.16c.013-.019.027-.037.042-.056.054-.062.112-.122.169-.181m-.567-.667a4.486,4.486,0,0,1,.39-.339c.137-.1.285-.2.427-.292.073-.047.14-.1.21-.152a1.158,1.158,0,0,1,.108-.071l.059-.031c.019-.012.046-.013.1.017.019.059.012.084,0,.1l-.042.051a1.088,1.088,0,0,1-.091.093c-.064.058-.131.112-.194.171-.123.122-.243.246-.373.358a4.359,4.359,0,0,1-.414.311c-.071.049-.14.1-.214.147l-.035.02-.142-.169c.01-.012.02-.024.03-.034.059-.062.125-.12.188-.179m-.7-.491a1.1,1.1,0,0,1,.093-.081c.064-.051.13-.1.193-.152.122-.108.241-.225.368-.328a4,4,0,0,1,.4-.287c.067-.044.135-.093.206-.135.035-.02.073-.041.11-.059l.058-.027c.019-.01.042-.012.1.026.023.064.017.088,0,.1l-.038.049c-.029.032-.056.064-.085.093-.057.061-.122.115-.182.171a3.634,3.634,0,0,1-.381.316c-.135.1-.281.177-.424.263-.071.042-.138.091-.209.135a.862.862,0,0,1-.112.059c-.019.008-.039.017-.058.023l-.095-.113.01-.012Zm-.226,10.858.012-.02-.015-.02c-1.77,1.347-2.885,2.274-4.172,3.25l.013.02.015,0a6.4,6.4,0,0,0,4.147-3.226" transform="translate(-76.156 -207.836)" fill="#fff"/></g></g><g transform="translate(34.161 102.671)"><g clip-path="url(#s)"><path d="M83.058,237.86c-.02-.037-.046-.068-.067-.1a.6.6,0,0,1-.027-.055l-.01-.032c0-.011,0-.029.04-.071.051-.027.069-.029.08-.023l.027.017a.331.331,0,0,1,.049.038.988.988,0,0,0,.086.09c.061.056.13.105.186.166a.951.951,0,0,1,.137.2.769.769,0,0,1,.059.108c.008.02.015.04.022.061l.008.034c.005.008,0,.027-.045.074-.056.03-.074.034-.083.027l-.029-.015-.056-.036c-.034-.025-.063-.056-.093-.083a.989.989,0,0,1-.166-.181,2.186,2.186,0,0,1-.118-.22m-3.67,3.091c-.046-.071-.078-.152-.117-.228-.019-.038-.044-.071-.066-.108a.219.219,0,0,1-.027-.058l-.008-.034c0-.01,0-.027.04-.071.052-.025.071-.025.08-.019l.029.017a.3.3,0,0,1,.049.042c.029.032.054.066.084.094a2.32,2.32,0,0,1,.186.176,1.129,1.129,0,0,1,.137.213,1.233,1.233,0,0,1,.058.115.368.368,0,0,1,.02.063l.008.034c.005.01,0,.027-.047.073-.056.03-.076.032-.083.026l-.03-.019a.6.6,0,0,1-.054-.037,1.211,1.211,0,0,1-.093-.088,1.033,1.033,0,0,1-.165-.191m.613-.781a.987.987,0,0,0-.064-.1.379.379,0,0,1-.026-.057l-.008-.032c0-.012,0-.029.042-.069s.069-.027.079-.02l.029.017a.286.286,0,0,1,.047.041c.027.029.052.063.083.092a2.389,2.389,0,0,1,.181.169,1.05,1.05,0,0,1,.132.208.953.953,0,0,1,.056.112.617.617,0,0,1,.02.061l.006.034c0,.008,0,.027-.045.074-.058.031-.076.032-.084.026l-.029-.017a.4.4,0,0,1-.052-.037.95.95,0,0,1-.091-.084,1.068,1.068,0,0,1-.162-.186c-.044-.069-.074-.149-.113-.223m.715-.557c-.02-.038-.048-.073-.071-.109a.383.383,0,0,1-.031-.059l-.012-.034c0-.01,0-.029.039-.073.051-.027.069-.029.08-.022l.03.017a.281.281,0,0,1,.052.044,1.206,1.206,0,0,0,.091.1,2.385,2.385,0,0,1,.2.189.923.923,0,0,1,.138.233.678.678,0,0,1,.054.131.435.435,0,0,1,.017.074l0,.041c0,.013-.006.035-.066.061-.064,0-.081,0-.086,0l-.024-.019c-.015-.013-.03-.027-.045-.042-.029-.03-.054-.062-.083-.095a1.378,1.378,0,0,1-.16-.2c-.045-.072-.08-.155-.122-.233m.775-.62c-.02-.038-.046-.074-.067-.113a.331.331,0,0,1-.029-.061l-.008-.034c0-.01,0-.028.042-.071.051-.023.069-.023.08-.017l.029.019a.317.317,0,0,1,.051.046c.029.032.054.067.086.1a2.559,2.559,0,0,1,.189.186,1.2,1.2,0,0,1,.14.223c.02.039.042.078.059.118.009.022.015.044.022.066l.008.035c0,.01,0,.027-.047.074-.058.029-.076.029-.086.022l-.029-.018a.565.565,0,0,1-.055-.043.741.741,0,0,1-.095-.093,1.058,1.058,0,0,1-.169-.2,2.5,2.5,0,0,1-.12-.238m.951-.382a1.165,1.165,0,0,0,.172.2c.032.03.061.064.1.093a.509.509,0,0,0,.056.039l.03.019c.009.007.027.007.085-.022.045-.048.051-.066.045-.076l-.008-.034a.652.652,0,0,0-.022-.066,1.323,1.323,0,0,0-.061-.118,1.168,1.168,0,0,0-.144-.221c-.056-.066-.127-.122-.191-.184a1.182,1.182,0,0,1-.088-.1.454.454,0,0,0-.051-.044l-.029-.019c-.01-.007-.029-.007-.081.019-.039.042-.044.061-.041.072l.01.032a.335.335,0,0,0,.027.061,1.185,1.185,0,0,1,.069.113c.042.078.076.162.123.235" transform="translate(-79.095 -237.509)" fill="#fff"/></g></g><g transform="translate(172.107 39.103)"><g clip-path="url(#t)"><path d="M400,94.983,398.791,95l1.079.24a5.486,5.486,0,0,1,4.285,5.093l.032.659.047-.241a5.49,5.49,0,0,1,5.363-4.458l1.151,0-1.093-.231a5.488,5.488,0,0,1-4.343-5.5l-.118.419a5.488,5.488,0,0,1-5.193,4" transform="translate(-398.448 -90.503)" fill="#fff"/></g></g><g transform="translate(177.729 47.319)"><g clip-path="url(#u)"><path d="M421.887,115.2l-.914-.192a4.6,4.6,0,0,1-3.64-4.6l-.1.352a4.6,4.6,0,0,1-4.351,3.353l-1.014.015.9.2a4.6,4.6,0,0,1,3.591,4.267l.027.552.039-.2a4.6,4.6,0,0,1,4.493-3.735Z" transform="translate(-411.493 -109.982)" fill="#fff"/></g></g><g clip-path="url(#a)"><path d="M195.75,261.244a18.315,18.315,0,0,1-4.5,1.791c.2-4.449-2-8.8-4.142-13.04-1.738-3.426-3.375-6.7-3.375-9.563a7.773,7.773,0,0,1,2.659-6.034,4.609,4.609,0,0,1,3.58-1.125,6.443,6.443,0,0,1,4.449,2.915,9.072,9.072,0,0,1,.562,7.312.373.373,0,0,0,.717.2,9.939,9.939,0,0,0-.615-7.926,7.231,7.231,0,0,0-4.96-3.223,9.478,9.478,0,0,0-1.687-.152,7.456,7.456,0,0,0-5.113,1.892,9.71,9.71,0,0,0-2.863,8.027c.2,2.966,1.84,5.933,3.58,9.1,1.993,3.733,4.09,7.568,3.784,11.4l-.1,1.024-1.687.306c-4.5.665-6.647,3.069-6.8,5.216a2.681,2.681,0,0,0,1.943,2.863h.052a9.552,9.552,0,0,0,2.556.358,6.6,6.6,0,0,0,3.683-1.022c1.942-1.329,3.221-3.834,3.68-7.466a.449.449,0,0,1,.052-.255,19.033,19.033,0,0,0,4.96-2,.4.4,0,0,0,.1-.51.355.355,0,0,0-.512-.1m-11.3,9.716a3.578,3.578,0,0,1-3.017.563,1.958,1.958,0,0,1-1.432-2.1c.1-1.84,2.045-3.936,6.137-4.551l1.483-.2c-.512,3.017-1.586,5.216-3.171,6.291" transform="translate(-101.722 -131.906)" fill="#fff"/><path d="M235.081,288.31a.35.35,0,0,0-.512-.1c-.051,0-4.039,2.505-7.772,1.637a13.051,13.051,0,0,0,.664-4.551c-.152-2.608-1.226-4.449-3.067-5.115a4.112,4.112,0,0,0-3.375.2c-2.147,1.125-3.988,4.04-5.113,8.029-.971,3.478.2,5.983,1.584,7.159a4.2,4.2,0,0,0,2.711.971,4.146,4.146,0,0,0,1.892-.46,9.618,9.618,0,0,0,4.449-5.471,11.382,11.382,0,0,0,1.892.2,11.75,11.75,0,0,0,2.2-.255,14.792,14.792,0,0,0,4.346-1.74.4.4,0,0,0,.1-.51M222.861,294.7a2.009,2.009,0,0,1-2.454.152c-1.125-.767-2.045-2.914-1.074-6.544a11.374,11.374,0,0,1,1.79-3.887,6.254,6.254,0,0,0,1.688,3.784,6.715,6.715,0,0,0,2.863,2.1.188.188,0,0,0,.154.051,10.3,10.3,0,0,1-2.966,4.348m3.221-5.062a.187.187,0,0,1-.154-.052,3.2,3.2,0,0,1-1.738-1.892,9.857,9.857,0,0,1,0-5.777.969.969,0,0,1,.358-.053,1.435,1.435,0,0,1,1.584.972,6.207,6.207,0,0,1,.563,2.506,11.634,11.634,0,0,1-.613,4.3" transform="translate(-122.339 -158.868)" fill="#fff"/><path d="M278.789,284.838a.415.415,0,0,0-.512.154,42.252,42.252,0,0,1-4.909,7.414.05.05,0,0,1-.051.051c-.255.2-1.075.819-1.586.613a1.188,1.188,0,0,1-.613-.613c-.868-2.045.512-8.233,3.632-16.209a1.3,1.3,0,0,0-.615-1.738l-.306-.2a1.648,1.648,0,0,0-2.3.664,44.548,44.548,0,0,0-2.147,5.574,43.936,43.936,0,0,1-5.625,9.409L263.7,290c0,.051-.051.051-.1.1a1.744,1.744,0,0,1-2.046.51c-.868-.409-1.072-3.988,2.149-11.709a1.9,1.9,0,0,0-.563-2.25l-.358-.255a1.2,1.2,0,0,0-1.074-.255,1.267,1.267,0,0,0-.921.664c-2.76,4.858-4.039,11.1-3.017,14.267a2.625,2.625,0,0,0,1.433,1.789,2.286,2.286,0,0,0,.971.257,2.986,2.986,0,0,0,1.125-.257,7.8,7.8,0,0,0,2.762-2.147c.1-.1.2-.154.255-.255a35.586,35.586,0,0,0,4.091-6.24,27.18,27.18,0,0,0-.87,7.569c.1,1.534.717,3.272,2.149,3.579.1,0,.255.051.409.051,1.073,0,2.3-.818,3.733-2.4l.1-.1a45.814,45.814,0,0,0,5.011-7.569.364.364,0,0,0-.154-.51" transform="translate(-146.104 -155.55)" fill="#fff"/><path d="M327,286.277a62.566,62.566,0,0,0-9.306,5.931,7.872,7.872,0,0,0-1.329-2.454,2.892,2.892,0,0,0-2.608-1.073l5.267-9.052a1.348,1.348,0,0,1,.254-.306,1.688,1.688,0,0,0,.307-.971,1.4,1.4,0,0,0-.511-.921l-.716-.615a1.043,1.043,0,0,0-.768-.2,1.149,1.149,0,0,0-.714.411c-2.1,2.606-7.312,8.435-10.791,6.339a1.184,1.184,0,0,0-1.638.409l-.2.307a2.056,2.056,0,0,0-.306,1.534,2.084,2.084,0,0,0,.921,1.279,5.348,5.348,0,0,0,2.759.767c2.507,0,5.472-1.789,9-5.368l-3.938,6.8a.05.05,0,0,0-.051.051v.307h.051v.051a11.913,11.913,0,0,1,2.149,5.063,41.174,41.174,0,0,0-6.9,7.926c-3.119,4.909-3.937,9.2-3.324,11.3a4.1,4.1,0,0,0,3.478,3.017c.153,0,.306.051.51.051,1.586,0,4.6-.818,7.568-6.034a24.072,24.072,0,0,0,2.609-11.505,22.971,22.971,0,0,0-.82-6.341,62.591,62.591,0,0,1,9.409-6.034.352.352,0,0,0,.153-.51.4.4,0,0,0-.511-.154m-12.885,21.169c-1.176,3.171-3.068,5.37-5.267,6.137a3.177,3.177,0,0,1-2.658-.1c-.971-.664-.87-2.659-.768-3.375.768-3.63,3.426-9.05,9.614-14.675a24.874,24.874,0,0,1-.921,12.017" transform="translate(-172.487 -156.988)" fill="#fff"/><path d="M374.112,284.078a.384.384,0,0,0-.461.2,45.538,45.538,0,0,1-3.681,11.351c-.257.307-.921,1.074-1.637.666-.358-.2-.87-2.2-.2-7.211a51.718,51.718,0,0,1,3.325-12.681,2.322,2.322,0,0,0-.716-2.557l-.767-.714a1.521,1.521,0,0,0-1.024-.411,1.3,1.3,0,0,0-.868.512,29.262,29.262,0,0,0-2.1,5.574v-.1a3.876,3.876,0,0,0-1.943-2.608,4,4,0,0,0-2.863.1c-1.432.563-4.091,2.25-5.471,7.312-1.024,4.243-.307,6.546.358,7.772a3.787,3.787,0,0,0,2.3,1.637,2.119,2.119,0,0,0,.563.051c1.125,0,2.455-.666,3.683-2.351a.4.4,0,0,1,.2-.206c0-.051.051-.051.051-.1a15.42,15.42,0,0,0,1.637-3.068c-.206,2.965-.257,7.363,1.125,9.664a2.71,2.71,0,0,0,2.044,1.483h.206c1.635,0,3.118-2.25,4.7-6.853,1.125-3.426,1.84-6.954,1.892-7a.567.567,0,0,0-.358-.46m-8.591-3.221a30.756,30.756,0,0,0-.563,3.118,25.1,25.1,0,0,1-2.762,5.933c-.818,1.072-1.789,1.125-2.2.868-.461-.255-1.535-.868-.307-6.75,1.125-5.522,3.529-6.442,4.3-6.339a1.909,1.909,0,0,1,1.279,1.226,6.941,6.941,0,0,1,.255,1.944" transform="translate(-201.595 -154.79)" fill="#fff"/><path d="M456.473,261.244a18.315,18.315,0,0,1-4.5,1.791c.2-4.449-2-8.8-4.142-13.04-1.738-3.426-3.375-6.7-3.375-9.563a7.773,7.773,0,0,1,2.659-6.034,4.609,4.609,0,0,1,3.58-1.125,6.443,6.443,0,0,1,4.449,2.915,9.072,9.072,0,0,1,.562,7.312.364.364,0,0,0,.255.46.368.368,0,0,0,.461-.255,9.94,9.94,0,0,0-.615-7.926,7.231,7.231,0,0,0-4.96-3.223,9.478,9.478,0,0,0-1.687-.152,7.457,7.457,0,0,0-5.114,1.892,9.71,9.71,0,0,0-2.863,8.027c.2,2.966,1.84,5.933,3.58,9.1,1.993,3.733,4.09,7.568,3.784,11.4l-.1,1.024-1.687.306c-4.5.665-6.647,3.069-6.8,5.216a2.681,2.681,0,0,0,1.943,2.863h.052a9.553,9.553,0,0,0,2.556.358,6.6,6.6,0,0,0,3.683-1.022c1.943-1.329,3.221-3.834,3.68-7.466a.449.449,0,0,1,.052-.255,19.033,19.033,0,0,0,4.96-2,.4.4,0,0,0,.1-.51.355.355,0,0,0-.512-.1m-11.3,9.716a3.578,3.578,0,0,1-3.017.563,1.958,1.958,0,0,1-1.432-2.1c.1-1.84,2.045-3.936,6.137-4.551l1.483-.2c-.512,3.017-1.586,5.216-3.171,6.291" transform="translate(-249.7 -131.906)" fill="#fff"/><path d="M491.854,287.94a.406.406,0,0,0-.51.1c-4.3,5.726-6.9,8.027-9.1,8.846h-.051a2.11,2.11,0,0,1-2.3-.613c-1.125-1.279-1.177-3.937-.154-6.9,1.022-.2,5.113-1.125,6.954-4.55a4.672,4.672,0,0,0,.562-2.762,1.785,1.785,0,0,0-.1-.512,5.094,5.094,0,0,0-.306-.716,3.115,3.115,0,0,0-2.608-1.482c-2.353,0-5.728,2.352-8.233,8.794-1.483,3.887-.716,6.291.2,7.62a5,5,0,0,0,3.887,2.25,7.292,7.292,0,0,0,2.3-.409.05.05,0,0,0,.051-.052c2.659-.921,5.421-3.681,9.512-9.051a.409.409,0,0,0-.1-.562m-11.709.409c2.147-5.164,3.937-6.7,5.062-7.056a.961.961,0,0,1,.921.051l.306.409a3.549,3.549,0,0,1-.409,2.711c-1.483,2.709-4.6,3.733-5.983,4.038Z" transform="translate(-269.691 -158.55)" fill="#fff"/><path d="M527.1,289.8a.374.374,0,0,0-.512.2,28.581,28.581,0,0,1-6.495,9.1,1.524,1.524,0,0,1-1.073.307c-.052,0-.154-.051-.256-.256-.613-1.33.307-5.676,1.535-8.846a1.011,1.011,0,0,0-.256-1.125,1.051,1.051,0,0,0-1.125-.255,12.469,12.469,0,0,1-4.6,1.176c-.615,0-.972-.152-1.125-.409-.409-.664.306-2.4.868-3.63a2.05,2.05,0,0,0-.563-2.505l-.46-.41a1.247,1.247,0,0,0-1.175-.306,1.272,1.272,0,0,0-.921.767c-1.483,3.171-1.892,5.01-.358,6.6,1.279,1.33,4.3,1.022,5.625.818-1.33,3.324-2,7.363-.767,9.255a2.231,2.231,0,0,0,1.841.973h.051a5.674,5.674,0,0,0,3.375-1.687,1.132,1.132,0,0,0,.255-.257,28.794,28.794,0,0,0,6.29-9,.354.354,0,0,0-.154-.51" transform="translate(-289.243 -160.513)" fill="#fff"/><path d="M566.949,286.781c-2.4,0-4.4-2.813-4.858-5.421,0-.154-.2-.307-.358-.307a.342.342,0,0,0-.358.307c-.051.1-1.738,8.334-4.653,12.221h-.051a2.274,2.274,0,0,1-2.147.716,1.29,1.29,0,0,1-.921-.666c-1.483-2.1-1.33-8.488-.307-13.243a2.3,2.3,0,0,0-1.176-2.507l-.307-.2a1.368,1.368,0,0,0-1.176-.1,1.594,1.594,0,0,0-.817.817c-1.279,3.683-1.74,11.505.409,15.443a4.423,4.423,0,0,0,2.863,2.353,2.954,2.954,0,0,0,.666.051,3.385,3.385,0,0,0,1.839-.563,6.819,6.819,0,0,0,1.637-1.584h.051v-.052c2.3-3.017,3.837-8.438,4.449-11.044.921,2.4,2.863,4.5,5.216,4.5a.358.358,0,1,0,0-.716" transform="translate(-311.446 -157.493)" fill="#fff"/><path d="M591.364,288.5a3.858,3.858,0,0,0,.767.1c1.534,0,3.221-1.329,5.113-4.039a40.352,40.352,0,0,0,2.762-4.757.373.373,0,0,0-.2-.51.337.337,0,0,0-.461.152c-.921,1.995-3.323,6.24-5.573,7.824h-.052c-.2.154-.255.1-.306.051-.358-.2-.819-1.38-.615-3.784a36.86,36.86,0,0,1,2.66-9.459,1.879,1.879,0,0,0-.716-2.3l-.819-.512a1.2,1.2,0,0,0-.921-.154,1.077,1.077,0,0,0-.664.666c-1.176,2.709-3.938,11.863-2.353,15.39a2.352,2.352,0,0,0,1.382,1.329m4.243-18.561a1.646,1.646,0,0,0,.666.1,1.324,1.324,0,0,0,1.074-.562l1.176-1.993a2.62,2.62,0,0,0,.2-1.841,2.894,2.894,0,0,0-1.38-1.432l-.154-.051a1.281,1.281,0,0,0-1.687.512l-1.279,2.76a1.626,1.626,0,0,0,.767,2.149Z" transform="translate(-334.584 -149.853)" fill="#fff"/><path d="M629.023,286.446a.385.385,0,0,0-.51.051c-4.961,6.6-7.978,9.255-10.483,10.176h-.051a2.759,2.759,0,0,1-2.915-.767c-1.483-1.738-1.433-5.267.154-9,2.914-7.056,5.368-8.18,5.983-8.027a1.872,1.872,0,0,1,1.176,1.329,8.731,8.731,0,0,1,0,2.3.365.365,0,1,0,.716.1,5.76,5.76,0,0,0-.767-4.5,3.245,3.245,0,0,0-2.2-1.279c-2.353-.307-6.238,2.045-9.154,9.766-1.738,4.448-.818,7.209.2,8.743a5.624,5.624,0,0,0,4.4,2.507,7.786,7.786,0,0,0,2.608-.461h.1c3.017-1.125,6.188-4.243,10.841-10.431a.4.4,0,0,0-.1-.512" transform="translate(-346.216 -157.107)" fill="#fff"/><path d="M667.21,287.94a.406.406,0,0,0-.51.1c-4.3,5.726-6.9,8.027-9.1,8.846h-.051a2.11,2.11,0,0,1-2.3-.613c-1.125-1.279-1.177-3.937-.154-6.9,1.022-.2,5.113-1.125,6.954-4.55a4.673,4.673,0,0,0,.562-2.762,1.785,1.785,0,0,0-.1-.512,5.1,5.1,0,0,0-.306-.716,3.115,3.115,0,0,0-2.608-1.482c-2.353,0-5.728,2.352-8.233,8.794-1.483,3.887-.716,6.291.2,7.62a5,5,0,0,0,3.887,2.25,7.291,7.291,0,0,0,2.3-.409.05.05,0,0,0,.051-.052c2.659-.921,5.421-3.681,9.512-9.051a.409.409,0,0,0-.1-.562m-11.709.409c2.147-5.164,3.937-6.7,5.063-7.056a.96.96,0,0,1,.921.051l.306.409a3.549,3.549,0,0,1-.409,2.711c-1.483,2.709-4.6,3.733-5.983,4.038Z" transform="translate(-369.218 -158.55)" fill="#fff"/><path d="M698.3,284.725a.385.385,0,0,0-.51.051,18.555,18.555,0,0,1-6.087,4.346,17.725,17.725,0,0,0-2.4-4.6,8.708,8.708,0,0,1-1.892-4.091,6.113,6.113,0,0,1,2.761-5.267,1.1,1.1,0,0,1,1.125-.1,1.624,1.624,0,0,1,.512.51,3.7,3.7,0,0,1,.358,3.274.4.4,0,0,0,.154.51.416.416,0,0,0,.51-.2,4.37,4.37,0,0,0-.409-4.038,3.834,3.834,0,0,0-.613-.666h-.051V274.4a3.346,3.346,0,0,0-2.25-.613,5.724,5.724,0,0,0-4.091,2.3,7.509,7.509,0,0,0-1.382,5.932,11.34,11.34,0,0,0,2.25,4.5,13.793,13.793,0,0,1,2.149,4.039c-2.762,1.074-4.6,3.017-4.961,5.267a3,3,0,0,0,.769,2.813,2.547,2.547,0,0,0,1.125.512,3.848,3.848,0,0,0,1.329.2,5.375,5.375,0,0,0,3.068-1.024c1.176-.921,2.557-2.76,2.4-6.493a11.254,11.254,0,0,0-.257-1.945c4.6-2.3,6.392-4.5,6.444-4.652a.347.347,0,0,0-.052-.512m-11.454,13.551a2,2,0,0,1-2.1-.2,2.376,2.376,0,0,1-.51-2.147c.1-.717.767-3.171,4.346-4.6a5.181,5.181,0,0,1,.152,1.279c.154,4.039-1.072,5.267-1.892,5.676" transform="translate(-387.879 -155.386)" fill="#fff"/><path d="M129.931,368.21l.02-1.811a15.122,15.122,0,0,0-.1-1.994.879.879,0,0,0-.446-.656,1.388,1.388,0,0,0-.689-.236.5.5,0,0,1-.385-.108.3.3,0,0,1-.088-.176c0-.122.155-.182.466-.182l1.9.068,1.473-.034c.246,0,.371.077.371.23q0,.291-.587.291c-.227,0-.39.23-.494.689a6.576,6.576,0,0,0-.148,1.406v.621l-.034,1.541a.937.937,0,0,0,.1.54c.068.078.224.115.473.115l2.75-.02,3.169.034q.182,0,.182-2.331v-.906q0-1.257-.5-1.541a1.278,1.278,0,0,0-.412-.148,1.47,1.47,0,0,1-.351-.095.222.222,0,0,1-.142-.223c0-.111.217-.169.655-.169l1.622.034,1.311-.034c.257,0,.385.073.385.216s-.079.216-.236.216a.875.875,0,0,0-.709.291,1.112,1.112,0,0,0-.244.75l-.088,6.595v.615l.068,1.547c0,.727.469,1.139,1.412,1.236.135,0,.2.064.2.189,0,.078-.058.127-.17.149a3.966,3.966,0,0,1-.655.034l-1.291-.081-1.574.081h-.291c-.154,0-.247-.022-.277-.067a.291.291,0,0,1-.041-.156c0-.062.056-.122.17-.176a1.649,1.649,0,0,1,.365-.135,1.081,1.081,0,0,0,.392-.2q.35-.248.351-1.581l.048-2.966a.361.361,0,0,0-.2-.351,1.515,1.515,0,0,0-.649-.1q-.453,0-1.358.034l-.906.02-3.088-.054a.433.433,0,0,0-.338.1,1,1,0,0,0-.082.52l-.067,2.061v.723a3.153,3.153,0,0,0,.135,1.075,1.563,1.563,0,0,0,.655.689,1,1,0,0,0,.486.081c.368,0,.554.061.554.183,0,.2-.181.3-.541.3l-1.392-.067-1.811.081c-.527,0-.79-.083-.79-.25,0-.152.172-.252.52-.3a.767.767,0,0,0,.419-.209.927.927,0,0,0,.291-.52c.043-.22.094-.811.148-1.77s.081-1.88.081-2.75Z" transform="translate(-72.786 -206.055)" fill="#fff"/><path d="M176.631,369.005a6.472,6.472,0,0,1,1.7-4.621,6.264,6.264,0,0,1,4.8-1.8,7.58,7.58,0,0,1,2.595.419,5.415,5.415,0,0,1,1.831,1.034,5.734,5.734,0,0,1,1.122,1.4,5.358,5.358,0,0,1,.79,2.682,7.718,7.718,0,0,1-.892,3.858q-1.69,2.987-5.682,2.986a6.569,6.569,0,0,1-3.446-.872,5.488,5.488,0,0,1-2.135-2.2,6.27,6.27,0,0,1-.676-2.885m1.48-.858a6.762,6.762,0,0,0,.784,3.054,6.684,6.684,0,0,0,1.014,1.5,4.743,4.743,0,0,0,1.514,1.095,4.67,4.67,0,0,0,2,.425,4.729,4.729,0,0,0,2.453-.723,4.344,4.344,0,0,0,1.892-2.2,4.227,4.227,0,0,0,.317-1.649,6.588,6.588,0,0,0-1.594-4.716,5.193,5.193,0,0,0-3.939-1.689,4.38,4.38,0,0,0-3.142,1.243,4.833,4.833,0,0,0-1.3,3.655" transform="translate(-100.25 -205.789)" fill="#fff"/><path d="M226.3,374.988c-.235,0-.352-.089-.352-.27q0-.215.506-.23a.746.746,0,0,0,.419-.277,1.516,1.516,0,0,0,.331-.7,28.605,28.605,0,0,0,.216-2.987q.121-2.554.122-4a4.833,4.833,0,0,0-.332-2.088,1.955,1.955,0,0,0-1.412-.892.237.237,0,0,1-.216-.25c0-.166.1-.25.3-.25l.892.067,1.257-.034a.385.385,0,0,1,.4.23q.2.441.717,1.574t.831,1.8q.309.669.8,1.709t.784,1.682c.2.432.412.868.628,1.3s.388.753.507.96.19.31.223.31a.174.174,0,0,0,.115-.054.687.687,0,0,0,.115-.162,1.381,1.381,0,0,0,.1-.2c.027-.068.064-.152.115-.257s.091-.191.115-.25l2.162-4.46q.885-1.809,1.189-2.534l.386-.838a1.759,1.759,0,0,0,.074-.2c.017-.054.03-.095.04-.122s.023-.051.034-.074a.867.867,0,0,0,.061-.149.384.384,0,0,1,.095-.169.684.684,0,0,1,.486-.135l1.439.034c.189,0,.284.073.284.216a.274.274,0,0,1-.108.243,1.318,1.318,0,0,1-.487.128.664.664,0,0,0-.547.419,7.028,7.028,0,0,0-.162,2.02q0,1.65.1,3.486t.1,2.3a5.33,5.33,0,0,0,.263,2.142,1.2,1.2,0,0,0,1.128.46.285.285,0,0,1,.2.088.22.22,0,0,1,.095.149q0,.263-.182.263h-.182l-1.709-.061-1.751.081c-.2,0-.3-.078-.3-.237s.15-.265.452-.3a.645.645,0,0,0,.358-.21,1.079,1.079,0,0,0,.27-.554,5.279,5.279,0,0,0,.074-1c0-.423-.01-.887-.026-1.392s-.032-.993-.054-1.466-.046-.925-.068-1.344-.04-.76-.054-1.027l-.034-.406c0-.481-.051-.723-.148-.723a.117.117,0,0,0-.1.054c-.027.032-.052.059-.074.081a.364.364,0,0,0-.067.108,1.35,1.35,0,0,1-.068.128,1.454,1.454,0,0,0-.088.142c-.032.064-.059.115-.081.155l-.081.189a1.45,1.45,0,0,0-.1.2l-2.331,4.709q-.4.826-.777,1.615t-.446.892a.219.219,0,0,1-.2.108.281.281,0,0,1-.223-.142,3.877,3.877,0,0,1-.3-.628c-.135-.324-.253-.591-.352-.8q-3.068-6.236-3.135-6.331c-.045-.063-.084-.095-.115-.095-.091,0-.134.227-.134.676l-.156,4.426v.757q0,1.373.554,1.689a1.254,1.254,0,0,0,.554.189c.279.032.419.106.419.223a.371.371,0,0,1-.054.237.269.269,0,0,1-.2.054l-1.743-.061Z" transform="translate(-128.033 -206.055)" fill="#fff"/><path d="M279.62,368.93l.047-2.9q0-.459-.034-1.527a.894.894,0,0,0-.419-.757,1.739,1.739,0,0,0-.939-.284q-.264,0-.264-.3c0-.157.156-.237.466-.237l.453.034,4.095.088,3.351-.068c.211,0,.317.128.317.385a6.4,6.4,0,0,1-.1.662,5.543,5.543,0,0,0-.095.878c0,.362-.088.541-.263.541s-.257-.132-.257-.4a1.251,1.251,0,0,0-.291-.777.9.9,0,0,0-.7-.385q-1.507-.121-2.311-.122h-.439a2.187,2.187,0,0,0-1.007.122q-.251.218-.25,3.7c0,.559.1.845.317.858h1.642a8.4,8.4,0,0,0,1.344-.067,1.068,1.068,0,0,0,.987-.872c.035-.189.108-.284.216-.284s.179.019.2.054a.421.421,0,0,1,.034.209l-.128,1.763.047,1.021c0,.284-.039.426-.115.426-.172,0-.3-.135-.371-.405a1.867,1.867,0,0,0-.419-.825,2.378,2.378,0,0,0-1.223-.23H282.3l-.534-.02h-.122q-.689,0-.689.318l-.027,2.419v.669q0,1.211.406,1.338a2.569,2.569,0,0,0,.716.122,11.68,11.68,0,0,0,3.635-.405,2.233,2.233,0,0,0,1.21-.77c.135-.279.259-.419.371-.419.13,0,.2.095.2.284a2.126,2.126,0,0,1-.723,1.459,1.951,1.951,0,0,1-1.25.736q-1.211,0-2.729-.081t-1.885-.081l-2.277.149c-.24,0-.359-.058-.359-.169v-.2c0-.068.056-.112.169-.135a1.848,1.848,0,0,0,.574-.2,1.017,1.017,0,0,0,.507-.77,14.723,14.723,0,0,0,.128-2.467Z" transform="translate(-157.791 -205.984)" fill="#fff"/><path d="M344.207,369.412a7.429,7.429,0,0,1,.7-3.27,5.567,5.567,0,0,1,2.176-2.352,6.535,6.535,0,0,1,3.48-.9,7.327,7.327,0,0,1,2.061.3,10.554,10.554,0,0,1,1.662.6l.622.317a.38.38,0,0,0,.162-.081.383.383,0,0,1,.2-.088.255.255,0,0,1,.155.068c.057.045.09.172.095.378s.031.493.067.858.076.659.108.892.054.375.054.419q0,.3-.2.3c-.1,0-.194-.077-.284-.236a5.105,5.105,0,0,0-4.7-3.047,4.659,4.659,0,0,0-3.439,1.344,4.733,4.733,0,0,0-1.338,3.5,6.84,6.84,0,0,0,1.237,4.122,4.232,4.232,0,0,0,1.743,1.379,6.224,6.224,0,0,0,2.588.5,4.774,4.774,0,0,0,4.054-2.514.265.265,0,0,1,.25-.115c.1,0,.156.071.156.209a2.77,2.77,0,0,1-.061.52q-.061.312-.142.689c-.054.248-.088.4-.1.459a.436.436,0,0,1-.27.3q-.908.441-1.405.656a7.246,7.246,0,0,1-2.865.574,9.435,9.435,0,0,1-2.689-.352,6.123,6.123,0,0,1-1.919-.925,5.349,5.349,0,0,1-1.25-1.345,5.567,5.567,0,0,1-.905-3.169" transform="translate(-195.361 -205.966)" fill="#fff"/><path d="M392.962,368.93l.054-2.9q0-.459-.034-1.527a.909.909,0,0,0-.425-.757,1.428,1.428,0,0,0-.75-.277c-.235,0-.365-.027-.392-.067a.313.313,0,0,1-.041-.176c0-.2.15-.3.453-.3l.453.034,1.459.068,1.757-.068c.189,0,.284.058.284.169a.3.3,0,0,1-.2.311,1.715,1.715,0,0,1-.439.1.716.716,0,0,0-.473.372,2.048,2.048,0,0,0-.257,1.013q-.036.669-.088,3.676t-.048,3.351v.669q0,1.211.412,1.338a2.548,2.548,0,0,0,.71.122,11.51,11.51,0,0,0,3.622-.405,2.159,2.159,0,0,0,1.209-.77q.215-.418.385-.419.2,0,.2.284a2.124,2.124,0,0,1-.723,1.459,1.95,1.95,0,0,1-1.257.736q-1.211,0-2.729-.081t-1.878-.081l-2.1.128c-.325,0-.487-.064-.487-.2a.236.236,0,0,1,.095-.2.406.406,0,0,1,.257-.074.821.821,0,0,0,.439-.2,1.372,1.372,0,0,0,.4-.831,13.953,13.953,0,0,0,.135-2.419Z" transform="translate(-222.131 -205.984)" fill="#fff"/><path d="M433.16,368.93l.047-2.9q0-.459-.034-1.527a.894.894,0,0,0-.419-.757,1.739,1.739,0,0,0-.939-.284q-.264,0-.264-.3c0-.157.156-.237.466-.237l.453.034,4.095.088,3.351-.068c.211,0,.317.128.317.385a6.375,6.375,0,0,1-.1.662,5.542,5.542,0,0,0-.095.878c0,.362-.088.541-.263.541s-.257-.132-.257-.4a1.251,1.251,0,0,0-.291-.777.9.9,0,0,0-.7-.385q-1.508-.121-2.311-.122h-.439a2.187,2.187,0,0,0-1.007.122q-.251.218-.25,3.7c0,.559.1.845.317.858h1.642a8.4,8.4,0,0,0,1.344-.067,1.069,1.069,0,0,0,.987-.872c.036-.189.108-.284.216-.284s.179.019.2.054a.421.421,0,0,1,.034.209l-.128,1.763.047,1.021c0,.284-.039.426-.115.426-.172,0-.3-.135-.371-.405a1.867,1.867,0,0,0-.419-.825,2.379,2.379,0,0,0-1.223-.23h-1.209l-.534-.02h-.122q-.689,0-.689.318l-.027,2.419v.669q0,1.211.406,1.338a2.569,2.569,0,0,0,.716.122,11.681,11.681,0,0,0,3.635-.405,2.233,2.233,0,0,0,1.21-.77c.135-.279.259-.419.371-.419.13,0,.2.095.2.284a2.126,2.126,0,0,1-.723,1.459,1.951,1.951,0,0,1-1.25.736q-1.211,0-2.729-.081t-1.885-.081l-2.277.149c-.24,0-.358-.058-.358-.169v-.2c0-.068.056-.112.169-.135a1.848,1.848,0,0,0,.574-.2,1.017,1.017,0,0,0,.507-.77,14.727,14.727,0,0,0,.128-2.467Z" transform="translate(-244.935 -205.984)" fill="#fff"/><path d="M473.695,374.643l-1.439.068q-.486,0-.486-.2a.316.316,0,0,1,.25-.318,1.911,1.911,0,0,0,.932-.9q.405-.694,2.02-4.209t2.885-6.2a.9.9,0,0,1,.2-.317.465.465,0,0,1,.27-.068c.117,0,.191.024.223.068a2.4,2.4,0,0,1,.189.452c.089.257.159.453.21.588s.13.355.243.655.291.755.534,1.358.811,1.926,1.69,3.966,1.382,3.2,1.514,3.473a2.185,2.185,0,0,0,.554.7,1.25,1.25,0,0,0,.615.317,2.017,2.017,0,0,1,.439.088.241.241,0,0,1,.176.256c0,.167-.152.25-.453.25l-1.513-.1-1.554.067a3.319,3.319,0,0,1-.669-.04.171.171,0,0,1-.142-.176.23.23,0,0,1,.135-.209.958.958,0,0,1,.284-.1.541.541,0,0,0,.284-.149.557.557,0,0,0,.135-.419,6.2,6.2,0,0,0-.419-1.439,14.944,14.944,0,0,0-.7-1.676q-.15-.284-.689-.284l-2.027.034H476.5a3.07,3.07,0,0,0-.953.088.664.664,0,0,0-.318.352c-.081.176-.2.424-.358.743s-.267.541-.324.662-.12.277-.2.467a2.233,2.233,0,0,0-.216.845.747.747,0,0,0,.189.534.735.735,0,0,0,.426.237c.414.032.621.138.621.317a.258.258,0,0,1-.054.176c-.032.037-.108.054-.23.054Zm4.041-9.561a6.474,6.474,0,0,0-.953,1.858,13.52,13.52,0,0,0-.8,2.054.233.233,0,0,0,.148.25,3.038,3.038,0,0,0,.7.047h.52l1.595-.013c.436,0,.655-.081.655-.243a12.016,12.016,0,0,0-.824-2.095q-.826-1.857-1.04-1.858" transform="translate(-267.761 -205.744)" fill="#fff"/><path d="M522.125,375.006l-1.426.034c-.243,0-.365-.089-.365-.27,0-.1.071-.162.216-.189a1.622,1.622,0,0,0,.534-.264,1.161,1.161,0,0,0,.453-.709,25.816,25.816,0,0,0,.284-3.23q.154-2.737.155-3.973a3.953,3.953,0,0,0-.405-1.952,1.6,1.6,0,0,0-1.3-.818c-.145-.008-.216-.091-.216-.25a.24.24,0,0,1,.115-.189.463.463,0,0,1,.3-.095l.635.013.824-.034a.867.867,0,0,1,.351.095c.135.064.211.12.23.169a1.244,1.244,0,0,0,.182.25c.1.119.238.27.406.46a7.136,7.136,0,0,1,.453.554q2.283,2.967,6.108,7.162c.068.077.149.167.243.27a2.8,2.8,0,0,1,.2.223,1.5,1.5,0,0,0,.128.142c.081.081.144.122.189.122q.162,0,.162-1.041v-1.966l-.034-3.432v-.121q0-1.541-.534-1.959a1.165,1.165,0,0,0-.338-.2c-.091-.027-.22-.056-.385-.088q-.689-.134-.689-.378t.324-.243l1.588.013s.5-.01,1.513-.034a.876.876,0,0,1,.392.061.194.194,0,0,1,.108.176.207.207,0,0,1-.1.182,2.27,2.27,0,0,1-.487.2q-.555.3-.554,1.9v.635l-.182,8.3v.338q0,.385-.237.385a.362.362,0,0,1-.263-.115q-5.569-6.459-6.649-7.675a6.819,6.819,0,0,0-1.2-1.216q-.17,0-.169,1.372t-.067,3.2q-.068,1.832-.067,2a2.132,2.132,0,0,0,.256,1.155.917.917,0,0,0,.568.446c.2.032.388.068.561.108s.263.113.263.23-.02.192-.06.223a.323.323,0,0,1-.21.054Z" transform="translate(-295.165 -206.073)" fill="#fff"/><path d="M569.446,368.21l.02-1.811v-.771a9.12,9.12,0,0,0-.061-1.182.851.851,0,0,0-.453-.662,1.754,1.754,0,0,0-.777-.23q-.385-.02-.385-.263t.466-.243l1.9.068,1.473-.034c.3,0,.453.077.453.23,0,.091-.257.243-.771.459q-.542.218-.54,1.926l-.048,6.2a3.687,3.687,0,0,0,.392,1.987,1.079,1.079,0,0,0,.831.568l.338.013a.5.5,0,0,1,.23.061.193.193,0,0,1,.121.189c0,.159-.14.237-.419.237l-1.594-.067-1.845.081c-.505,0-.757-.083-.757-.25,0-.152.173-.252.52-.3a.765.765,0,0,0,.419-.209.827.827,0,0,0,.277-.439q.06-.243.135-2.027t.074-2.574Z" transform="translate(-322.26 -206.055)" fill="#fff"/><path d="M599.38,375.006l-1.426.034c-.243,0-.365-.089-.365-.27,0-.1.071-.162.216-.189a1.621,1.621,0,0,0,.534-.264,1.161,1.161,0,0,0,.453-.709,25.841,25.841,0,0,0,.284-3.23q.154-2.737.155-3.973a3.954,3.954,0,0,0-.405-1.952,1.6,1.6,0,0,0-1.3-.818c-.145-.008-.216-.091-.216-.25a.241.241,0,0,1,.115-.189.463.463,0,0,1,.3-.095l.635.013.824-.034a.867.867,0,0,1,.351.095c.135.064.211.12.23.169a1.243,1.243,0,0,0,.182.25c.1.119.238.27.406.46a7.136,7.136,0,0,1,.453.554q2.283,2.967,6.108,7.162c.068.077.149.167.243.27a2.792,2.792,0,0,1,.2.223,1.507,1.507,0,0,0,.128.142c.081.081.144.122.189.122q.162,0,.162-1.041v-1.966l-.034-3.432v-.121q0-1.541-.534-1.959a1.164,1.164,0,0,0-.338-.2c-.091-.027-.22-.056-.385-.088q-.689-.134-.689-.378t.324-.243l1.588.013s.5-.01,1.513-.034a.876.876,0,0,1,.392.061.194.194,0,0,1,.108.176.207.207,0,0,1-.1.182,2.273,2.273,0,0,1-.487.2q-.554.3-.554,1.9v.635l-.182,8.3v.338q0,.385-.237.385a.363.363,0,0,1-.263-.115q-5.569-6.459-6.649-7.675a6.818,6.818,0,0,0-1.2-1.216q-.17,0-.169,1.372t-.067,3.2q-.068,1.832-.067,2a2.132,2.132,0,0,0,.256,1.155.917.917,0,0,0,.568.446c.2.032.388.068.561.108s.263.113.263.23-.02.192-.06.223a.323.323,0,0,1-.21.054Z" transform="translate(-339.012 -206.073)" fill="#fff"/><path d="M656.6,368.628l1.338-.013h.257c.176,0,.263.051.263.148q0,.117-.426.3t-.48.466a9.765,9.765,0,0,0-.115,1.554c0,.554,0,.96.014,1.216s.022.439.027.547.01.2.02.277a1.154,1.154,0,0,1,.02.182c0,.041-.044.078-.128.108s-.216.066-.405.115a2,2,0,0,0-.52.216c-.159.095-.277.166-.359.209s-.181.1-.31.169-.257.135-.392.2-.282.138-.453.209-.341.138-.52.2-.358.1-.547.149a5.457,5.457,0,0,1-1.21.149,9.3,9.3,0,0,1-3.182-.493,4.968,4.968,0,0,1-2.081-1.331,5.858,5.858,0,0,1-1.446-3.98,7.242,7.242,0,0,1,.73-3.284,5.674,5.674,0,0,1,2.236-2.358,6.919,6.919,0,0,1,3.594-.9,7.429,7.429,0,0,1,3.453.757,5.09,5.09,0,0,1,.513.31.646.646,0,0,0,.216.128.663.663,0,0,0,.216-.128.573.573,0,0,1,.243-.128c.166,0,.252.139.257.413s.031.593.068.953.076.652.108.885.054.375.054.419c0,.189-.068.284-.2.284a.294.294,0,0,1-.284-.2,5.107,5.107,0,0,0-1.966-2.149,5.164,5.164,0,0,0-2.831-.885,4.775,4.775,0,0,0-3.459,1.318,4.831,4.831,0,0,0-1.365,3.649,7.442,7.442,0,0,0,.567,2.9,5.419,5.419,0,0,0,1.73,2.25,4.151,4.151,0,0,0,2.567.885,4.97,4.97,0,0,0,2.453-.581,2.009,2.009,0,0,0,1.162-1.344q.053-.405.054-2.115a1.272,1.272,0,0,0-.243-.9,1.239,1.239,0,0,0-.763-.3c-.348-.04-.541-.1-.581-.169a.45.45,0,0,1-.054-.21c0-.122.1-.182.3-.182Z" transform="translate(-366.63 -205.851)" fill="#fff"/></g></svg>