<svg xmlns="http://www.w3.org/2000/svg" xmlns:xlink="http://www.w3.org/1999/xlink" width="20" height="20" viewBox="0 0 20 20"><defs><clipPath id="a"><rect width="20" height="20" transform="translate(559 1694)" fill="#fff" stroke="#707070" stroke-width="1"/></clipPath></defs><g transform="translate(-559 -1694)" clip-path="url(#a)"><path d="M29.427.653,26.986,5.6l-5.462.8a1.2,1.2,0,0,0-.662,2.041l3.951,3.85-.935,5.439a1.2,1.2,0,0,0,1.735,1.26L30.5,16.421l4.886,2.568a1.2,1.2,0,0,0,1.735-1.26l-.935-5.439,3.951-3.85A1.2,1.2,0,0,0,39.475,6.4l-5.462-.8L31.572.653A1.2,1.2,0,0,0,29.427.653Z" transform="translate(538.5 1694.638)" fill="#ee2424"/></g></svg>